/* XPM */
static char *characterSOLA1675892910[] = {
/* columns rows colors chars-per-pixel */
"64 64 203 2 ",
"   c black",
".  c #010000",
"X  c #000100",
"o  c #010101",
"O  c #030000",
"+  c #000201",
"@  c #040000",
"#  c #060000",
"$  c #070000",
"%  c #030005",
"&  c #000007",
"*  c #080000",
"=  c #0A0000",
"-  c #0B0000",
";  c #0D0000",
":  c #0E0000",
">  c #0F0000",
",  c #040009",
"<  c #060009",
"1  c #00000C",
"2  c #00000E",
"3  c #01000E",
"4  c #04000C",
"5  c #07000E",
"6  c #080009",
"7  c #0B0009",
"8  c #110000",
"9  c #120000",
"0  c #140000",
"q  c #150000",
"w  c #160000",
"e  c #170000",
"r  c #180000",
"t  c #190000",
"y  c #1C0000",
"u  c #1D0000",
"i  c #000010",
"p  c #000012",
"a  c #000013",
"s  c #060010",
"d  c #000014",
"f  c #220000",
"g  c #371D1E",
"h  c #3D1B1A",
"j  c #3E1A1A",
"k  c #3B1B1C",
"l  c #3D1B1C",
"z  c #391D1C",
"x  c #3A1B20",
"c  c #451717",
"v  c #461616",
"b  c #471717",
"n  c #4F1112",
"m  c #4F1313",
"M  c #4B1513",
"N  c #4C1510",
"B  c #4E1413",
"V  c #4E1315",
"C  c #4F1315",
"Z  c #4B1515",
"A  c #491615",
"S  c #491517",
"D  c #4B1417",
"F  c #481617",
"G  c #4A1716",
"H  c #4C1415",
"J  c #441913",
"K  c #421915",
"L  c #441618",
"P  c #471619",
"I  c #42171E",
"U  c #47161C",
"Y  c #47151E",
"T  c #491519",
"R  c #48151A",
"E  c #411919",
"W  c #421819",
"Q  c #401A19",
"!  c #40191A",
"~  c #42181A",
"^  c #43191B",
"/  c #441819",
"(  c #41181E",
")  c #521011",
"_  c #521210",
"`  c #521012",
"'  c #531112",
"]  c #531113",
"[  c #501312",
"{  c #501213",
"}  c #521212",
"|  c #521213",
" . c #531313",
".. c #551112",
"X. c #551013",
"o. c #541213",
"O. c #541214",
"+. c #393B50",
"@. c #393B52",
"#. c #343B58",
"$. c #373A59",
"%. c #363B59",
"&. c #333B5F",
"*. c #353B5D",
"=. c #363A5D",
"-. c #353B5F",
";. c #363A5F",
":. c #333C5D",
">. c #363C5E",
",. c #393A58",
"<. c #383C59",
"1. c #2F386F",
"2. c #363962",
"3. c #333A64",
"4. c #353A64",
"5. c #333969",
"6. c #303B69",
"7. c #323A68",
"8. c #333A68",
"9. c #323A69",
"0. c #303A6B",
"q. c #323A6B",
"w. c #2F3A70",
"e. c #303970",
"r. c #323970",
"t. c #303972",
"y. c #6E6963",
"u. c #6B6A65",
"i. c #6B6A66",
"p. c #6D6864",
"a. c #6D6A65",
"s. c #6C6867",
"d. c #6E6966",
"f. c #6C6B67",
"g. c #6E6B66",
"h. c #676B6A",
"j. c #676C68",
"k. c #676B6E",
"l. c #676A6F",
"z. c DimGray",
"x. c #696B68",
"c. c #686A69",
"v. c #6A6A68",
"b. c #6B6A68",
"n. c #6B6B69",
"m. c #68696B",
"M. c #6B696A",
"N. c #696B6A",
"B. c #6A6A6A",
"V. c gray42",
"C. c #6D6968",
"Z. c #6E6868",
"A. c #6F6969",
"S. c #6C6B69",
"D. c #6D696A",
"F. c #6E686A",
"G. c #686C6B",
"H. c #6A6C6B",
"J. c #6B696C",
"K. c #696A6C",
"L. c #6A6A6C",
"P. c #6A6B6D",
"I. c #696A6E",
"U. c #696A6F",
"Y. c #716766",
"T. c #706866",
"R. c #706768",
"E. c #676A71",
"W. c #EDC298",
"Q. c #EEC399",
"!. c #EDC39B",
"~. c #EDC39D",
"^. c #EBC49D",
"/. c #EAC49F",
"(. c #EEC49C",
"). c #EEC49E",
"_. c #DFC5AC",
"`. c #DDC7AF",
"'. c #DFC7AF",
"]. c #DDC7B0",
"[. c #DCC7B2",
"{. c #DDC7B2",
"}. c #DAC7B6",
"|. c #DCC7B4",
" X c #DAC8B4",
".X c #D6C8BB",
"XX c #E7C5A2",
"oX c #E3C4A7",
"OX c #E7C4A4",
"+X c #E4C5A6",
"@X c #E8C4A0",
"#X c #EAC4A0",
"$X c #E8C4A2",
"%X c #E3C5A9",
"&X c #E0C6AB",
"*X c #E1C6AB",
"=X c #E4C5A8",
"-X c #E1C5AD",
";X c #E0C6AD",
":X c #E2C7AC",
">X c #D7C9C0",
",X c #D9C8C0",
"<X c #FFF8D6",
/* pixels */
"N.N.N.N.N.N.N.N.N.N.N.N.N.N.N.N.N.N.N.N.N.N.N.N.N.N.N.N.N.N.N.N.N.N.h.N.N.N.N.N.N.N.N.N.N.N.N.N.N.N.N.N.N.N.N.N.N.N.N.N.N.N.N.N.",
"N.N.N.N.N.N.N.N.N.N.N.N.N.N.N.N.N.N.N.N.N.N.N.N.N.N.N.N.N.N.N.N.N.N.N.N.N.h.N.N.N.N.N.N.N.N.N.N.N.N.N.N.N.N.N.N.N.N.N.N.N.N.N.N.",
"N.N.N.N.N.N.N.N.N.N.N.N.N.N.N.N.N.N.N.N.N.N.N.N.N.N.N.N.N.N.N.N.N.N.N.N.N.N.N.N.N.N.N.N.N.N.N.N.N.N.N.N.N.N.N.N.N.N.N.N.N.N.N.N.",
"N.N.N.N.N.N.N.N.N.N.N.N.N.N.N.N.N.N.N.N.N.N.N.N.N.N.N.N.N.N.N.N.N.N.N.N.N.N.N.N.G.N.N.N.N.N.N.N.N.N.N.N.N.N.N.N.N.N.N.N.N.N.N.N.",
"N.N.N.N.N.N.N.N.N.N.N.N.N.N.N.N.N.N.N.N.N.N.N.N.N.N.N.N.N.N.N.N.N.N.N.N.N.i.h.N.N.G.N.N.N.N.N.N.N.N.N.N.N.N.N.N.N.N.N.N.N.N.N.N.",
"N.N.N.N.N.N.N.N.N.N.N.N.N.N.N.N.N.N.N.N.N.N.N.N.N.N.N.N.N.N.N.N.N.N.N.N.N.N.N.N.N.N.N.N.N.N.N.N.N.N.N.N.N.N.N.N.N.N.N.N.N.N.N.N.",
"N.N.N.N.N.N.N.N.N.N.N.N.N.N.N.N.N.N.N.N.N.N.N.N.N.N.N.N.N.N.N.N.N.N.N.N.N.N.N.N.j.G.N.N.N.N.N.N.N.N.N.N.N.N.N.N.N.N.N.N.N.N.N.N.",
"N.N.N.N.N.N.N.N.N.N.N.N.N.N.N.N.N.N.N.N.N.N.N.N.N.N.N.N.N.N.N.N.N.h.N.N.N.h.O O O O O h.N.N.N.N.N.N.N.N.N.N.N.N.N.N.N.N.N.N.N.N.",
"N.N.N.N.N.N.N.N.N.N.N.N.N.N.N.N.N.N.N.N.N.N.N.N.N.N.G.G.N.H.G.j.N.N.N.N.G.G.O O O O O h.N.N.h.h.N.N.N.N.N.N.N.N.N.N.N.N.N.N.N.N.",
"N.N.N.N.N.N.N.N.N.N.N.N.N.N.N.N.N.N.N.N.N.N.N.N.N.N.N.G.N.G.G.j.N.N.N.N.j.j.O O O O O N.N.N.h.h.N.N.N.N.N.N.N.N.N.N.N.N.N.N.N.N.",
"N.N.N.N.N.N.N.N.N.N.N.N.N.N.N.N.N.N.N.N.N.N.N.N.N.N.j.O O O O O O O O O O O O O O O O h.N.N.N.N.N.N.N.N.N.N.N.N.N.N.N.N.N.N.N.N.",
"N.N.N.N.N.N.N.N.N.N.N.N.N.N.N.N.N.N.N.N.N.N.N.N.N.N.j.O + O O O O O O O O O O O O O O N.N.N.N.N.N.N.N.N.N.N.N.N.N.N.N.N.N.N.N.N.",
"N.N.N.N.N.N.N.N.N.N.N.N.N.N.N.N.N.N.N.N.N.N.N.N.N.h.O O O O O O O O O O O O O O O h.N.N.N.N.N.N.N.N.N.N.N.N.N.N.N.N.N.N.N.N.N.N.",
"N.N.N.N.N.N.N.N.N.N.N.N.N.N.N.N.N.N.N.N.N.N.N.N.N.O O O O O O O O O O O O O O O O h.N.N.N.N.N.N.N.N.N.N.N.N.N.N.N.N.N.N.N.N.N.N.",
"N.N.N.N.N.N.N.N.N.N.N.N.N.N.N.N.N.N.N.N.N.N.N.N.O O O O O O O O O O O O O O O O O j.L.N.N.N.N.N.N.N.N.N.N.N.N.N.N.N.N.N.N.N.N.N.",
"N.N.N.N.N.N.N.N.N.N.N.N.N.N.N.N.N.N.N.N.N.N.N.h.O O O O O O O O O O O O O O O O O j.G.N.N.N.N.N.N.N.N.N.N.N.N.N.N.N.N.N.N.N.N.N.",
"N.N.N.N.N.N.N.N.N.N.N.N.N.N.N.N.N.N.N.N.N.N.N.i.* * @ O O O O O O O O O O O O O O N.L.L.N.N.N.N.N.N.N.N.N.N.N.N.N.N.N.N.N.N.N.N.",
"N.N.N.N.N.N.N.N.N.N.N.N.N.N.N.N.N.N.N.N.N.N.N.@ |.'.; * @ @ O O O O O O O O O O O N.h.L.N.N.N.N.N.N.N.N.N.N.N.N.N.N.N.N.N.N.N.N.",
"N.N.N.N.N.N.N.N.N.N.N.N.N.N.N.N.N.N.N.i.N.N.N.* &X$XOX&X;X0 * O O O O O O O O O O h.h.h.N.N.N.N.N.N.N.N.N.N.N.N.N.N.N.N.N.N.N.N.",
"N.N.N.N.N.N.N.N.N.N.N.N.N.N.N.N.N.N.i.N.N.N.N.* &X!.~.!./.+X`.; @ O O O O O O O O h.h.h.h.N.N.N.N.N.N.N.N.N.N.N.N.N.N.N.N.N.N.N.",
"N.N.N.N.N.N.N.N.N.N.N.N.N.N.N.N.N.N.N.N.N.N.N.* '.t <XXX^./.#X=X|.* O O O O O O O G.G.N.h.L.N.N.N.N.N.N.N.N.N.N.N.N.N.N.N.N.N.N.",
"N.N.N.N.N.N.N.N.N.N.N.N.N.N.N.N.N.N.N.N.N.N.N.* '.XX$X!.Q.Q.~.#Xt |.@ O O O O O O j.N.N.L.N.N.h.N.N.N.N.N.N.N.N.N.N.N.N.N.N.N.N.",
"N.N.N.N.N.N.N.N.N.N.N.N.N.N.N.N.H.N.N.N.N.N.N.* +X!.!.Q.Q.Q.#Xt #X&X@ O O O O O h.N.N.N.N.N.N.N.N.N.N.N.N.N.N.N.N.N.N.N.N.N.N.N.",
"N.N.N.N.N.N.N.N.N.N.N.N.N.N.N.N.N.H.N.N.N.N.N.* '.XX~.Q.Q.~.#X#XQ.OX; @ O O O N.N.N.N.N.N.N.N.N.N.N.N.N.N.N.N.N.N.N.N.N.N.N.N.N.",
"N.N.N.N.N.N.N.N.N.N.N.N.N.N.N.N.N.N.N.N.N.N.N.p.; '.#XQ.Q.Q.Q.!.Q.$X=X0 @ O j.L.N.N.N.N.N.i.N.N.N.N.N.N.N.N.N.N.N.N.N.N.N.N.N.N.",
"N.N.N.N.N.N.N.N.N.N.N.N.N.N.N.N.N.N.N.N.N.N.N.N.p.* ;X#X#X/.#X#X$X$X;X|.O L.H.H.N.h.N.N.N.j.N.N.N.N.N.N.N.N.N.N.N.N.N.N.N.N.N.N.",
"N.N.N.N.N.N.N.N.N.N.N.N.N.N.N.N.N.N.N.N.N.N.N.N.N.y.* {.'.&X;X;X;X{.* @ N.N.h.N.N.i.N.N.N.N.N.N.N.N.N.N.N.N.N.N.N.N.N.N.N.N.N.N.",
"N.N.N.N.N.N.N.N.N.N.N.N.N.N.N.N.N.N.N.N.N.N.N.N.N.S.y.* ; ; t t t 0 @ S.N.h.N.N.i.N.N.N.N.N.N.N.N.N.N.N.N.N.N.N.N.N.N.N.N.N.N.N.",
"N.N.N.N.N.N.N.N.N.N.N.N.N.N.N.N.N.N.L.L.h.N.N.N.N.N.S.y.y.* J N N K * S.N.N.N.N.N.N.N.N.N.N.N.N.N.N.N.N.N.N.N.N.N.N.N.N.N.N.N.N.",
"N.N.N.N.N.N.N.N.N.N.N.N.N.N.N.N.N.N.L.L.N.N.N.N.N.N.N.S.* 0 G _ _ G 0 @ N.N.N.N.N.N.N.N.N.N.N.N.N.N.N.N.N.N.N.N.N.N.N.N.N.N.N.N.",
"N.N.N.N.N.N.N.N.N.N.N.N.N.N.N.N.N.N.N.N.N.N.L.L.N.N.S.@ 0 / D _ ..C / 0 * J.N.N.N.N.N.N.N.N.N.N.N.N.N.N.N.N.N.N.N.N.N.N.N.N.N.N.",
"N.N.N.N.N.N.N.N.N.N.N.N.N.N.N.N.N.N.N.N.N.N.L.h.N.N.@ ; ~ D ...._ n C ~ ; @ N.N.N.N.N.N.N.N.N.N.N.N.N.N.N.N.N.N.N.N.N.N.N.N.N.N.",
"N.N.N.N.N.N.N.N.N.N.N.N.N.N.N.N.N.N.S.N.N.N.N.N.N.S.; l G n ] ] _ ] ] G l ; S.N.N.i.N.M.N.N.h.j.N.N.N.N.N.N.N.N.N.N.N.N.N.N.N.N.",
"N.N.N.N.N.N.N.N.N.N.N.N.N.N.N.N.N.N.N.N.N.N.N.N.S.* 0 c n ] .._ ] _ _ C c 0 @ N.i.N.N.N.M.N.i.h.N.N.N.N.N.N.N.N.N.N.N.N.N.N.N.N.",
"N.N.N.N.N.N.N.N.N.N.N.N.N.N.N.N.N.N.N.N.N.N.N.S.Y.0 c n _ ] ]  .] ] ` _ n ~ ; N.N.N.N.N.N.N.N.N.N.N.N.N.N.N.N.N.N.N.N.N.N.N.N.N.",
"N.N.N.N.N.N.N.N.N.N.N.N.N.N.N.N.L.N.N.N.N.N.S.T.; h G _ _  . .N ] _ ..` _ G ; S.N.N.N.N.h.h.N.N.N.N.N.N.N.N.N.N.N.N.N.N.N.N.N.N.",
"N.N.N.N.N.N.N.N.N.N.N.N.N.N.N.N.N.N.L.L.N.s.p.; 0 c _ _ o._ / f ] _ ] ` ] G 0 @ i.N.N.N.N.N.N.N.N.N.N.N.N.N.N.N.N.N.N.N.N.N.N.N.",
"N.N.N.N.N.N.N.N.N.N.N.N.N.N.N.N.N.N.L.L.N.F.* z P G C C D b ~ y C ] ] ` ..G l * F.N.N.N.N.N.N.N.N.N.N.N.N.N.N.N.N.N.N.N.N.N.N.N.",
"N.N.N.N.N.N.N.N.N.N.N.N.N.N.N.N.N.N.N.N.L.S.; ~ G C P l l 0 0 y C ] ` .._ G ~ ; F.N.N.N.N.N.N.N.N.N.N.N.N.N.N.N.N.N.N.N.N.N.N.N.",
"N.N.N.N.N.N.N.N.N.N.N.N.N.N.N.N.N.N.N.N.L.S.0 l c G y 0 0 0 ~ T C ] ] _ ` C ~ 0 R.N.N.N.N.N.N.N.N.N.N.N.N.N.N.N.N.N.N.N.N.N.N.N.",
"N.N.N.N.N.N.N.N.N.N.N.N.N.N.N.N.N.N.N.N.L.F.* z h l t ~ J D D _ _ ] ] _ ..C ~ ; R.N.N.N.N.N.N.N.N.N.N.N.N.N.N.N.N.N.N.N.N.N.N.N.",
"N.N.N.N.N.N.N.N.N.N.N.N.N.N.N.N.N.N.N.N.L.N.R.* 0 t y c D ....] _ ] ] ] ..C ~ 0 R.N.N.N.N.N.N.N.N.N.N.N.N.N.N.N.N.N.N.N.N.N.N.N.",
"N.N.N.N.N.N.N.N.N.N.N.N.N.N.N.N.N.N.N.N.N.N.S.Y.; Q G C _ _ ] ] ] ] ...._ C ~ ; R.N.N.N.N.N.N.N.N.N.N.N.N.N.N.N.N.N.N.N.N.N.N.N.",
"N.N.N.N.N.N.N.N.N.N.N.N.N.N.N.N.N.N.N.N.N.L.L.y.0 ~ n ] o._ .._ _ _ ......D ~ 0 R.N.S.N.N.N.N.N.N.N.N.N.N.N.N.N.N.N.N.N.N.N.N.N.",
"N.N.N.N.N.N.N.N.N.N.N.N.N.N.N.N.N.N.N.N.N.N.N.y.0 ~ N _ _ ..] ..] ] ...._ C ^ 0 R.N.N.N.N.N.N.N.N.N.N.N.N.N.N.N.N.N.N.N.N.N.N.N.",
"N.N.N.N.N.N.N.N.N.N.N.N.N.N.N.N.N.N.N.N.N.N.N.S.; z I U Y U T T D T P U U I z ; F.N.N.N.N.N.N.N.N.N.N.N.N.N.N.N.N.N.N.N.N.N.N.N.",
"N.N.N.N.N.N.N.N.N.N.N.N.N.N.N.N.N.N.N.N.N.N.N.J.% 1 5 5 s 7 0 z z 0 7 5 s 3 < % L.N.N.N.N.M.N.N.N.N.N.N.N.N.N.N.N.N.N.N.N.N.N.N.",
"N.N.N.N.N.N.N.N.N.N.N.N.N.N.N.N.h.h.N.N.N.N.L.L.3 +.%.*.3.%.3 < < 3 ,.*.2.#.+.1 L.L.N.N.N.N.N.N.N.N.N.N.N.N.N.N.N.N.N.N.N.N.N.N.",
"N.N.N.N.N.N.N.N.N.N.N.N.N.N.N.N.N.N.N.N.N.N.N.E.i %.3.0.1.7.4.4.2.4.4.0.0.2.%.d h.N.N.N.N.N.N.N.N.N.N.N.N.N.N.N.N.N.N.N.N.N.N.N.",
"N.N.N.N.N.N.N.N.N.N.N.N.N.N.N.N.N.N.N.N.N.N.h.E.i *.0.r.w.r.1.0.w.w.r.w.r.5.2.i E.N.N.N.N.N.N.N.N.N.N.N.N.N.N.N.N.N.N.N.N.N.N.N.",
"N.N.N.N.N.N.N.N.N.N.N.N.N.N.N.N.N.N.N.N.N.N.L.E.d *.0.q.r.t.w.r.1.r.r.r.r.0.*.d E.h.N.N.N.N.N.N.N.N.N.N.N.N.N.N.N.N.N.N.N.N.N.N.",
"N.N.N.N.N.N.N.N.N.N.N.N.N.N.N.N.N.N.N.N.N.N.L.E.i %.4.q.6.6.1.6.0.0.0.3.0.3.%.i E.h.N.N.N.N.N.N.N.N.N.N.N.N.N.N.N.N.N.N.N.N.N.N.",
"N.N.N.N.N.N.N.N.N.N.N.N.N.N.N.N.N.N.N.N.N.N.L.h.3 +.%.*.*.*.*.*.*.*.*.*.*.%.+.3 h.N.N.N.N.N.N.N.N.N.N.N.N.N.N.N.N.N.N.N.N.N.N.N.",
"N.N.N.N.N.N.N.N.N.N.N.N.N.N.N.N.N.N.N.N.N.h.L.L.% 3 i d d d 3 3 1 3 i i d i 3 % U.L.N.N.N.N.N.N.N.N.N.N.N.N.N.N.N.N.N.N.N.N.N.N.",
"N.N.N.N.N.N.N.N.N.N.N.N.N.N.N.N.N.N.N.N.N.N.N.N.h.L.E.E.E.J.* ,X,X* L.E.E.E.h.L.L.L.N.N.N.N.h.h.N.N.N.N.N.N.N.N.N.N.N.N.N.N.N.N.",
"N.N.N.N.N.N.N.N.N.N.N.N.N.N.N.N.N.N.N.N.N.N.N.N.L.N.N.N.N.y.; {.|.* y.L.h.L.L.L.h.L.N.N.N.N.h.h.N.N.N.N.N.N.N.N.N.N.N.N.N.N.N.N.",
"N.N.N.N.N.N.N.N.N.N.N.N.N.N.N.N.N.N.N.N.N.N.N.N.N.N.N.N.L.y.0 {.{.; y.G.G.N.N.N.N.N.N.N.N.N.N.N.N.N.N.N.N.N.N.N.N.N.N.N.N.N.N.N.",
"N.N.N.N.N.N.N.N.N.N.N.N.N.N.N.N.N.N.N.N.N.N.N.N.N.N.N.N.j.y.; {.{.; y.N.N.N.N.N.N.N.N.N.N.N.N.N.N.N.N.N.N.N.N.N.N.N.N.N.N.N.N.N.",
"N.N.N.N.N.N.N.N.N.N.N.N.N.N.N.N.N.N.N.N.N.N.N.N.N.L.N.N.L.y.; {.[.; y.H.N.N.N.h.N.N.N.N.N.N.N.N.N.N.N.N.N.N.N.N.N.N.N.N.N.N.N.N.",
"N.N.N.N.N.N.N.N.N.N.N.N.N.N.N.N.N.N.N.N.N.N.N.N.L.L.N.N.H.f.* |. X* S.H.N.N.G.h.N.N.N.N.N.N.N.N.N.N.N.N.N.N.N.N.N.N.N.N.N.N.N.N.",
"N.N.N.N.N.N.N.N.N.N.N.N.N.N.N.N.N.M.N.N.N.N.M.N.N.N.N.M.N.i.@ .X.X* i.h.h.h.N.N.h.h.N.N.N.N.N.N.N.N.N.N.N.N.N.N.N.N.N.N.N.N.N.N.",
"N.N.N.N.N.N.N.N.N.N.N.N.N.N.N.N.M.N.N.N.N.N.N.M.N.N.J.N.L.i.@ * @ @ N.N.h.G.N.N.h.h.N.N.N.N.N.N.N.N.N.N.N.N.N.N.N.N.N.N.N.N.N.N.",
"N.N.N.N.N.N.N.N.N.N.N.N.N.N.N.N.N.N.N.N.J.L.N.N.N.N.N.S.N.N.N.S.y.N.N.N.h.h.h.h.N.N.N.N.N.N.N.N.N.N.N.N.N.N.N.N.N.N.N.N.N.N.N.N.",
"N.N.N.N.N.N.N.N.N.N.N.N.N.N.N.N.N.N.N.L.h.L.N.N.N.N.N.M.N.N.N.N.N.N.N.N.h.h.h.h.N.N.N.N.M.N.N.N.N.N.N.N.N.N.N.N.N.N.N.N.N.N.N.N."
};
