/* XPM */
static char *d4ac22a69fa044e9d8770909a0fcd6dc6SJJMkWw6GcafYrJ[] = {
/* columns rows colors chars-per-pixel */
"64 64 156 2 ",
"   c #756E3A",
".  c #716F3E",
"X  c #726E3E",
"o  c #786C3A",
"O  c #6E6F47",
"+  c #6E6D4E",
"@  c #716D47",
"#  c #726D47",
"$  c #746C47",
"%  c #726C48",
"&  c #706E48",
"*  c #706B4D",
"=  c #726B4E",
"-  c #716C4E",
";  c #6E6D51",
":  c #6E6C53",
">  c #6B6D57",
",  c #6D6D55",
"<  c #6E6C55",
"1  c #6D6C57",
"2  c #6E6C57",
"3  c #6E6B5A",
"4  c #6B6C5A",
"5  c #6D6C5A",
"6  c #6B6B5F",
"7  c #6D6B5C",
"8  c #6E6B5C",
"9  c #6B6C5C",
"0  c #6A6C5E",
"q  c #6B6C5E",
"w  c #706C51",
"e  c #706C53",
"r  c #6B6B61",
"t  c #6A6B63",
"y  c #6B6B63",
"u  c #6A6C61",
"i  c #6B6D62",
"p  c #6B6A65",
"a  c #6A6B65",
"s  c #696B66",
"d  c #6A6B66",
"f  c #676B6A",
"g  c #676B6C",
"h  c #696B68",
"j  c #6A6A68",
"k  c #696B6A",
"l  c #6A6A6A",
"z  c #696A6C",
"x  c #A99729",
"c  c #A8972B",
"v  c #A9972B",
"b  c #AB962B",
"n  c #A8972D",
"m  c #A8972F",
"M  c #A6982D",
"N  c #A6982F",
"B  c #A69730",
"V  c #A69636",
"C  c #A89630",
"Z  c #A89632",
"A  c #A89634",
"S  c #A59832",
"D  c #9F9452",
"F  c #9E9552",
"G  c #9E935B",
"H  c #9D945B",
"J  c #9D935E",
"K  c #A49343",
"L  c #A59444",
"P  c #A49544",
"I  c #A19348",
"U  c #A29449",
"Y  c #A2944B",
"T  c #A49449",
"R  c #A1954D",
"E  c #A1944E",
"W  c #A19352",
"Q  c #CFBE56",
"!  c #CDBD5B",
"~  c #CEBF5A",
"^  c #CBBF5D",
"/  c #C9BF5E",
"(  c #CEBE5C",
")  c #D0BF53",
"_  c #D1BF53",
"`  c #D3BE53",
"'  c #D0BF55",
"]  c #D1BE57",
"[  c #D0BF57",
"{  c #D0BE58",
"}  c #D1BE58",
"|  c #D0BE5C",
" . c #CDBE61",
".. c #CCBF61",
"X. c #CDBE63",
"o. c #CCBF63",
"O. c #C9BF66",
"+. c #CDBD65",
"@. c #CCBE65",
"#. c #CDBF66",
"$. c #C7BF6A",
"%. c #C6BF6F",
"&. c #CABE68",
"*. c #C7BE73",
"=. c #C7BF74",
"-. c #C9BD71",
";. c #C5BD7E",
":. c #CDC151",
">. c #CEC151",
",. c #CCC251",
"<. c #CDC352",
"1. c #CAC257",
"2. c #CCC155",
"3. c #CEC055",
"4. c #CCC157",
"5. c #C7C15F",
"6. c #CAC158",
"7. c #CDC058",
"8. c #CCC05A",
"9. c #CDC05A",
"0. c #CAC15C",
"q. c #C8C05E",
"w. c #C9C15F",
"e. c #CAC05E",
"r. c #CCC05C",
"t. c #D2C054",
"y. c #D1C058",
"u. c #C7C066",
"i. c #C9C061",
"p. c #CDC062",
"a. c #C9C065",
"s. c #C3BD81",
"d. c #FEF28E",
"f. c #FDF48F",
"g. c #F9F391",
"h. c #FBF390",
"j. c #FBF391",
"k. c #FBF192",
"l. c #FBF293",
"z. c #FEF191",
"x. c #FCF290",
"c. c #FCF291",
"v. c #FCF293",
"b. c #F9F490",
"n. c #F8F493",
"m. c #FCF492",
"M. c #FBF297",
"N. c #F4F1AA",
"B. c #F4F1AC",
"V. c #F5F0AE",
"C. c #F1EFBE",
"Z. c #F2F1B0",
"A. c #F2F1B1",
"S. c #F4F0B0",
"D. c #F4F0B1",
"F. c #F1F0BA",
/* pixels */
"k k k k k k k k k k k k k k k k k k k k k k k k k k k k k k k k k k k k k k k k k k k k k k k k k k k k k k k k k k k k k k k k ",
"k k k k k k k k k k k k k k k k k k k k k k k k k k k k k k k k k k k k k k k k k k k k k k k k k k k k k k k k k k k k k k k k ",
"k k k k k k k k k k k k k k k k k k k k k k k k k k k k k k k k k k k k k k k k k k k k k k k k k k k k k k k k k k k k k k k k ",
"k k k k k k k k k k k k k k k k k k k k k k k k k k k k k k k k k k k k k k k k k k k k k k k k k k k k k k k k k k k k k k k k ",
"k k k k k k k k k k k k k k k k k k k k k k k k k k k k k k k k k k k k k k k k k k k k k k k k k k k k k k k k k k k k k k k k ",
"k k k k k k k k k k k k k k k k k k k k k k k k k k k k k k k k k k k k k k k k k k k k k k k k k k k k k k k k k k k k k k k k ",
"k k k k k k k k k k k k k k k k k k k k k k k k k k k k k k k k k k k k k k k k k k k k k k k k k k k k k k k k k k k k k k k k ",
"k k k k k k k k k k k k k k k k k k k k k k k k k k k k k k k k k k k k k k k k k k k k k k k k k k k k k k k k k k k k k k k k ",
"k k k k k k k k k k k k k k k k k k k k k k k k k k k k k k k k k k k k k k k k k k k k k k k k k k k k k k k k k k k k k k k k ",
"k k k k k k k k k k k k k k k k k k k k k k k k k k k k k k k k k k k k k k k k k k k k k k k k k k k k k k k k k k k k k k k k ",
"k k k k k k k k k k k k k k k k k k k k k k k k k k k k k k k k k k k k k k k k k k k k k k k k k k k k k k k k k k k k k k k k ",
"k k k k k k k k k k k k k k k k k k k k k k k k k k k k k k k k k k k k k k k k k k k k k k k k k k k k k k k k k k k k k k k k ",
"k k k k k k k k k k k k k k k k k k k k k k k k k k k k k k k k k k k k k k k k k k k k k k k k k k k k k k k k k k k k k k k k ",
"k k k k k k k k k k k k k k k k k k k k k k k k k k k k k k k k k k k k k k k k k k k k k k k k k k k k k k k k k k k k k k k k ",
"k k k k k k k k k k k k k k k k k k k k k k k k k k k k k k k k k k k k k k k k k k k k k k k k k k k k k k k k k k k k k k k k ",
"k k k k k k k k k k k k k k k k k k k k k k k k k k k k k k k k k k k k k k k k k k k k k k k k k k k k k k k k k k k k k k k k ",
"k k k k k k k k k k k k k k k k k k k k k k k k k k k k k k k k k k k k k k k k k k k k k k f f k k k k k k k k k k k k k k k k ",
"k k k k k k k k k k k k k k k k k k k k k k k k k k k k k k k k k k k k k k k k k k k k k k f f k k k k k k k k k k k k k k k k ",
"k k k k k k k k k k k k k k k k k k k s k k k k k k k k k k k k k k l l l l k k k k k k k k k k k k k k k k k k k k k k k k k k ",
"k k k k k k k k k k k k k k k k k k s k k k k k k k k k k k k k k k l l l l k k k k k k k k k k k k k k k k k k k k k k k k k k ",
"k k k k k k k k k k k k k k k k k k k k k k k k k k k k k k k k k k k k k k z z k k k k f f k s k k k k k k k k k k k k k k k k ",
"k k k k k k k k k k k k k k k k k k k k k k k k k k f k k k k k k k k k k k z z k k k k f k s k k k k k k k k k k k k k k k k k ",
"k k k k k k k k k k k k k k k k k k k k k k z z z z k k k k k k k k k k k k k k k k k k k k k k k k k k k k k k k k k k k k k k ",
"k k k k k k k k k k k k k k k k l k k k k k k k z k s r 6 7 > , 1 > 4 6 r s k k k k k k k k k k k k k k k k k k k k k k k k k k ",
"k k k k k k k k k k k k k k k k k k k s k k k k k p 3 e & . A.B.N.Z.C.O > 0 s s k k k k k k k k k k k k k k k k k k k k k k k k ",
"k k k k k k k k k k k k k k k k k k s k k k s s p 3 $ J ;.=.u.w.w.O.%.V.C.+ 0 s s k k k k k k k k k k k k k k k k k k k k k k k ",
"k k k k k k k k k k k k k k k k k k k k k k k s 3 @ E +. .V Z m n Z Z  .$.D.+ i s f k k k k k k k k k k k k k k k k k k k k k k ",
"k k k k k k k k k k k k k k k k k k k k k k k r * G +.] v _ ] y.Q { ] m 9.$.F.4 r k k k k k k k k k k k k k k k k k k k k k k k ",
"k k k k k k k k k k k k k k k k k k k k k k k 3   -. .m t.3.d.h.h.c.w.3.m  .B.O 6 k k k k k k k k k k k k k k k k k k k k k k k ",
"k k k k k k k k k k k k k k k k k k k k k k k 1 F +.c.9.Q M 0.5.i.w.f.! ] Z %.C.3 k k k k k k k k k k k k k k k k k k k k k k k ",
"k k k k k k k k k k k k k k k k k k k k k k k ; I ! c.w.t.c 3.1.1.0.b.w.] m a.B.1 k k k k k k k k k k k k k k k k k k k k k k k ",
"k k k k k k k k k k k k k k k k k k k k k k k ; P Q m.w.Q c ,.,.,.1.b.w.] m i.B.1 k k k k k k k k k k k k k k k k k k k k k k k ",
"k k k k k k k k k k k k k k k k k k k k k k k e P Q h.w.] x ,.,.,.1.n...Q M i.B., k k s k k k k k k k k k k k k k k k k k k k k ",
"k k k k k k k k k k k k k k k k k k k k k k k e U ( l.w.Q x t.,.,.3.f.w.! B a.D., k s k k k k k k k k k k k k k k k k k k k k k ",
"k k k k k k k k k k k k k k k k k k k k f f k 3 W +.l.i.t.m _ _ t.Q f.0.{ V *.. 6 k k k k k k k k k k k k k k k k k k k k k k k ",
"k k k k k k k k k k k k k k k k k k k k f f k 3 o R a.d.! m Z M m B 0.9.m  .s.+ r k k k k k k k k k k k k k k k k k k k k k k k ",
"k k k k k k k k k k k k k k k k k s k s k k k 7 * G +.9.d.w...i...^ w.S t.O.& i s k k k k k z z k k k k k k k k k k k k k k k k ",
"k k k k k k k k k k k k k k k k s k s k k k k s 7 @ R +.O.M.h.l.c.c.c. .+.F 1 k k k k k k k z z k k k k k k k k k k k k k k k k ",
"k k k k k k k k k k k k k k k k k k k k k k k k i 8 $ G E +.| { { (  .-.J % 7 k k k k k k s k k k k k k k k k k k k k k k k k k ",
"k k k k k k k k k k k k k k k k k k k k k k k k k a 8 - o W T L K Y F   - 3 s k k k k k s k k k k k k k k k k k k k k k k k k k ",
"k k k k k k k k k k k k k k k k k k k k k k g g k k p r 3 1 w w w ; 1 3 r s s k z z k k k k k k k k k k k k k k k k k k k k k k ",
"k k k k k k k k k k k k k k k k k k k k k k g g k k k k f f k k f f k k k k k k z z k k k k k k k k k k k k k k k k k k k k k k ",
"k k k k k k k k k k k k k k k k k k k k k k k k l l k k k k k k f g f f k k k k f f k k k k k k k k k k k k k k k k k k k k k k ",
"k k k k k k k k k k k k k k k k k k k k k k k k l l k k k k s k f g f f k k k k f k k k k k k k k k k k k k k k k k k k k k k k ",
"k k k k k k k k k k k k k k k k k k k k k k k k k k k k k k k k k k k k k k k k k k k k k s k k k k k k k k k k k k k k k k k k ",
"k k k k k k k k k k k k k k k k k k l k k k k k k k k k k k k k k k k k k k k k k k k k s k k k k k k k k k k k k k k k k k k k ",
"k k k k k k k k k k k k k k k k z z k k k k k k k k k k k k f f k k k k f f f f z z k k k k k k k k k k k k k k k k k k k k k k ",
"k k k k k k k k k k k k k k k k z z k k k k k k k k k k k k f f k k k k f f f f z z k k k k k k k k k k k k k k k k k k k k k k ",
"k k k k k k k k k k k k k k k k k k k k k k k k k k k k k k k k k k k k k k k k k k k k k k k k k k k k k k k k k k k k k k k k ",
"k k k k k k k k k k k k k k k k k k k k k k k k k k k k k k k k k k k k k k k k k k k k k k k k k k k k k k k k k k k k k k k k ",
"k k k k k k k k k k k k k k k k k k k k k k k k k k k k k k k k k k k k k k k k k k k k k k k k k k k k k k k k k k k k k k k k ",
"k k k k k k k k k k k k k k k k k k k k k k k k k k k k k k k k k k k k k k k k k k k k k k k k k k k k k k k k k k k k k k k k ",
"k k k k k k k k k k k k k k k k k k k k k k k k k k k k k k k k k k k k k k k k k k k k k k k k k k k k k k k k k k k k k k k k ",
"k k k k k k k k k k k k k k k k k k k k k k k k k k k k k k k k k k k k k k k k k k k k k k k k k k k k k k k k k k k k k k k k ",
"k k k k k k k k k k k k k k k k k k k k k k k k k k k k k k k k k k k k k k k k k k k k k k k k k k k k k k k k k k k k k k k k ",
"k k k k k k k k k k k k k k k k k k k k k k k k k k k k k k k k k k k k k k k k k k k k k k k k k k k k k k k k k k k k k k k k ",
"k k k k k k k k k k k k k k k k k k k k k k k k k k k k k k k k k k k k k k k k k k k k k k k k k k k k k k k k k k k k k k k k ",
"k k k k k k k k k k k k k k k k k k k k k k k k k k k k k k k k k k k k k k k k k k k k k k k k k k k k k k k k k k k k k k k k ",
"k k k k k k k k k k k k k k k k k k k k k k k k k k k k k k k k k k k k k k k k k k k k k k k k k k k k k k k k k k k k k k k k ",
"k k k k k k k k k k k k k k k k k k k k k k k k k k k k k k k k k k k k k k k k k k k k k k k k k k k k k k k k k k k k k k k k ",
"k k k k k k k k k k k k k k k k k k k k k k k k k k k k k k k k k k k k k k k k k k k k k k k k k k k k k k k k k k k k k k k k ",
"k k k k k k k k k k k k k k k k k k k k k k k k k k k k k k k k k k k k k k k k k k k k k k k k k k k k k k k k k k k k k k k k ",
"k k k k k k k k k k k k k k k k k k k k k k k k k k k k k k k k k k k k k k k k k k k k k k k k k k k k k k k k k k k k k k k k ",
"k k k k k k k k k k k k k k k k k k k k k k k k k k k k k k k k k k k k k k k k k k k k k k k k k k k k k k k k k k k k k k k k "
};
