/* XPM */
static char *_ac9955e1a56475fdf03dfe734aaf839Y2ZaZtIRX0Yy6qzR[] = {
/* columns rows colors chars-per-pixel */
"64 64 143 2 ",
"   c #7C6637",
".  c #716F3F",
"X  c #796B3E",
"o  c #7B6A3E",
"O  c #6D6E4C",
"+  c #6D6E4F",
"@  c #766645",
"#  c #7C6440",
"$  c #7B6444",
"%  c #786A43",
"&  c #7C6843",
"*  c #736A4B",
"=  c #796948",
"-  c #6E6D51",
";  c #6E6C53",
":  c #6D6D55",
">  c #6E6C57",
",  c #6B6D58",
"<  c #6B6C5A",
"1  c #6D6C5A",
"2  c #6E6B5C",
"3  c #6D6B5F",
"4  c #6E6A5E",
"5  c #6E6A5F",
"6  c #6B6C5C",
"7  c #6A6C5F",
"8  c #776757",
"9  c #7F6451",
"0  c #786755",
"q  c #716B51",
"w  c #726B51",
"e  c #716952",
"r  c #776851",
"t  c #736B54",
"y  c #716A57",
"u  c #756855",
"i  c #746957",
"p  c #726958",
"a  c #74685A",
"s  c #72685E",
"d  c #706A5E",
"f  c #74685C",
"g  c #6B6B63",
"h  c #6D6A61",
"j  c #6E6963",
"k  c #6D6A63",
"l  c #6A6C61",
"z  c #6B6D62",
"x  c #6B6A65",
"c  c #6A6B65",
"v  c #696967",
"b  c #696B66",
"n  c #6B6A66",
"m  c #6A6B66",
"M  c #6D6A65",
"N  c #666A69",
"B  c #676B6A",
"V  c #696B68",
"C  c #686A69",
"Z  c #6A6A68",
"A  c #6B6A68",
"S  c #696B6A",
"D  c #6A6A6A",
"F  c #6A6C6B",
"G  c #696A6C",
"H  c #706961",
"J  c #706963",
"K  c #8B660B",
"L  c #8A6517",
"P  c #90611D",
"I  c #915F22",
"U  c #905D2E",
"Y  c #826625",
"T  c #80662D",
"R  c #80652E",
"E  c #8A612D",
"W  c #876039",
"Q  c #83613E",
"!  c #84603E",
"~  c #845F42",
"^  c #AD952B",
"/  c #AC932F",
"(  c #AD942D",
")  c #AF942D",
"_  c #B3912D",
"`  c #B0932D",
"'  c #B2922D",
"]  c #B0932F",
"[  c #B3932E",
"{  c #B2922F",
"}  c #B58E33",
"|  c #B48F34",
" . c #B68F34",
".. c #B48F37",
"X. c #B68E36",
"o. c #B78D39",
"O. c #B78D3B",
"+. c #B08F3E",
"@. c #B38E3E",
"#. c #AF9332",
"$. c #AC9430",
"%. c #AC9337",
"&. c #A7963E",
"*. c #AF9139",
"=. c #B09230",
"-. c #B49230",
";. c #B49133",
":. c #B09039",
">. c #B29039",
",. c #AF8E41",
"<. c #AC8F4B",
"1. c #B48C47",
"2. c #AB9043",
"3. c #AB9146",
"4. c #AB9147",
"5. c #A59349",
"6. c #A9904D",
"7. c #AB8F50",
"8. c #AB8D59",
"9. c #B38A52",
"0. c #A69054",
"q. c #A4905B",
"w. c #CDBF5E",
"e. c #D0BF53",
"r. c #D5BD53",
"t. c #D7BC55",
"y. c #D8BB57",
"u. c #D0BE5A",
"i. c #D1BB68",
"p. c #C7BE71",
"a. c #C7BE73",
"s. c #C3BF76",
"d. c #C7BB7F",
"f. c #D1C054",
"g. c #C6C06C",
"h. c #C0BD8A",
"j. c #FFEF95",
"k. c #F8EFAA",
"l. c #F8F0A8",
"z. c #F7EDBC",
"x. c #F2F0B7",
"c. c #EEEECA",
"v. c #F1EEC1",
/* pixels */
"S S S S S S S S S S S S S S S S S S S S S S S S S S S S S S S S S S S S S S S S S S S S S S S S S S S S S S S S S S S S S S S S ",
"S S S S S S S S S S S S S S S S S S S S S S S S S S S S S S S S S S S S S S S S S S S S S S S S S S S S S S S S S S S S S S S S ",
"S S S S S S S S S S S S S S S S S S S S S S S S S S S S S S S S S S S S S S S S S S S S S S S S S S S S S S S S S S S S S S S S ",
"S S S S S S S S S S S S S S S S S S S S S S S S S S S S S S S S S S S S S S S S S S S S S S S S S S S S S S S S S S S S S S S S ",
"S S S S S S S S S S S S S S S S S S S S S S S S S S S S S S S S S S S S S S S S S S S S S S S S S S S S S S S S S S S S S S S S ",
"S S S S S S S S S S S S S S S S S S S S S S S S S S S S S S S S S S S S S S S S S S S S S S S S S S S S S S S S S S S S S S S S ",
"S S S S S S S S S S S S S S S S S S S S S S S S S S S S S S S S S S S S S S S S S S S S S S S S S S S S S S S S S S S S S S S S ",
"S S S S S S S S S S S S S S S S S S S S S S S S S S S S S S S S S S S S S S S S S S S S S S S S S S S S S S S S S S S S S S S S ",
"S S S S S S S S S S S S S S S S S S S S S S S S S S S S S S S S S S S S S S S S S S S S S S S S S S S S S S S S S S S S S S S S ",
"S S S S S S S S S S S S S S S S S S S S S S S S S S S S S S S S S S S S S S S S S S S S S S S S S S S S S S S S S S S S S S S S ",
"S S S S S S S S S S S S S S S S S S S S S S S S S S S S S S S S S S S S S S S S S S S S S S S S S S S S S S S S S S S S S S S S ",
"S S S S S S S S S S S S S S S S S S S S S S S S S S S S S S S S S S S S S S S S S S S S S S S S S S S S S S S S S S S S S S S S ",
"S S S S S S S S S S S S S S S S S S S S S S S S S S S S S S S S S S S S S S S S S S S S S S S S S S S S S S S S S S S S S S S S ",
"S S S S S S S S S S S S S S S S S S S S S S S S S S S S S S S S S S S S S S S S S S S S S S S S S S S S S S S S S S S S S S S S ",
"S S S S S S S S S S S S S S S S S S S S S S S S S S S S S S S S S S S S S S S S S S S S S S S S S S S S S S S S S S S S S S S S ",
"S S S S S S S S S S S S S S S S S S S S S S S S S S S S S S S S S S S S S S S S S S S S S S S S S S S S S S S S S S S S S S S S ",
"S S S S S S S S S S S S S S S S S S S S S S S S S S G G S S S S S S S S S S N S S S S S S S S S S S S S S S S S S S S S S S S S ",
"S S S S S S S S S S S S S S S S S S S S S S S S S S G G S S S S S S S S S S N S S S S S S S S S S S S S S S S S S S S S S S S S ",
"S S S S S S S S S S S S S S S S S S S D S S S S G G S S S S S S S S S S S S S S S S S D S S S S S S S S S S S S S S S S S S S S ",
"S S S S S S S S S S S S S S S S S S S S S S S S G S S S S S S S S S S S S S S S S S S S S S S S S S S S S S S S S S S S S S S S ",
"S S S S S S S S S S S S S S S S S S S S S S S S S S S S S S S S S S S S S S S S S S S S S S S S S S S S S S S S S S S S S S S S ",
"S S S S S S S S S S S S S S S S S S S S S S S S S S S S S S S S S S S S S S S S S S S S S S S S S S S S S S S S S S S S S S S S ",
"S S S S S S S S S S S S S S S S S S S S S S S S S S m S S S S S S S S S S S D D S S S S S S S S S S S S S S S S S S S S S S S S ",
"S S S S S S S S S S S S S S S S S S S S S S S S S S S S M h 4 1 7 7 m m S S D D S S S S S S S S S S S S S S S S S S S S S S S S ",
"S S S S S S S S S S S S S S S S S S S S S S S m S S S m J i % z.z.O , z m S S S S S S S S S S S S S S S S S S S S S S S S S S S ",
"S S S S S S S S S S S S S S S S S S S S S S m S S S S M a @ 0.5.k.x.c.< m S S S S S S S S S S S S S S S S S S S S S S S S S S S ",
"S S S S S S S S S S S S S S S S N S S S S S S S S S S h r   2.%.&.s.h.+ z S S S S S S S S S S S S S S S S S S S S S S S S S S S ",
"S S S S S S S S S S S S S S S S N S S S S S S S S S S d & 6.*.] $.j.l.. < N S S S S S S S S S S S S S S S S S S S S S S S S S S ",
"S S S S S S S S S S S S S S S S S S S S S S S S S S S y T >.#.t.( / w.s.: S S S S S S S S S N S S S S S S S S S S S S S S S S S ",
"S S S S S S S S S S S S S S S S S S S S S S S S S S S t <.;.( r._ { e.g.- S S S S S S S S G B N S S S S S S S S S S S S S S S S ",
"S S S S S S S S S S S S S S S S S S S S S S S S S S S e 4.-.( r._ { e.g.- G S S S S S S G G S S S S S S S S S S S S S S S S S S ",
"S S S S S S S S S S S S S S S S S S N G S S S S S S S e 4.{ ( r.{ ( e.g.- G S S S S S S G G S S S S S S S S S S S S S S S S S S ",
"S S S S S S S S S S S S S S S S G S S S S S S S S S S w 3.{ ^ r._ ` f.g.- S F S S S S S S S S S S S S S S S S S S S S S S S S S ",
"S S S S S S S S S S S S S S S S G S S S S S S S S S S e 3.-.) y._ ] u.p.- S S S S S S S S S S S S S S S S S S S S S S S S S S S ",
"S S S S S S S S S S S S S S S S S S S S S S S S S S S e <.} | K ;.>.i.d.> S S S G G S S S S S S S S S S S S S S S S S S S S S S ",
"S S S S S S S S S S S S S S S S S S m S D S S S S S S y T @.O.| O.L Y o 4 S S S G G S S S S S S S S S S S S S S S S S S S S S S ",
"S S S S S S S S S S S S S S S S S S S S S S S S S S S 1 X <.:.| O.1.8.= 4 S S S S S S S S S N S S S S S S S S S S S S S S S S S ",
"S S S S S S S S S S S S S S S S S S S S S S S S S S S h * q.,.O.P E o 8 h S S S S S S S S G B N S S S S S S S S S S S S S S S S ",
"S S S S S S S S S S S S S S S S S S S S S S S S S S N M y $ 9.I U ! 8 m m S S S S S S S S S S S S S S S S S S S S S S S S S S S ",
"S S S S S S S S S S S S S S S S S S S S S S S S S S S c J 0 Q W ~ 9 J N S S S S S S S S S S S S S S S S S S S S S S S S S S S S ",
"S S S S S S S S S S S S S S S S S S S S S S S S S S S m M J s s s H A S S S S S S S S S S S S S S S S S S S S S S S S S S S S S ",
"S S S S S S S S S S S S S S S S S S S S S S S S S S m S G N G G C C S S S S S S S N S S S S S S S S S S S S S S S S S S S S S S ",
"S S S S S S S S S S S S S S S S S N S S S S S S S S S S S m S S S S S S S S S S S S S S S G S S S S S S S S S S S S S S S S S S ",
"S S S S S S S S S S S S S S S S N S S S S S S S S S S S m S S S S S S S S S S S S S S S S S S S S S S S S S S S S S S S S S S S ",
"S S S S S S S S S S S S S S S S S S S S S S S S S S S S S S S S S S D D G S S S S S S S S S S S S S S S S S S S S S S S S S S S ",
"S S S S S S S S S S S S S S S S S S S S S S S S S S S S S S S S S S D C S S S S S S S S S S S S S S S S S S S S S S S S S S S S ",
"S S S S S S S S S S S S S S S S S S S S S S S S S S S S S S S S C A G S S S S S S S S S m N S S S S S S S S S S S S S S S S S S ",
"S S S S S S S S S S S S S S S S S S S S S S S S S S S S S S S S A G S S S S S S S S S S S m S S S S S S S S S S S S S S S S S S ",
"S S S S S S S S S S S S S S S S S S S S S S S S S S S S S S S S S S S S S S S S S S S S S S S S S S S S S S S S S S S S S S S S ",
"S S S S S S S S S S S S S S S S S S S S S S S S S S S S S S S S S S S S S S S S S S S S S S S S S S S S S S S S S S S S S S S S ",
"S S S S S S S S S S S S S S S S S S S S S S S S S S S S S S S S S S S S S S S S S S S S S S S S S S S S S S S S S S S S S S S S ",
"S S S S S S S S S S S S S S S S S S S S S S S S S S S S S S S S S S S S S S S S S S S S S S S S S S S S S S S S S S S S S S S S ",
"S S S S S S S S S S S S S S S S S S S S S S S S S S S S S S S S S S S S S S S S S S S S S S S S S S S S S S S S S S S S S S S S ",
"S S S S S S S S S S S S S S S S S S S S S S S S S S S S S S S S S S S S S S S S S S S S S S S S S S S S S S S S S S S S S S S S ",
"S S S S S S S S S S S S S S S S S S S S S S S S S S S S S S S S S S S S S S S S S S S S S S S S S S S S S S S S S S S S S S S S ",
"S S S S S S S S S S S S S S S S S S S S S S S S S S S S S S S S S S S S S S S S S S S S S S S S S S S S S S S S S S S S S S S S ",
"S S S S S S S S S S S S S S S S S S S S S S S S S S S S S S S S S S S S S S S S S S S S S S S S S S S S S S S S S S S S S S S S ",
"S S S S S S S S S S S S S S S S S S S S S S S S S S S S S S S S S S S S S S S S S S S S S S S S S S S S S S S S S S S S S S S S ",
"S S S S S S S S S S S S S S S S S S S S S S S S S S S S S S S S S S S S S S S S S S S S S S S S S S S S S S S S S S S S S S S S ",
"S S S S S S S S S S S S S S S S S S S S S S S S S S S S S S S S S S S S S S S S S S S S S S S S S S S S S S S S S S S S S S S S ",
"S S S S S S S S S S S S S S S S S S S S S S S S S S S S S S S S S S S S S S S S S S S S S S S S S S S S S S S S S S S S S S S S ",
"S S S S S S S S S S S S S S S S S S S S S S S S S S S S S S S S S S S S S S S S S S S S S S S S S S S S S S S S S S S S S S S S ",
"S S S S S S S S S S S S S S S S S S S S S S S S S S S S S S S S S S S S S S S S S S S S S S S S S S S S S S S S S S S S S S S S ",
"S S S S S S S S S S S S S S S S S S S S S S S S S S S S S S S S S S S S S S S S S S S S S S S S S S S S S S S S S S S S S S S S "
};
