/* XPM */
static char *ENEMY61675895475[] = {
/* columns rows colors chars-per-pixel */
"64 64 83 1 ",
"  c #010000",
". c #0B0000",
"X c #130000",
"o c #1B0000",
"O c #230000",
"+ c #2D0000",
"@ c #2C1E1E",
"# c #222222",
"$ c #5E2D2E",
"% c #583030",
"& c #6D2727",
"* c #6C2729",
"= c #632B2B",
"- c #6C2829",
"; c #732525",
": c #773737",
"> c #7D3435",
", c #753837",
"< c #773738",
"1 c #7D3538",
"2 c #743838",
"3 c #783838",
"4 c #7D4545",
"5 c #7B4648",
"6 c #75494A",
"7 c #6B4E50",
"8 c #676B6A",
"9 c #696B6A",
"0 c #736666",
"q c #716768",
"w c #872F2E",
"e c #8C2E2E",
"r c #88302F",
"t c #8A2F31",
"y c #843132",
"u c #953A3E",
"i c #98393D",
"p c #A33E3D",
"a c #8E3D42",
"s c #933B41",
"d c #9F3F40",
"f c #844244",
"g c #894245",
"h c #8F4748",
"j c #844B4A",
"k c #894949",
"l c #934444",
"z c #9A4140",
"x c #A04041",
"c c #977375",
"v c #9B7275",
"b c #947678",
"n c #987478",
"m c #AC6B6F",
"M c #BD6367",
"N c #B6676C",
"B c #BB656A",
"V c #B1696E",
"C c #A56E72",
"Z c #AA6C71",
"A c #A27073",
"S c #C26266",
"D c #C96067",
"F c #C26168",
"G c #AC9E9E",
"H c #FFBFC6",
"J c #DDD7D7",
"K c #DBD9D7",
"L c #DDD7D9",
"P c #D7D9D8",
"I c #D9D9D9",
"U c #EECECF",
"Y c #FFC4C7",
"T c #FFC5CA",
"R c #F4CDCE",
"E c #FCCACC",
"W c #EDD1CE",
"Q c #EFCFD1",
"! c #F3CED0",
"~ c #F8CBD0",
"^ c #E3D5D5",
"/ c #EBD1D3",
"( c #E1D7D8",
/* pixels */
"9999999999999999999999999999999999999999999999999999999999999999",
"9999999999999999999999999999999999999989999999999999999999999999",
"9999999999999999999999999999999999999989999999999999999999899999",
"9999999999999999999999999999999999999999999999999999999999999999",
"9999999999999999999999999999999999999999999999999999999999999999",
"9999999989999999999999999999999999999999999999999999999999999999",
"9999999999999999999999999999999999999999998999999999999999999999",
"9999999999999999999999999999999999999999998999999999999999999999",
"9999999999999999999999999999999999999899999999999999999999999999",
"99999999999999999999999999q     ..   899999999999999999999999999",
"999999989999999999999989  ..LII(!n(L    889999999999999999999999",
"9999999999999999999999  .^n/(II^~A(LIII   9999999999999999999999",
"99999999999999999999   L^!v~^PI^~A^IIIIII   88999999999999998999",
"9999999999999999999 ./^/EC6!^IJ/TZ!^LIIIL(^..q999999999999999999",
"999999999999999999 .CTETBs~JKJ^EBDNT^IIL^!~~X.999989999999999999",
"99999999999999999  /ZNVNDB/II^!CsssV/II^~CZAvX.99999999999999999",
"9999999999989999  I^5gfguN/KI^mfRRTC/II/NMff56  8999999999999999",
"999999999999999  II(!~RTYC^II/5T/^~v^II/BiYEE!^  999999999999999",
"99999988999999  IIIL^^^/~c^IPJ^^L^/7LIP^ZE/^^^LI  99999999999999",
"99999988999999  IIIIKJJ/ooXX..^JII^^JIP^A~(KPKII  99999999999999",
"9999998899998  IIIIIK^XO>y>1>2o.JIJJIII^b!(IIIIII  9999999999999",
"9989998899998  IKIIJ^Xjlteteey-%.^JIIIIJ^^JKIIIII  9999999999999",
"999999999988  IIIII^Ohleeeeeety*$X^PIIIIJJIIIIIIII  999999999999",
"999999999989..IIII^Xhzeewyeeeetw-=.LIIIIIILIIIIIII  999999999999",
"999999999990ob^II(ojlryy,3>yteeey-%XLIIIIIIIJKIIKK   99999999999",
"999999999990OA!^L^Olry3OooO,yeeety=X^PPIIJ^/W/^^^^(  99999999999",
"999899999990OmVT/Xlzy,o....X3yeeer-$.IIII^ENBBTEER/X.89999999999",
"999899999990o4gV!ozpyO.    .O>eeer;=.IIKL!ZguuVmmCnX.89899999999",
"999999999999.UTmA+pp>oG#   .o<rter;$.II^!A6EQR5ff46..88899999999",
"999999999999 ^Q66+pp>o@#   .o<yeer;=.II^!v/^J^REERW. 88899999999",
"999999998889 K^^^ozpyO.    .O>reee;=.IPK(^JJKK(^^(K  98899999999",
"999999998889 IPPIXhxy,X....X<yeeer-$.IPPIIIIIKIKKII  98899999989",
"999999999999 IIIP/Olry<OooO3yeeeey=X^IIIIIIIKIIIIII  99999999999",
"999999999999  IIKJojzey>3,yrreery-%X^^LIIIIIIPIIIL   99999999999",
"999999999999  IIIK^okztetyreeery&$X^R!^IIIKKIIIIII   99999999999",
"9999999999999 IIIII^Olzeeeeeery-=XJ^AAE//!W//JIIII  999999999999",
"9999999999999  IIII^QOkleeeeer=%.(J^6fMSFFFNC!^II  9999999999999",
"99999999999999 LIIIJcEoO<>>>>,OX(II^RYsiiiiuNT^II  9999999999999",
"99999999999999  III^4m/^.XXXXXQ/(KI^/RQQQUQEgZ^I  99999999999999",
"999999999999999 III/Tm!^^JIPI(bQ^I(^Rc(KIIP/TZ/I 999999999999999",
"999999999999999  II^EV~~W^(II(vR^K^Rm4^IIII^EA^  999999999999999",
"9999999999999999  I^~VVZv/(IK^AYR!~CfE/IIIK^~n. 9999999999999999",
"99999999999999998  ^EgNg6WKKK^kMFMHZ!^LIIIIK(. 99999999999999999",
"999999999999999988 .RZVTW((KK^TauiFV/IIIIIII  999999999999999999",
"9999999999999999999 Xv6R((KKK(((QEaVQIIIIII  9899999899999999999",
"8999999999999999999q.XX^KIIIIKKIP/TV^IIII   99889999999999999999",
"999999999999999999999q . IIIIIIII/VgQII   9999999999999899989999",
"999999999999999999999999    IIIII^CT.   999999999999999999999999",
"999999999999989999999999999       .. 999999999989999999999999999",
"9999999999999999999999999999999999999999999999999999999999999999",
"9999999999999999999999999999999999999999999999999999999999999999",
"9999999999999999999999999899999999999999999999999999999999999999",
"9999999999999999999999999999999999999999999999999999999999999999",
"9999999999999999999999999999999999999998999999999999999999999999",
"9999999999999999999999999999999999999999999999999999999999999999",
"9999999999999999999999999999999999999999999999999999999999999999",
"9999999999999999999999999999999999999999999999999999999999999999",
"9999999999999999999999999999999999999999999999999999999999999999",
"9999999999999999999999999999999999999999999999999999999999999999",
"9999999999999999999999999999999999999999999999999999999999999999",
"9999999999999999999999999999999999999999999999999999999999999998",
"9999999999999999999999999999999999999999999999999999999999999999",
"9999999999999999999999999999999999999999999999999899999999999999",
"9999999999999989999999999999999999999999999999999999999999999999"
};
