/* XPM */
static char *ENEMY41675895475[] = {
/* columns rows colors chars-per-pixel */
"64 64 83 1 ",
"  c #010000",
". c #0B0000",
"X c #130000",
"o c #1A0000",
"O c #230000",
"+ c #2A1E20",
"@ c #222223",
"# c #5E2E2E",
"$ c #5A2F30",
"% c #583030",
"& c #6D2727",
"* c #632B2D",
"= c #6B2829",
"- c #722527",
"; c #6D3B3C",
": c #7C3535",
"> c #753738",
", c #733839",
"< c #6E4C4C",
"1 c #7F4446",
"2 c #7B4649",
"3 c #75494B",
"4 c #686A67",
"5 c #676B6A",
"6 c #696B6A",
"7 c #726666",
"8 c #706768",
"9 c #716869",
"0 c #8D2D2E",
"q c #912C2B",
"w c #86302F",
"e c #88302F",
"r c #852F30",
"t c #882F31",
"y c #853131",
"u c #8F3D3F",
"i c #9C373D",
"p c #923C3F",
"a c #98393D",
"s c #A0353D",
"d c #A13F3E",
"f c #9F403E",
"g c #8C3E42",
"h c #953C40",
"j c #844244",
"k c #8C4444",
"l c #8C4847",
"z c #804549",
"x c #864A4A",
"c c #894949",
"v c #934544",
"b c #9C4140",
"n c #9C7275",
"m c #957578",
"M c #987478",
"N c #A66E6F",
"B c #AC6B6F",
"V c #B5676D",
"C c #BB656A",
"Z c #B2696D",
"A c #A46E73",
"S c #A96D71",
"D c #A17074",
"F c #CE5C64",
"G c #C36165",
"H c #C26168",
"J c #AA9E9E",
"K c #DDD7D7",
"L c #DBD8D7",
"P c #DCD7D9",
"I c #D9D9D9",
"U c #FFC3C7",
"Y c #FFC6CA",
"T c #F5CDCE",
"R c #FCCACC",
"E c #ECD0CF",
"W c #EFCFD1",
"Q c #F3CED0",
"! c #F8CBD0",
"~ c #E4D4D5",
"^ c #EBD1D3",
"/ c #E0D7D8",
"( c #F2D0D1",
/* pixels */
"6666666666666666666666666666666666666666666666666666666666666666",
"6666666666666666666666666666666666666666666666666666666666666666",
"6666666666666566666666666666666666666666666666666666666666666666",
"6666666666666666666666666666696666666666664466666666666666666666",
"6666666666666666666666666666666666666666666666666666666666665666",
"6666666666666666666666566666666666666666666666666666666666666666",
"6666666666666666666666666666666666666666666666556666666666666666",
"6666666666666666666666666666666669666666666666666666666666666666",
"666666666666666666666666666     ..   666556666666665666666666666",
"666666666666666666666666  ..LILK^M/I    666666666666666666666666",
"6656666666666666666666   /MQ/LI~!M/PIII   6666666666666666666666",
"66666666666666666666   L~WAQ~II~!A^/PIIII   66666666666666666666",
"6666666666665666666 .~L~!S3W/II^YVQ~PPPIIII  6666666666666666566",
"666666666666666666 .nYQ!Ch!~KK~TVVSQPPPP/^W^X.666666666666666666",
"66666666666666666  ^VGHFFCQPI~RBgggS~II~!ZVHVO.66666666666666666",
"6666666666666666  I^kaaisVWII^Nk!YYSWII~VFhhg3. 6666666666666666",
"666655666666666  IIKEE(TYS~II/<(~EYA~II^ZgT^E~L  665665566666655",
"66665566666686  IIIIIII~RD^~~~^~K~W<KII^BY^IIIII  65665566666655",
"66665666666666  IIIIIII~oOooXX~LIKK~KLI~AT~IIIII  66666666666666",
"6666666666666  IIIIIPKXo,>>>>;X.~IIIIPI~MQ~IIIIII  6666666666666",
"6666666566666  IIIIK~olvyyyyyy=#X~IIIIII~~IIIIIII  6666655666655",
"666665666666  IIIIK~ocdqq0000ey&#.~KIIIIIIIIIIIIII  666655666655",
"666666566666X./IIP~olbq0000000tt=*XKKIIIIIIILIIIII  666666666666",
"666666666669Xm~/I~oxf0yyy::y00t0y=%.PIIIIIK/~KLIII   66666666666",
"666666666659oD(~P^Ov0r;oXXo,y0qq0y=o~IIIPP~WQQ~LIII  66666666666",
"666665666667ODDQ~Xvby:o.  .o>w0eqy=%.IIIP~!ASATTQ^~. 66666666666",
"666666666669X3jBQObb:OX.   .O:y0t0-#.III~QSkjkCCGCSX 65666666666",
"666666666444.TRBDObd>oJ@   .o>y00e-*.IIKWnzYRYuaau1o.66666666666",
"666666666666.~(3<Obd>o@@   .o>y00t-*.IIK^m^^~~^^E^~. 66666665666",
"666666666666 /~E~Obd:O.    .O:t00t-*.IIK~~/ILILIIII  56666666666",
"666666666466 IL/~Xvdw:o.  .o:y000y=$.IIIPPPILIIIIII  66666666666",
"666666666666 IIII~Ovee,oXXo,y0000y*X~IIIIIIIIIIIIII  66666666666",
"666666666666  IPI~oxbqyy::yy0000y=%.KIIIIIIIIIIIII   66666666666",
"666666666666  IIIK~olbtq000000ew&#X~^^~~~~~~KLIIPI   66666666666",
"6666666666666 IIIIK~ocbqqt0000y=#XK^BCYYRRTTW~KIII  666666666666",
"6666666666666  IIII~QOvvyyyyw:=#XKI^jhZSBBBnAQ~II  6666666666666",
"66666666666668 IIII~SYoo,>,>>;X.PII~WT2jj1jfZU~II  6666666666666",
"66666666666666  IIL~jS~~XooooX^KPIIP~WTRRRTUkB^I  66666666666666",
"666666666666666 LII^!S~LK~~KK~nT/II~RN^~~~~(YA~I 666666666666666",
"666666666666666  II/YA!^~~III~NRW~~TNj~IIII~Tn~  666665666665666",
"6666666666666666  I~TVCCN(~LL~BYY!!D3W~IIIIKWm. 6666666666666666",
"66666666666666666  ~TgFax(KLI~1ZSVUVT~IIIIIK~X 66666666666666666",
"666666666666666666 .TBBY(/LII~(21kHC(KIIIIII  666666666666665666",
"6666666666666666666.oD3T/IIIIK~ETYiC^IIIIII  6666666666666666666",
"66666666666666666664...~LIIIIILL~TUZ^IIII   66666666666666666665",
"6666666666666666666566   IIIIIIII~Sz~PI   6666666666666666666566",
"666666666666666666566666    IIIII~MQ.   666666666666666666666656",
"666666666666666666666666666       .. 666666666666666656666666666",
"6666666666666666666666666666666666666656666666666666666666666666",
"6666666666666666666666666666666666666666666666666665666666666666",
"6666656666666666666666666666666666666665666666666666666666666666",
"6666666666666666666666666666666666666666666666666666666666566666",
"6666666656666666666666666666666666666655666666666666666666666666",
"6666666666666666666666666666666666666666666666666666666666666666",
"6666666666666666666666666666666666666666666666666666666666666666",
"6666666666666666666666666666666666666666666666666666666666666666",
"6666666666666666666666666666666666666666666666666666666666666666",
"6666666666666666666666666666666666666666666666666666666666666666",
"6666666666666666666666666666666666666666666666666666666666656666",
"6666666666666666666666666666666666666666666666666666666666666666",
"6666666666666666666666666666666666666666666666666666666666666666",
"6666666666666666666666666666666666666666666666666666666666666666",
"6666666656666666666666666666666666666666666666666666666666666666",
"5666666666666666666666666666666666666666666666666666666666666666"
};
