/* XPM */
static char *ENEMY51675895475[] = {
/* columns rows colors chars-per-pixel */
"64 64 78 1 ",
"  c #010000",
". c #0C0000",
"X c #130000",
"o c #1B0000",
"O c #230000",
"+ c #2D0000",
"@ c #2B1D1D",
"# c #222222",
"$ c #5F2D2E",
"% c #583030",
"& c #6D2727",
"* c #632B2B",
"= c #6C2829",
"- c #732524",
"; c #773737",
": c #7D3435",
"> c #753837",
", c #763738",
"< c #753938",
"1 c #783838",
"2 c #6A4D4F",
"3 c #7D4545",
"4 c #764749",
"5 c #7C4548",
"6 c #74494A",
"7 c #676B6A",
"8 c #696B6A",
"9 c #736666",
"0 c #726867",
"q c #872F2E",
"w c #8C2E2E",
"e c #88302F",
"r c #843131",
"t c #953B3F",
"y c #98393D",
"u c #A43E3D",
"i c #873F43",
"p c #8D3E42",
"a c #933B41",
"s c #9F3F40",
"d c #844244",
"f c #8B4345",
"g c #844B4A",
"h c #8A4A4B",
"j c #924545",
"k c #9A4242",
"l c #967476",
"z c #9B7375",
"x c #947579",
"c c #AC6B6F",
"v c #BF6366",
"b c #B6676D",
"n c #BC6569",
"m c #B1696E",
"M c #A46E72",
"N c #AA6C71",
"B c #A17074",
"V c #C85F66",
"C c #C26266",
"Z c #C26168",
"A c #AC9E9E",
"S c #FFBFC6",
"D c #DDD7D7",
"F c #DAD9D7",
"G c #DCD7D9",
"H c #D7D9D8",
"J c #D9D9D9",
"K c #FFC4C7",
"L c #FFC5CA",
"P c #F4CDCE",
"I c #FCCACD",
"U c #F2D0CF",
"Y c #EFCFD1",
"T c #F3CED0",
"R c #F8CBD0",
"E c #E3D4D5",
"W c #EBD1D3",
"Q c #E1D7D8",
/* pixels */
"8888888888888888888888888888888888888888888788888888888888888888",
"8888888888888888888888888888888888888888888788888888888888888888",
"8888888888888888888888888888888888888888888888888888888888888888",
"8888888888888888888888888888888888888888888888888888888888888888",
"8888888888888888888888888888888888888888888887708888888888888888",
"8888888888888888888888888888888888888888888887778888888888888888",
"8888888888888888888888808888888888888888888888778888888888888888",
"888888888888888788888888888.    ..   888888888788888888888888788",
"888888888788888888888888 ...DJHDWzQJ    888888888888887888888888",
"8888888888888888888888   ElYDJJWRBEJJJJ   8877888888888888888888",
"88888888888888888887   GEYzPEJJQRMEJJHJJJ   77888888888888888888",
"8888888888878888888..WEWIM4PQGGWLNREDJJJGQQ..0878888888888888888",
"888888888888888888 .MLLLnpTQHDWInVbLEJJGEWITX.878888888888888888",
"88888888888888888  ENbmbVnYGHEPMptaNWGJQRNNNBX.88888888887888888",
"8888888888888888  JE5dddamWJHWcfIPLNEJJWbZf336. 8888888888888888",
"888888888888888  JJQPIILKNEJHE3IEQPzEJJWbaLIIUD  888888888888888",
"88888888878888  HJHDEEEWTzQJJGWEDQY2QJJWNLWEEEHJ  88888888888888",
"88888888888888  JJHHHDDWooXXX.QDGDEEGJJEzPEHHJJJ  87888888888888",
"8888888888888  JJJJJHQXO:rr::,o.DJDDJJJQxYQFHJJJJ  8888888888888",
"8888888888888  JJJJDEogjewwwwr*%.QHJJJJGEEFJJGJJJ  8888888888888",
"888888888888  JJJJJQOjkewwwwwwr=*XQJJJJJQGGJJJJJJF  888888888888",
"878888888788..JJJGDofkeeerqwwwer&$.DGHJJJJJGJJJJJF  888888888888",
"888888887779XzQJJQogkeer11:rwwwwr=%XDHGJJHHJJJJHJJ   88888888888",
"888888887779OBUWDEOjer<OooO<rwwwrr*oQJJGJDQWYWWQEQQ. 88888888888",
"888888788880oNmIEXfsr1o....X<rewwr&$.JJHJWImvbLIIRU. 88888888888",
"888888778880o5fmPokurO.    .Orewwq-*.JHHQYcpttmcNBzX.88888888888",
"887788888888.WIcB+uu;oA#   .o1wwww-*.HDQPz6IYP33d36. 88888888888",
"887788888888 EU64+uu:o@#   .o1ewww-*XHHEPzYEDEYIIUW. 88888888888",
"888888888888 QQEEokurO.    .O:qwwe-*.JJHQEQDJDQEEEE. 88888888888",
"888888888888 JHHJXjsr;o....X;rwwwr&$.JJJJJHHJJJJHHH  88888888888",
"888887788888 JJHJE+jer;OooO;rqwwwr*XEHHJJJJJJJJJJJJ  88888888888",
"888887788888  JHJQXgkqr:>,:rewwwr&%XWQGJJHJJGJJJJJ   88888888888",
"888888888888  JJHDQohswweeewwwer=*XEPPQJHHHHGHJJJJ   88888888888",
"8888888888888 JJHHJE+jawwwwwwqr=$XQEBMPPYYUWWEJJJJ  888888888888",
"8888888888888  JDHJQUOhhewwwwe=%.DGE4dnvZZZnNYQJJ  8888888888888",
"88888888888888 JGGJQzROO1::::<oXQJJEPKatyyyabLEJJ  8888888888888",
"88888888888888  JJJWdNWEXXX.XXWWQDHQUTUUTYYIicEJ  88888888888888",
"888888888888888 JJJELmTQQGJJJQlWDHQEPlQJJJHELNWJ 888888888888888",
"888888888888888  HHWRmLRYEQGJEzPEDEPc3EJJJJELME  888888888888888",
"8888888888888888  HERmNNzWGGJWBIPPIMdIWJJJJDTz. 8888888888888888",
"88888888888888888  QIdbf6UQQJEgvvvKcRWGJJJJJD. 88888888888888888",
"888888888888888888 .PcmKUQJJJEIftyVmEGJJJJJJ .888888878888878888",
"8888888888888888888.Xz4PQJJJJQEUYIpcEJJJJJJ  8888888888888888888",
"88888888888888888888...EJJJJJJJJHYKmWJJJJ   88788888888888888888",
"8888888888888888888808.  JJJJJJJHEmpEJJ   8788888888888888888888",
"888888888888888888888888    JJJJGEMR.   888788888888888888888888",
"888888888888887788888888888      ....888888788778888888888888888",
"8888888888888878888888888888888888887788888788778888888888888888",
"8888888888888888888888888888888888888888888888888888888888888888",
"8788888888788888888888888888888888888888888888888888888888888888",
"8888888888888888888888887888888888888888888888878888888888888888",
"8888888888888888888888888888888888887888888888888888888888888888",
"8888888888888888888888888888888888888888888888888888888888888888",
"8888888888888888888888888888888888888888888888888888888888888888",
"8888888888888888888888788888888888888888888888888888788888888888",
"8888888888888888888888888888888888888888888888888888888888887888",
"8887888888888888888888888888888888888888888888888888888888888888",
"8888888888888888888888888888888888888888888888888888888888888888",
"8888888888888887888888888888888888888888888888888888888888888888",
"8888888888888888888888888888888888888888888888888888888888888888",
"8888888888888888888888888888888888888888888888888888888888888888",
"8888888888888888888888888878888888888888888888788888888878888888",
"8888888888888888888888888888888888888888888888888888888888888888",
"8888888888888888888888888888888888888878888888888888888888888888"
};
