/* XPM */
static char *EXIT21675896498[] = {
/* columns rows colors chars-per-pixel */
"64 64 150 2 ",
"   c black",
".  c #010000",
"X  c #000100",
"o  c #010100",
"O  c #010101",
"+  c #030000",
"@  c #000002",
"#  c #010002",
"$  c #010103",
"%  c #040000",
"&  c #060000",
"*  c #070000",
"=  c #010004",
"-  c #030004",
";  c #030005",
":  c #080000",
">  c #0A0000",
",  c #0B0000",
"<  c #0C0000",
"1  c #0D0000",
"2  c #0E0000",
"3  c #0F0000",
"4  c #110000",
"5  c #120000",
"6  c #150000",
"7  c #160000",
"8  c #3A383B",
"9  c #3B393C",
"0  c #3A383D",
"q  c #3A3A3C",
"w  c #3B393E",
"e  c #5F3D31",
"r  c #5E3E31",
"t  c #5A3F36",
"y  c #6C3727",
"u  c #6B3825",
"i  c #6B3827",
"p  c #6A3A26",
"a  c #6C3924",
"s  c #6D3924",
"d  c #6D3826",
"f  c #6C3926",
"g  c #6E3927",
"h  c #663B2A",
"j  c #663B2B",
"k  c #653B2D",
"l  c #633C2D",
"z  c #6A3928",
"x  c #68382A",
"c  c #69382A",
"v  c #69392B",
"b  c #6A392A",
"n  c #6A392B",
"m  c #683A2A",
"M  c #693A2A",
"N  c #6D3828",
"B  c #6C3928",
"V  c #6C4E46",
"C  c #6C4D48",
"Z  c #6D4E49",
"A  c #65504F",
"S  c #7D5C4B",
"D  c #7F594C",
"F  c #7E5A4C",
"G  c #7F5B4D",
"H  c #7D5B4F",
"J  c #7F5B4F",
"K  c #795D4F",
"L  c #7C5C4D",
"P  c #7D5C4D",
"I  c #7C5C4F",
"U  c #654F51",
"Y  c #615151",
"T  c #645252",
"R  c #7A5C52",
"E  c #795C54",
"W  c #785D54",
"Q  c #6A6967",
"!  c #6D6966",
"~  c #666A69",
"^  c #676B6A",
"/  c DimGray",
"(  c #696B68",
")  c #686A69",
"_  c #6A6A68",
"`  c #6B6A68",
"'  c #6B6B69",
"]  c #69696B",
"[  c #696B6A",
"{  c #6A6A6A",
"}  c gray42",
"|  c #6A6C6B",
" . c #6B696C",
".. c #696A6C",
"X. c #6A6A6C",
"o. c #6B6B6D",
"O. c #6C6A6D",
"+. c #8B573F",
"@. c #8D553C",
"#. c #8F553D",
"$. c #8D573D",
"%. c #8E563D",
"&. c #8D573F",
"*. c #8F573E",
"=. c #8E563F",
"-. c #8A5641",
";. c #8B5741",
":. c #895643",
">. c #8A5742",
",. c #8B5742",
"<. c #8D5641",
"1. c #8D5642",
"2. c #895645",
"3. c #8A5744",
"4. c #885746",
"5. c #8B5646",
"6. c #8A5746",
"7. c #825947",
"8. c #865944",
"9. c #845A44",
"0. c #845946",
"q. c #875846",
"w. c #865946",
"e. c #885844",
"r. c #8B5847",
"t. c #885748",
"y. c #835848",
"u. c #835A48",
"i. c #815A4B",
"p. c #805B4B",
"a. c #825B4A",
"s. c #845948",
"d. c #865848",
"f. c #875848",
"g. c #805A4D",
"h. c #805A4F",
"j. c #817F84",
"k. c #837E85",
"l. c #827F86",
"z. c #847F85",
"x. c #857E86",
"c. c #847F86",
"v. c #867F87",
"b. c #818183",
"n. c #828083",
"m. c #838184",
"M. c #828085",
"N. c #828284",
"B. c #838186",
"V. c #858086",
/* pixels */
"[ [ [ [ [ [ [ [ [ [ [ [ [ [ [ [ [ [ [ [ [ | [ [ [ [ ~ ~ ^ | | | ~ [ [ [ [ [ [ [ [ [ [ [ [ [ [ [ [ [ [ [ [ [ [ [ [ [ [ [ [ [ [ [ ",
"[ [ [ [ [ [ [ [ [ [ [ [ [ [ [ [ [ [ [ [ [ [ [ [ [ [ [ ~ | | ^ ( [ [ [ [ [ [ [ [ [ [ [ [ [ [ [ ~ [ [ [ [ [ [ [ [ [ [ [ [ [ [ [ [ ",
"[ [ [ [ [ [ [ [ [ [ [ [ [ [ [ [ [ [ ^ ~ [ [ [ [ [ [ [ [ ....[ [ [ [ [ [ [ [ [ [ [ [ [ [ [ [  ...[ [ [ [ [ [ [ [ [ [ [ [ [ [ [ [ ",
"[ [ [ [ [ [ [ [ [ [ [ [ [ [ [ [ [ | ^ [ [ ~ [ [ ' [ [ [ .. . . .[ [ [  . .[ Q [ [ [ [ [ [ [  . .[ [ [ [ [ [ [ [ [ [ [ [ [ [ [ [ ",
"[ [ [ [ [ [ [ [ [ [ [ [ [ [ [ [ [ [ [ [  .j.m.m.l.k.m.l.l.m.m.l.l.m.m.l.l.n.m.m.m.m.k.~ | | ~ [ [ [ [ [ [ [ [ [ [ [ [ [ [ [ [ [ ",
"[ [ [ [ [ [ [ [ [ [ [ [ [ [ [ [ [ [ [ [ w m.= = = . V.= . l.z.z.. . l.= l.= = = = . m. .[ Q [ [ [ [ [ [ [ [ [ [ [ [ [ [ [ [ [ [ ",
"[ [ [ [ [ [ [ [ [ [ [ [ [ [ [ [ ^ | ..^ w j.= m.z.v.z.z.. m.m.l.. m.l.= z.l.m.= z.z.l.O.[ [ [ [ [ [ [ [ [ [ [ [ [ [ [ [ [ [ [ [ ",
"[ [ [ [ [ [ [ [ [ [ [ [ [ [ [ [ | | ..^ w m.= m.z.z.v.z.= . j.= . l.m.= v.l.m.= z.z.k. .[ [ [ [ [ [ [ [ [ [ [ [ [ [ [ [ [ [ [ [ ",
"[ [ [ [ [ [ [ [ [ [ [ [ [ [ [ [ [ [ [ [ w l.. = = m.c.m.m.. = = m.l.m.= c.c.j.= c.c.m. . .| | [ [ [ [ [ [ [ [ [ [ [ [ [ [ [ [ [ ",
"[ [ [ [ [ [ [ [ [ [ [ [ [ [ [ [ [ [ [ [ 9 l.. l.l.l.c.z.= = m.. = m.B.= c.l.j.= c.c.B. . .[ | ~ [ [ [ [ [ [ [ [ [ [ [ [ [ [ [ [ ",
"[ [ [ [ [ [ [ [ [ [ [ [ [ [ [ [ [ [ [ ' w l.. m.m.m.z.z.. m.m.l.= m.m.= c.c.m.= c.c.j. . .[ [ [ [ [ [ [ [ [ [ [ [ [ [ [ [ [ [ [ ",
"[ [ [ [ [ [ [ [ [ [ [ [ [ [ [ [ [ [ [ [ 8 l.. . = . z.= . l.z.n.= = m.= c.c.m.= c.j.B...[ [ [ [ [ [ [ [ [ [ [ [ [ [ [ [ [ [ [ [ ",
"[ [ [ [ [ [ [ [ [ [ [ [ [ [ [ [ [ [ [ [ 9 z.z.z.m.j.l.l.m.l.m.l.m.m.m.m.l.l.m.m.l.j.m. .~ [ [ [ [ [ [ [ [ [ [ [ [ [ [ [ [ [ [ [ ",
"[ [ [ [ [ [ [ [ [ [ [ [ [ [ [ [ ' [ [ [ 8 9 w w w w w 8 w 9 w w w 9 w w w w w w w q [  .[ ~ [ [ [ [ [ [ [ [ [ [ [ [ [ [ [ [ [ [ ",
"[ [ [ [ [ [ [ [ [ [ [ [ [ [ [ [ [ [ [ [ | ' ' [ O.' [ [ O.[ O.' .. . . ... . . ...^ ..[ [ [ [ [ [ [ [ [ [ [ [ [ [ [ [ [ [ [ [ [ ",
"[ [ [ [ [ [ [ [ [ [ [ [ [ [ [ [ [ [ [ [ ! * : : : : : < : : : : * . * . . . * : * * * ' [ [ [ [ [ [ [ [ [ [ [ [ [ [ [ [ [ [ [ [ ",
"[ [ [ [ [ [ [ [ [ [ [ [ [ [ [ [ [ [ [ . < 5 r g.G l 9.a.l F u.S 6 5 5 : * : K F a.e 5 : * [ [ [ [ [ [ [ [ [ [ [ [ [ [ [ [ [ [ [ ",
"[ [ [ [ [ [ [ [ Q [ [ [ [ [ [ [ [ [ * < K a.b 2.3.s #.#.s 3.#.w.C < A : * : w.#.,.b g.t : * Q [ [ [ [ [ [ [ [ [ [ [ [ [ [ [ [ [ ",
"[ [ [ [ [ [ [ [ [ [ [ [ [ [ [  .[ * < r w.,.f r.3.s #.$.s 3.$.w.< * * * . : 9.#.,.b d.k G 5 : [ [ [ [ [ [ [ [ [ [ [ [ [ [ [ [ [ ",
"[ [ [ [ [ [ [ [ [ [ [ [ [ [ [ Q . < R h ,.#.f 2.3.s $.#.s <.#.w.: . . . . : 9.#.,.f 2.b d.r : . [ [ [ [ [ [ [ [ [ [ [ [ [ [ [ [ ",
"[ [ [ [ [ [ [ [ [ [ [ ~ [ [ [ Q : < g.p #.#.f 2.3.s #.$.f ,.#.w.< . . . . : d.#.,.f 2.b w.l < * [ [ [ [ [ [ [ [ [ [ [ [ [ [ [ [ ",
"[ [ [ [ [ [ [ [ [ [ [ [ [ [ [ . < W w.s $.$.f 5.3.s $.#.f ,.#.w.< . . . . < w.$.,.f 2.p r.h R : . [ [ [ [ ~ [ [ [ [ [ [ [ [ [ [ ",
"[ [ [ [ [ [ [ [ [ [ [ [ [ [ [ * < R d.f #.@.N r.3.s #.#.s ,.#.w.: . . . . : w.$.3.f 2.N 3.b R < * [ [ [ [ [ [ [ [ [ [ [ [ [ [ [ ",
"[ [ [ [ [ [ [ [ [ [ [ | [ [ [ * 5 G w.s #.#.f 2.3.s $.#.s ,.#.w.< . . . . : 9.#.<.f 5.N 2.b a.< * ~ [ [ | [ [ [ [ [ [ [ [ [ [ [ ",
"[ [ [ [ [ [ [ [ [ [ [ [ [ [ [ * < K w.f $.#.f 5.3.s #.#.s ,.#.9.: . . . . < w.#.3.f r.N 2.b G 5 . [ [ [ [ [ [ [ [ [ [ [ [ [ [ [ ",
"[ [ [ [ [ [ [ [ [ [ [ [ [ [ [ * 5 G w.s <.#.f r.3.s #.$.s ,.#.9.< . . . . : w.$.+.p ,.p r.h G 5 * [ [ [ [ [ [ [ [ [ [ [ [ [ [ [ ",
"[ [ [ [ [ [ [ [ [ [ [ [ [ [ [ * < G f.f #.$.f r.3.s $.#.s ,.#.9.: . . . . : 9.#.3.a r.f ,.h G 5 . [ [ [ [ [ [ [ [ [ [ [ [ [ [ [ ",
"[ [ [ [ [ [ [ [ [ [ [ [ [ [ [ * < G q.s #.@.y 2.3.s #.$.p 3.#.a.< . * * * < 9.#.3.p r.b ,.h G 5 * [ [ [ [ [ [ [ [ [ [ [ [ [ [ [ ",
"[ [ [ [ [ [ [ [ [ [ [ [ [ [ [ * 5 G d.f $.$.s 2.3.s $.#.s 3.#.9.< . T 5 T 6 r.@.,.p 2.N 2.h G 5 . [ [ [ [ [ [ [ [ [ [ [ [ [ [ [ ",
"[ [ [ [ [ [ [ [ [ [ [ [ [ [ [ * < G w.s $.$.s r.3.s #.$.s 3.#.9.: * < < 5 6 8.#.,.p 2.N 3.b G < * [ [ [ [ [ [ [ [ [ [ [ [ [ [ [ ",
"[ [ [ [ [ [ [ [ [ [ [ [ [ [ [ * < K w.s #.#.f r.3.a $.#.s 3.$.9.< . . * * 5 8.#.,.p r.N 3.b G 5 . [ [ [ [ [ [ [ [ [ [ [ [ [ [ [ ",
"[ [ [ [ [ [ [ [ [ [ [ [ [ [ [ * 5 G d.f #.$.s r.8.s #.$.s $.#.w.< . . . . : 9.#.,.p r.p 3.b G 5 * [ [ [ [ [ [ [ [ [ [ [ [ [ [ [ ",
"[ [ [ [ [ [ [ [ [ [ [ [ [ [ [ * < G w.s #.@.s 2.3.s @.*.s 3.#.w.: . . . . < w.#.,.f 2.N r.b h.5 . | ^ | [ [ [ [ [ [ [ [ [ [ [ [ ",
"[ [ [ [ [ [ [ [ [ [ [ [ [ [ [ * < G d.s $.#.f r.8.s *.@.s 3.$.8.5 * * * . : 9.+.<.f 5.N 2.h g.< * | ~ | [ [ [ [ [ [ [ [ [ [ [ [ ",
"[ [ [ [ [ [ [ [ [ [ [ [ [ [ [ * 5 g.w.f #.$.y 5.3.s @.*.s +.#.8.6 5 < : * : 9.#.<.N 2.f 3.b G 5 . [ | [ [ [ [ [ [ [ [ [ [ [ [ [ ",
"[ [ [ [ [ [ [ [ [ [ [ [ [ [ [ * 5 G r.f <.#.f r.3.s $.@.s 3.#.8.6 T 5 Y . : 9.#.<.f r.b 3.h G 5 * [ [ [ [ [ [ [ [ [ [ [ [ [ [ [ ",
"[ [ [ [ [ [ [ [ [ [ [ [ [ [ [ * < G d.p <.#.f 5.3.s @.$.s $.#.8.< * * . . : w.#.3.f r.N r.h G 5 . [ [ [ [ [ [ [ [ [ [ [ [ [ [ [ ",
"[ [ [ [ [ [ [ [ [ [ [ [ [ [ [ * 5 G w.a $.#.f r.3.s $.#.s 3.$.w.: . . . . < w.$.<.p ,.p ,.h G 5 * [ [ [ [ [ [ [ [ [ [ [ [ [ [ [ ",
"[ [ [ [ [ [ [ [ [ [ [ [ [ [ [ * < G d.f #.$.f r.3.s #.$.s 3.#.d.< . . = . < 9.#.3.s r.f ,.h G 5 . [ [ [ [ [ [ [ [ [ [ [ [ [ [ [ ",
"[ [ [ [ [ [ [ [ [ [ [ [ [ [ [ * < G w.s #.@.y r.3.s $.#.s 3.3.9.< . = . . : a.<.r.N 2.b 2.b g.5 * [ [ [ [ [ [ [ [ [ [ [ [ [ [ [ ",
"[ [ [ [ [ [ [ [ [ [ [ [ [ [ [ * 5 G d.a <.$.f r.3.s @.$.f t.f g.: . . . . : g.f t.b r.b 8.b G < . [ [ [ [ [ [ [ [ [ [ [ [ [ [ [ ",
"[ [ [ [ [ [ [ [ [ [ [ [ [ [ [ * 3 G d.a $.*.f r.3.s #.$.N v b g.: . . . . : g.f n b f.p 3.h G 5 * [ [ [ [ [ [ [ [ [ [ [ [ [ [ [ ",
"[ [ [ [ [ [ [ [ [ [ [ [ [ [ [ * 3 G w.a #.@.y 5.3.s #.$.N b b h.: . . . . : g.b b b t.N 3.b G 5 . [ [ [ [ [ [ [ [ [ [ [ [ [ [ [ ",
"[ [ [ [ [ [ [ [ [ [ [ [ [ [ [ * 3 K d.a #.#.f r.r.f $.$.p t.b a.< * * . . : a.f r.b 2.b 2.h G 5 * [ [ [ [ [ [ [ [ [ [ [ [ [ [ [ ",
"[ [ [ [ [ [ [ [ [ [ [ [ [ [ [ * < S r.s <.$.f r.3.s @.#.f 2.<.w.6 5 5 : * : d.$.,.p r.f 2.b G 5 . [ [ [ [ [ [ [ [ [ [ [ [ [ [ [ ",
"[ [ [ [ [ [ [ [ [ [ [ [ [ [ [ * < G w.s $.#.f 5.3.s #.$.s ,.#.w.V < T < * < w.#.<.p 5.f r.b g.5 * [ [ [ [ [ [ [ [ [ [ [ [ [ [ [ ",
"[ [ [ [ [ [ [ [ [ [ [ [ [ [ [ * 5 g.d.f #.#.f 5.3.s #.$.s 3.#.9.5 * * . . : w.$.,.y 2.y :.h a.< . [ [ [ [ [ [ [ [ [ [ [ [ [ [ [ ",
"[ [ [ [ [ [ [ [ [ [ [ [ [ [ | * 5 G w.f <.#.f 5.3.s $.#.s <.#.9.: . . . . : w.$.,.p 5.y 3.h G 5 * [ [ [ [ [ [ [ [ [ [ [ [ [ [ [ ",
"[ [ [ [ [ [ [ [ [ [ [ [ [ [ [ * 3 P w.a <.*.f 5.5.f #.$.s +.#.9.: . . . . : 9.#.<.p r.N 2.h G 5 . [ [ [ [ [ [ [ [ [ [ [ [ [ [ [ ",
"[ [ [ [ [ [ [ [ [ [ [ [ [ [ [ * 3 P d.a <.$.f 2.<.f $.#.s 3.#.9.< . . . . : 9.#.,.p r.N ,.h G 5 * [ [ [ [ [ [ [ [ [ [ [ [ [ [ [ ",
"[ [ [ [ [ [ [ [ [ [ [ [ [ [ [ * 3 P t.a *.$.f r.3.s #.$.a 3.#.9.: . . . = : a.#.,.p 2.p 2.b G 5 . [ [ [ [ [ [ [ [ [ [ [ [ [ [ [ ",
"[ [ [ [ [ [ [ [ [ [ [ [ [ [ [ * 3 G w.a *.#.f 5.3.s $.#.a r.#.9.< . . . . < 9.#.<.f r.p r.b g.5 * [ [ [ [ [ [ [ [ [ [ [ [ [ [ [ ",
"[ [ [ [ [ [ [ [ [ [ [ [ [ [ [ * < G d.a #.@.f r.3.s #.$.s <.#.9.: . . . . : w.#.,.f 2.N 2.b G < . [ [ [ [ [ [ [ [ [ [ [ [ [ [ [ ",
"[ [ [ [ [ [ [ [ [ [ [ [ [ [ [ * < G d.a $.#.y 5.3.s $.#.s 3.#.9.< . . . . < w.#.,.p r.N ,.h G 5 * [ [ [ [ [ [ [ [ [ [ [ [ [ [ [ ",
"[ [ [ [ [ [ [ [ [ [ [ [ [ [ [ * 5 G w.s <.#.f 5.3.s #.$.s 3.$.w.: . . . . : 9.$.3.f 2.N ,.h G 5 . [ [ [ [ [ [ [ [ [ [ [ [ [ [ [ ",
"[ [ [ [ [ [ [ [ [ [ [ [ [ [ [ * < G d.f #.*.f 5.3.s $.#.s <.$.w.< . . . . : 9.#.<.f r.b r.b G 5 * [ [ [ [ [ [ [ [ [ [ [ [ [ [ [ ",
"[ [ [ [ [ [ [ [ [ [ [ [ [ [ [ * 5 G d.a $.$.f 5.3.s #.$.f ,.#.a.: . . . = < d.#.$.p 2.N r.h G < . [ [ [ [ [ [ [ [ [ [ [ [ [ [ [ ",
"[ [ [ [ [ [ [ [ [ [ [ [ [ [ [ * < G d.a <.$.f 5.3.s $.#.s ,.#.9.< . . . . : 9.$.3.f r.N 3.b G 5 * [ [ [ [ [ [ [ [ [ [ [ [ [ [ [ ",
"[ [ [ [ [ [ [ [ [ [ [ [ [ [ [ * < G w.s *.$.f r.3.s #.$.s ,.$.9.: . . . . < a.#.3.f 2.b 3.b S 5 . [ [ [ [ [ [ [ [ [ [ [ [ [ [ [ ",
"[ [ [ [ [ [ [ [ [ [ [ [ [ [ [ * < G d.s <.#.f 5.3.s #.#.s ,.#.9.< . * * * < w.#.<.f r.N 3.h G 5 * [ [ [ [ [ [ [ [ [ [ [ [ [ [ [ ",
"[ [ [ [ [ [ [ [ [ [ [ [ [ [ [ * 5 G d.s #.@.f 2.3.s #.$.s +.$.w.< . < A < C r.#.3.f r.f r.h g.5 . [ [ [ [ [ [ [ [ [ [ [ [ [ [ [ ",
"[ [ [ [ [ [ [ [ [ [ [ [ [ [ [ * < K d.f #.#.f r.3.s $.#.s 3.@.w.: * < < 5 6 w.$.<.f r.p ,.b G < * [ [ [ [ [ [ [ [ [ [ [ [ [ [ [ ",
"[ [ [ [ [ [ [ [ [ [ [ [ [ [ [ * 5 G r.f <.$.y 2.3.s #.$.s 3.#.9.< . . * : < 8.#.<.p r.N ,.h G 5 . [ [ [ [ [ [ [ [ [ [ [ [ [ [ [ ",
"[ [ [ [ [ [ [ [ [ [ [ [ [ [ [ * < G w.f $.#.p r.3.s $.#.f 3.#.w.< . . . . : 9.#.3.f 2.N 2.h G 5 * [ [ [ [ [ [ [ [ [ [ [ [ [ [ [ "
};
