/* XPM */
static char *characterSAGA1675892909[] = {
/* columns rows colors chars-per-pixel */
"64 64 202 2 ",
"   c black",
".  c #010000",
"X  c #000100",
"o  c #010101",
"O  c #030000",
"+  c #000201",
"@  c #040000",
"#  c #060000",
"$  c #070000",
"%  c #030005",
"&  c #000007",
"*  c #080000",
"=  c #0A0000",
"-  c #0B0000",
";  c #0D0000",
":  c #0E0000",
">  c #0F0000",
",  c #040009",
"<  c #060009",
"1  c #04000B",
"2  c #00000C",
"3  c #00000E",
"4  c #01000E",
"5  c #06000C",
"6  c #06000E",
"7  c #07000E",
"8  c #0A0009",
"9  c #0B0009",
"0  c #110000",
"q  c #120000",
"w  c #140000",
"e  c #150000",
"r  c #160000",
"t  c #170000",
"y  c #180000",
"u  c #190000",
"i  c #1B0000",
"p  c #1C0000",
"a  c #1D0000",
"s  c #000010",
"d  c #010010",
"f  c #000012",
"g  c #000013",
"h  c #000014",
"j  c #220000",
"k  c #371D1E",
"l  c #3E1B19",
"z  c #3D1B1A",
"x  c #3E1A1A",
"c  c #3B1C1A",
"v  c #3D1B1C",
"b  c #391D1C",
"n  c #3A1C1C",
"m  c #391C1E",
"M  c #3A1B20",
"N  c #391C20",
"B  c #441616",
"V  c #451717",
"C  c #471717",
"Z  c #4F1312",
"A  c #4F1313",
"S  c #4B1513",
"D  c #4C1510",
"F  c #4C1413",
"G  c #4E1413",
"H  c #4E1315",
"J  c #4B1515",
"K  c #481615",
"L  c #491615",
"P  c #491517",
"I  c #481617",
"U  c #4A1716",
"Y  c #441913",
"T  c #421915",
"R  c #451719",
"E  c #47161A",
"W  c #42171E",
"Q  c #45161C",
"!  c #47161C",
"~  c #48151A",
"^  c #411919",
"/  c #421819",
"(  c #401A19",
")  c #40191A",
"_  c #41191A",
"`  c #42181A",
"'  c #421A1A",
"]  c #441819",
"[  c #521011",
"{  c #531210",
"}  c #511112",
"|  c #521012",
" . c #531112",
".. c #531113",
"X. c #521212",
"o. c #521213",
"O. c #531313",
"+. c #541011",
"@. c #551112",
"#. c #541213",
"$. c #561213",
"%. c #541214",
"&. c #373C50",
"*. c #393B50",
"=. c #353A58",
"-. c #373B58",
";. c #373A59",
":. c #363B59",
">. c #353B5D",
",. c #363A5D",
"<. c #363A5F",
"1. c #333C5D",
"2. c #363C5E",
"3. c #3A3B59",
"4. c #2F386F",
"5. c #363962",
"6. c #333A64",
"7. c #353A64",
"8. c #333969",
"9. c #303B69",
"0. c #323A68",
"q. c #333A68",
"w. c #323A69",
"e. c #303A6B",
"r. c #323A6B",
"t. c #2F3A70",
"y. c #303970",
"u. c #323970",
"i. c #303972",
"p. c #6E6963",
"a. c #6B6A66",
"s. c #6D6864",
"d. c #6E6965",
"f. c #6D6A65",
"g. c #6E6966",
"h. c #6C6B67",
"j. c #6E6B66",
"k. c #676B6A",
"l. c #676B6E",
"z. c #676A6F",
"x. c DimGray",
"c. c #696B68",
"v. c #686A69",
"b. c #6A6A68",
"n. c #6B6A68",
"m. c #6B6B69",
"M. c #68696B",
"N. c #6B696A",
"B. c #696B6A",
"V. c #6A6A6A",
"C. c gray42",
"Z. c #6D6968",
"A. c #6E6868",
"S. c #6F6969",
"D. c #6C6B69",
"F. c #6D696A",
"G. c #686C6B",
"H. c #6A6C6B",
"J. c #6B696C",
"K. c #696A6C",
"L. c #6A6A6C",
"P. c #6A6B6D",
"I. c #696A6E",
"U. c #696A6F",
"Y. c #716766",
"T. c #706866",
"R. c #676A71",
"E. c #EDC298",
"W. c #EEC399",
"Q. c #EDC39B",
"!. c #EDC39D",
"~. c #EBC49D",
"^. c #EAC49F",
"/. c #EEC49C",
"(. c #ECC59E",
"). c #DFC5AC",
"_. c #DDC7AF",
"`. c #DFC6B0",
"'. c #DCC7B2",
"]. c #DDC7B2",
"[. c #DAC7B6",
"{. c #DCC7B4",
"}. c #D6C8BB",
"|. c #E3C4A7",
" X c #E7C4A4",
".X c #E4C5A6",
"XX c #E8C4A0",
"oX c #EAC4A0",
"OX c #E8C4A2",
"+X c #E3C5A9",
"@X c #E3C6A8",
"#X c #E3C5AB",
"$X c #E0C6AB",
"%X c #E1C6AB",
"&X c #E4C5A8",
"*X c #E1C5AD",
"=X c #E0C6AD",
"-X c #E2C7AC",
";X c #E0C6AF",
":X c #D7C9C0",
">X c #D9C8C0",
",X c #FFF9D6",
/* pixels */
"B.B.B.B.B.B.B.B.B.B.B.B.B.B.B.B.B.x.k.a.k.B.B.B.B.B.B.B.B.x.B.B.B.B.B.B.B.B.B.B.B.B.B.B.B.B.B.B.B.B.B.B.B.B.B.B.B.B.B.B.B.B.B.B.",
"B.B.B.B.B.B.B.B.B.B.B.B.B.B.B.B.B.B.B.B.B.B.B.B.B.B.B.B.B.B.B.B.B.B.B.B.B.B.B.B.B.B.B.B.B.B.B.B.B.B.B.B.B.B.B.B.B.B.B.B.B.B.B.B.",
"B.B.B.B.B.B.B.B.B.B.B.B.B.B.B.B.B.B.B.B.B.B.B.B.B.B.B.B.B.B.B.B.B.B.B.B.B.B.B.B.B.B.B.B.B.B.B.B.B.B.B.B.B.B.B.B.B.B.B.B.B.B.B.B.",
"B.B.B.B.B.B.B.B.B.B.B.B.B.B.B.B.B.B.B.B.B.B.B.B.B.B.B.B.B.B.B.B.B.B.B.B.B.B.B.B.B.B.B.B.B.B.B.B.B.B.B.B.B.B.B.B.B.B.B.B.B.B.B.B.",
"B.B.B.B.B.B.B.B.B.B.B.B.B.B.B.B.B.B.B.B.B.B.B.B.B.k.k.B.B.B.B.B.B.B.B.B.B.B.B.B.B.B.B.B.B.B.B.B.B.B.B.B.B.B.B.B.B.B.B.B.B.B.B.B.",
"B.B.B.B.B.B.B.B.B.B.B.B.B.B.B.B.B.B.B.B.B.B.B.B.B.B.B.B.B.B.B.B.B.B.B.B.B.B.B.B.B.B.B.B.B.B.B.B.B.B.B.B.B.B.B.B.B.B.B.B.B.B.B.B.",
"B.B.B.B.B.B.B.B.B.B.B.B.B.B.B.B.B.B.B.B.B.B.B.B.B.B.B.B.B.B.B.B.B.B.B.B.B.B.B.B.B.B.B.B.B.B.B.B.B.B.B.B.B.B.B.B.B.B.B.B.B.B.B.B.",
"B.B.B.B.B.B.B.B.B.B.B.B.B.B.B.B.B.B.B.B.B.o o o o o B.B.B.B.B.B.B.B.B.B.B.B.B.B.B.B.B.B.B.B.B.B.B.B.B.B.B.B.B.B.B.B.B.B.B.B.B.B.",
"B.B.B.B.B.B.B.B.B.B.B.B.B.B.B.B.B.B.B.B.B.o o o o o B.B.B.B.B.B.B.B.B.B.B.B.B.B.B.B.B.B.B.B.B.B.B.B.B.B.B.B.B.B.B.B.B.B.B.B.B.B.",
"B.B.B.B.B.B.B.B.B.B.B.B.B.B.B.B.B.B.B.B.B.o o o o o B.B.B.B.B.B.B.B.B.B.B.B.B.B.B.B.B.B.B.B.B.B.B.B.B.B.B.B.B.B.B.B.B.B.B.B.B.B.",
"B.B.B.B.B.B.B.B.B.B.B.B.B.B.B.B.B.B.B.B.B.o o o o o o o o o o o o o o o o k.B.B.B.B.B.B.B.B.B.B.B.B.B.B.B.B.B.B.B.B.B.B.B.B.B.B.",
"B.B.B.B.B.B.B.B.B.B.B.B.B.B.B.B.B.B.B.B.B.o o o o o o o o o o o o o o o o B.B.B.B.B.B.B.B.B.B.B.B.B.B.B.B.B.B.B.B.B.B.B.B.B.B.B.",
"B.B.B.B.B.B.B.B.B.B.B.B.B.B.B.B.B.B.B.B.B.B.B.o o o o o o o o o o o o o o o k.B.B.B.B.B.B.B.B.B.B.B.B.B.B.B.B.B.B.B.B.B.B.B.B.B.",
"B.B.B.B.B.B.B.B.B.B.B.B.B.B.B.B.B.B.B.B.B.B.B.o o o o o o o o o o o o o o o o B.B.B.B.B.B.B.B.B.B.B.B.B.B.B.B.B.B.B.B.B.B.B.B.B.",
"B.B.B.B.B.B.B.B.B.B.B.B.B.B.B.B.B.B.B.B.B.B.M.o o o o o o o o o o o o o o o o o B.B.B.B.B.B.B.B.B.B.B.B.B.B.B.B.B.B.B.B.B.B.B.B.",
"B.B.B.B.B.B.B.B.B.B.B.B.B.B.B.B.B.B.B.B.B.B.B.o o o o o o o o o o o o o o o o # a.B.B.B.B.B.B.B.B.B.B.B.B.B.B.B.B.B.B.B.B.B.B.B.",
"B.B.B.B.B.B.B.B.B.B.B.B.B.B.B.B.B.B.B.B.B.M.B.o o o o o o o o o o o o o o o > = g.B.B.B.B.B.B.B.B.B.B.B.B.B.B.B.B.B.B.B.B.B.B.B.",
"B.B.B.B.B.B.B.B.B.B.B.B.B.B.B.B.B.B.B.B.M.M.B.o o o o o o o o o o # o # = > ].{.o B.B.B.B.B.B.B.B.B.B.B.B.B.B.B.B.B.B.B.B.B.B.B.",
"B.B.B.B.B.B.B.B.B.B.B.B.B.B.B.B.B.B.B.B.B.B.B.o o o o o o o o o o = q ).|. XXX=X# B.B.B.B.a.B.B.B.B.B.B.B.B.B.B.B.B.B.B.B.B.B.B.",
"B.B.B.B.B.B.B.B.B.B.B.B.B.B.B.B.B.B.B.k.k.B.B.o o o o o o o o # > _.|.^.^.^.!.@X= B.B.k.a.B.B.B.B.B.B.B.B.B.B.B.B.B.B.B.B.B.B.B.",
"B.B.B.B.B.B.B.B.B.B.B.B.B.B.B.B.B.B.M.M.B.B.B.o o o o o o o = ].&XoX^.^.oX,Xa =X# B.B.B.H.B.B.H.B.B.B.B.B.B.B.B.B.B.B.B.B.B.B.B.",
"B.B.B.B.B.B.B.B.B.B.B.B.B.B.B.B.B.B.M.B.B.B.B.o o o o o o # {.u oXE.W.E.oX XoX_.# B.B.H.B.B.B.B.B.B.B.B.B.B.B.B.B.B.B.B.B.B.B.B.",
"B.B.B.B.B.B.B.B.B.B.B.B.B.B.B.B.B.B.B.B.B.B.B.B.o o o o o # =XoXa oX/.E.E./.!.&X# B.B.B.B.B.B.B.B.B.B.B.B.B.B.B.B.B.B.B.B.B.B.B.",
"B.B.B.B.B.B.B.B.B.B.B.B.B.B.B.B.B.B.B.B.B.B.B.B.B.o o o # >  XE.oXoX/.W.E./.oX=X# k.B.B.B.B.C.B.B.B.B.B.B.B.B.B.B.B.B.B.B.B.B.B.",
"B.B.B.B.B.B.B.B.B.B.B.B.B.B.B.B.B.B.B.B.B.B.B.B.B.B.o # q @X^.E.E./.E.E./.oX`.= g.B.B.B.B.B.B.B.B.B.B.B.B.B.B.B.B.B.B.B.B.B.B.B.",
"B.B.B.B.B.B.B.B.B.B.B.B.B.B.B.B.B.B.B.a.B.B.B.B.B.B.B.o [.=X X^.oXoXoXoXoX=X= g.B.B.B.B.B.B.B.B.B.B.B.B.B.B.B.B.B.B.B.B.B.B.B.B.",
"B.B.B.B.B.B.B.B.B.B.B.B.B.B.B.B.B.B.B.B.B.B.a.B.B.B.B.g.# = ].=X_.@X_.=X].= p.B.B.B.B.F.B.B.B.B.B.B.B.B.B.B.B.B.B.B.B.B.B.B.B.B.",
"B.B.B.B.B.B.B.B.B.B.B.B.B.B.B.B.B.B.B.B.B.B.k.a.B.B.B.B.B.# q u u e q = = p.F.B.B.B.B.B.B.B.B.B.B.B.B.B.B.B.B.B.B.B.B.B.B.B.B.B.",
"B.B.B.B.B.B.B.B.B.B.B.B.B.B.B.B.B.B.B.B.B.B.M.F.B.B.B.B.B.= T D D Y > g.a.B.B.B.B.B.B.B.M.M.B.B.B.B.B.B.B.B.B.B.B.B.B.B.B.B.B.B.",
"B.B.B.B.B.B.B.B.B.B.B.B.B.B.B.B.B.B.B.B.B.B.B.B.B.B.B.F.# q J +.o.K q = B.B.B.B.H.H.B.B.M.B.B.B.B.B.B.B.B.B.B.B.B.B.B.B.B.B.B.B.",
"B.B.B.B.B.B.B.B.B.B.B.B.B.B.B.B.B.B.B.F.B.B.B.B.B.B.M.# e ] H +.o.Z R e = B.B.B.M.P.B.B.M.B.B.B.B.B.B.B.B.B.B.B.B.B.B.B.B.B.B.B.",
"B.B.B.B.B.B.B.B.B.B.B.B.B.B.B.B.B.B.B.B.B.B.B.B.B.B.# > ` H o.+.o.o.H ` > # B.B.M.M.B.B.B.B.B.B.B.B.B.B.B.B.B.B.B.B.B.B.B.B.B.B.",
"B.B.B.B.B.B.B.B.B.B.B.B.B.B.B.B.B.B.B.B.B.B.B.F.B.F.> v K o.+.o.+.o.o.K z > F.B.B.B.B.B.B.B.B.B.B.B.B.B.B.B.B.B.B.B.B.B.B.B.B.B.",
"B.B.B.B.B.B.B.B.B.B.B.B.B.B.B.B.B.B.B.B.B.B.B.M.a.# e B o.+.o.+.o.+.o.o.B e # a.B.B.B.B.B.B.B.B.B.B.B.B.B.B.B.B.B.B.B.B.B.B.B.B.",
"B.B.B.B.B.B.B.B.B.B.B.B.B.B.B.B.M.M.M.C.B.B.B.B.H.# R Z o.o.+.o.+.$.+.o.Z R q T.a.B.B.B.B.B.B.B.B.B.B.B.B.B.B.B.B.B.B.B.B.B.B.B.",
"B.B.B.B.B.B.B.B.B.B.B.B.B.B.B.B.M.C.B.M.B.B.B.B.B.> K [ [ o.o.o.o.D ..o.o.D z > A.g.B.B.F.B.B.M.B.B.B.B.B.B.B.B.B.B.B.B.B.B.B.B.",
"B.B.B.B.B.B.B.B.B.B.B.B.B.B.B.B.M.H.B.B.G.c.G.B.# q K +.o.$.o.Z j C O.+.o.Z B u > Y.B.B.B.B.B.B.B.B.B.B.B.B.B.B.B.B.B.B.B.B.B.B.",
"B.B.B.B.B.B.B.B.B.B.B.B.B.B.B.B.C.M.B.B.c.c.z.a.= c K +.o.+.o.Z a ` ] J Z F K B m = g.B.B.B.B.B.B.B.B.B.B.B.B.B.B.B.B.B.B.B.B.B.",
"B.B.B.B.B.B.B.B.B.B.B.B.B.B.B.B.B.B.F.H.c.c.H.F.> ` J +.o.o.+.J u e e c ` B Z K z q F.B.B.B.k.k.B.B.B.B.B.B.B.B.B.B.B.B.B.B.B.B.",
"B.B.B.B.B.B.B.B.B.B.B.B.B.B.B.B.B.B.B.B.x.H.H.g.q ] J +.o...+.D C ( e e e a K K z > g.B.B.B.k.k.B.B.B.B.B.B.B.B.B.B.B.B.B.B.B.B.",
"B.B.B.B.B.B.B.B.B.B.B.B.B.B.B.B.B.B.B.B.B.B.B.g.q z D +.o.+.$.o.D D J ~ ` u ` c m = F.H.B.B.k.k.B.B.B.B.B.B.B.B.B.B.B.B.B.B.B.B.",
"B.B.B.B.B.B.B.B.B.B.B.B.B.B.B.B.B.B.B.B.B.B.B.g.q ` H +.+.o.+.o.$.o.$.D K a u q > g.a.H.B.B.k.k.B.B.B.B.B.B.B.B.B.B.B.B.B.B.B.B.",
"B.B.B.B.B.B.B.B.B.B.B.B.B.B.B.B.B.B.B.k.B.B.B.Y.q ` D o.o.+.o.+.o.+...o.Z K z q Y.a.B.B.B.B.B.B.B.B.B.B.B.B.B.B.B.B.B.B.B.B.B.B.",
"B.B.B.B.B.B.B.B.B.B.B.B.B.B.B.B.B.B.k.k.B.B.B.Y.q ] J o.+.o.+.o.+.o...+.o.H ` > A.B.B.B.B.B.B.B.B.B.B.B.B.B.B.B.B.B.B.B.B.B.B.B.",
"B.B.B.B.B.B.B.B.B.B.B.B.B.B.B.B.B.B.B.B.B.B.B.A.q ( D ..+.+.O.O.o.+.o.{ +.D ` q A.B.k.k.B.B.B.B.B.B.B.B.B.B.B.B.B.B.B.B.B.B.B.B.",
"B.B.B.B.B.B.B.B.B.B.B.B.B.B.B.B.B.B.B.B.B.B.B.F.> m W ! ! E K U J ~ ~ ! ! W m > F.B.k.k.B.B.B.B.B.B.B.B.B.B.B.B.B.B.B.B.B.B.B.B.",
"B.B.B.B.B.B.B.B.B.B.B.B.B.B.B.B.B.B.B.B.B.B.B.B.% 2 7 7 7 8 0 k c q 8 7 7 7 < % B.M.H.B.B.B.B.B.B.B.B.B.B.B.B.B.B.B.B.B.B.B.B.B.",
"B.B.B.B.B.B.B.B.B.B.B.B.B.B.B.B.B.a.B.B.B.B.B.M.2 &.=.2.2.3.4 , < 4 3.>.>.:.*.4 M.M.H.B.B.B.B.B.B.B.B.B.B.B.B.B.B.B.B.B.B.B.B.B.",
"B.B.B.B.B.B.B.B.B.B.B.B.B.B.B.B.B.B.B.B.B.B.H.R.s :.6.w.4.6.7.7.5.7.w.w.8.7.:.s R.B.B.B.B.B.B.B.B.B.B.B.B.B.B.B.B.B.B.B.B.B.B.B.",
"B.B.B.B.B.B.B.B.B.B.B.B.B.B.B.B.B.B.B.B.B.B.H.R.h >.w.u.t.t.4.4.i.4.e.t.u.8.5.h R.B.B.B.B.B.B.B.B.B.B.B.B.B.B.B.B.B.B.B.B.B.B.B.",
"B.B.B.B.B.B.B.B.B.B.B.B.B.B.B.B.B.B.B.B.B.B.M.R.h >.w.t.u.u.4.4.i.i.t.u.u.w.>.h R.k.B.B.B.B.B.B.B.B.B.B.B.B.B.B.B.B.B.B.B.B.B.B.",
"B.B.B.B.B.B.B.B.B.B.B.B.B.B.B.B.B.B.B.B.B.B.M.U.s :.6.w.9.9.4.4.w.6.w.w.w.6.:.s z.k.B.B.B.B.B.B.B.B.B.B.B.B.B.B.B.B.B.B.B.B.B.B.",
"B.B.B.B.B.B.B.B.B.B.B.B.B.B.B.B.B.B.B.B.B.B.M.M.4 *.:.>.>.>.2.2.1.2.>.>.2.:.*.4 z.B.B.B.B.B.B.B.B.B.B.B.B.B.B.B.B.B.B.B.B.B.B.B.",
"B.B.B.B.B.B.B.B.B.B.B.B.B.B.B.B.B.B.B.B.B.B.C.B.% 4 h h h s 4 4 4 4 h s h s 4 % M.B.B.B.B.B.B.B.B.B.B.B.B.B.B.B.B.B.B.B.B.B.B.B.",
"B.B.B.B.B.B.B.B.B.B.B.B.B.B.B.B.B.B.B.B.B.B.B.B.z.M.U.U.R.F.= >X:X# M.U.U.R.U.M.M.M.B.B.B.B.k.k.B.B.B.B.B.B.B.B.B.B.B.B.B.B.B.B.",
"B.B.B.B.B.B.B.B.B.B.B.B.B.B.B.B.B.B.B.B.B.B.B.B.B.B.B.B.M.g.> '.].> g.z.H.M.H.H.H.M.B.B.B.B.k.k.B.B.B.B.B.B.B.B.B.B.B.B.B.B.B.B.",
"B.B.B.B.B.B.B.B.B.B.B.B.B.B.B.B.B.B.B.B.B.B.B.B.B.B.B.B.B.p.> ].].> p.H.c.G.M.H.B.B.B.B.B.B.B.B.B.B.B.B.B.B.B.B.B.B.B.B.B.B.B.B.",
"B.B.B.B.B.B.B.B.B.B.B.B.B.B.B.B.B.B.B.B.B.B.B.B.B.B.B.B.B.p.> ].'.= a.c.c.c.k.H.B.B.B.B.B.B.B.B.B.B.B.B.B.B.B.B.B.B.B.B.B.B.B.B.",
"B.B.B.B.B.B.B.B.B.B.B.B.B.B.B.B.B.B.B.B.B.B.B.B.B.M.B.B.B.p.> ].'.> g.H.B.k.k.k.B.B.B.B.B.B.B.B.B.B.B.B.B.B.B.B.B.B.B.B.B.B.B.B.",
"B.B.B.B.B.B.B.B.B.B.B.B.B.B.B.B.B.B.B.B.B.B.B.B.M.M.k.H.H.g.= [.[.= h.H.B.H.c.k.B.B.B.B.B.B.B.B.B.B.B.B.B.B.B.B.B.B.B.B.B.B.B.B.",
"B.B.B.B.B.B.B.B.B.B.B.B.B.B.B.B.B.B.B.B.B.B.B.B.H.F.B.B.B.a.= }.}.# a.k.k.k.B.B.k.k.B.B.B.B.B.B.B.B.B.B.B.B.B.B.B.B.B.B.B.B.B.B.",
"B.B.B.B.B.B.B.B.B.B.B.B.B.B.B.B.F.B.B.B.B.B.B.F.M.C.C.B.M.a.o # # # B.B.k.G.B.B.k.k.B.B.B.B.B.B.B.B.B.B.B.B.B.B.B.B.B.B.B.B.B.B.",
"B.B.B.B.B.B.B.B.B.B.B.B.B.B.B.B.B.B.M.M.M.C.B.B.B.B.F.B.B.B.B.a.g.B.B.B.k.k.k.k.B.B.B.B.F.B.B.B.B.B.B.B.B.B.B.B.B.B.B.B.B.B.B.B.",
"B.B.B.B.B.B.B.B.B.B.B.B.B.B.B.B.B.H.P.C.M.M.B.B.B.B.B.B.B.B.B.B.B.B.B.B.k.k.k.k.B.B.B.B.F.B.B.B.B.B.B.B.B.B.B.B.B.B.B.B.B.B.B.B."
};
