/* XPM */
static char *characterYUKARII1675892910[] = {
/* columns rows colors chars-per-pixel */
"64 64 173 2 ",
"   c black",
".  c #010000",
"X  c #000100",
"o  c #010101",
"O  c #030000",
"+  c #000002",
"@  c #030002",
"#  c #040000",
"$  c #060000",
"%  c #070000",
"&  c #040002",
"*  c #000005",
"=  c #000007",
"-  c #080000",
";  c #0A0000",
":  c #0B0000",
">  c #0D0000",
",  c #0E0000",
"<  c #0F0000",
"1  c #0A0004",
"2  c #0B0005",
"3  c #0E0005",
"4  c #0F0005",
"5  c #000009",
"6  c #00000B",
"7  c #00000C",
"8  c #00000E",
"9  c #07000E",
"0  c #110000",
"q  c #120002",
"w  c #140000",
"e  c #140002",
"r  c #180000",
"t  c #190000",
"y  c #1C0000",
"u  c #1D0000",
"i  c #1F0000",
"p  c #000010",
"a  c #000012",
"s  c #040013",
"d  c #000019",
"f  c #371D1E",
"g  c #3B1B1C",
"h  c #3A1C1C",
"j  c #3E3E3E",
"k  c #3F3F3F",
"l  c #4E150E",
"z  c #441616",
"x  c #451717",
"c  c #471717",
"v  c #4F1313",
"b  c #491613",
"n  c #4C1510",
"m  c #4C1413",
"M  c #4E1413",
"N  c #4D1214",
"B  c #4E1315",
"V  c #491615",
"C  c #481617",
"Z  c #4C1415",
"A  c #47161C",
"S  c #411919",
"D  c #421819",
"F  c #401A19",
"G  c #40191A",
"H  c #41191A",
"J  c #42181A",
"K  c #441819",
"L  c #531210",
"P  c #531112",
"I  c #531113",
"U  c #501312",
"Y  c #501213",
"T  c #521212",
"R  c #521213",
"E  c #551112",
"W  c #551013",
"Q  c #541213",
"!  c #411820",
"~  c #373B54",
"^  c #373B56",
"/  c #363B5B",
"(  c #353B5D",
")  c #363A5D",
"_  c #353B5F",
"`  c #373B5E",
"'  c #363C5E",
"]  c #3A3958",
"[  c #3C385B",
"{  c #2F386F",
"}  c #3C3760",
"|  c #333B62",
" . c #353A60",
".. c #353A62",
"X. c #333A64",
"o. c #353A64",
"O. c #3A3860",
"+. c #333969",
"@. c #333A68",
"#. c #323A69",
"$. c #33396B",
"%. c #323A6B",
"&. c #32396D",
"*. c #33396D",
"=. c #31386F",
"-. c #32396F",
";. c #303A6F",
":. c #3A3F69",
">. c #383E6E",
",. c #303970",
"<. c #323970",
"1. c #313A71",
"2. c #323872",
"3. c #373F70",
"4. c #373E75",
"5. c #383E70",
"6. c #6E6963",
"7. c #6D6A63",
"8. c #6B6A66",
"9. c #6A6B66",
"0. c #6E6965",
"q. c #6D6A65",
"w. c #666A69",
"e. c #676B6A",
"r. c #666A6B",
"t. c #676C68",
"y. c #676B6C",
"u. c DimGray",
"i. c #696B68",
"p. c #686A69",
"a. c #6A6A68",
"s. c #6B6A68",
"d. c #68696B",
"f. c #6B696A",
"g. c #696B6A",
"h. c #6A6A6A",
"j. c gray42",
"k. c #6E6868",
"l. c #686D69",
"z. c #6A6C69",
"x. c #686C6B",
"c. c #6A6C6B",
"v. c #6B696C",
"b. c #696A6C",
"n. c #6A6A6C",
"m. c #6A6B6D",
"M. c #6B696E",
"N. c #6A696F",
"B. c #716766",
"V. c #706866",
"C. c #716967",
"Z. c #706768",
"A. c #686B70",
"S. c #BEA68A",
"D. c #BFA58C",
"F. c #B8A797",
"G. c #C5A481",
"H. c #C6A481",
"J. c #C5A483",
"K. c #EDC399",
"L. c #DDC7B0",
"P. c #DCC7B2",
"I. c #DDC7B2",
"U. c #DAC7B6",
"Y. c #D9C8B6",
"T. c #D6C8BB",
"R. c #D7C9BC",
"E. c #D6CABC",
"W. c #D6C8BF",
"Q. c #E7C5A2",
"!. c #E3C5A9",
"~. c #D7C9C0",
"^. c #D9C8C0",
/* pixels */
"g.g.g.g.g.g.g.g.g.g.g.g.g.g.g.g.g.g.g.g.g.g.g.g.g.f.g.g.g.e.g.g.g.g.g.g.g.g.g.g.g.g.g.g.g.g.g.g.g.g.g.g.g.g.g.g.g.g.g.g.g.g.g.g.",
"g.g.g.g.g.g.g.g.g.g.g.g.g.g.g.g.g.g.g.g.g.g.g.g.g.g.g.g.g.g.g.g.g.g.g.c.g.c.g.g.g.g.g.g.g.g.g.g.g.g.g.g.g.g.g.g.g.g.g.g.g.g.g.g.",
"g.g.g.g.g.g.g.g.g.g.g.g.g.g.g.g.g.g.g.g.g.g.g.g.g.g.g.g.g.g.O O O O e.g.g.g.g.c.g.g.g.g.g.g.g.g.g.g.g.g.g.g.g.g.g.g.g.g.g.g.g.g.",
"g.g.g.g.g.g.g.g.g.g.g.g.g.g.g.g.g.g.g.g.g.g.g.g.g.g.g.g.e.e.O O j O e.g.g.g.g.e.g.g.g.g.g.g.g.g.g.g.g.g.g.g.g.g.g.g.g.g.g.g.g.g.",
"g.g.g.g.g.g.g.g.g.g.g.g.g.g.g.g.g.g.g.g.g.g.g.g.g.g.g.g.g.g.O O O O g.g.g.g.c.g.g.g.g.g.g.g.g.g.g.g.g.g.g.g.g.g.g.g.g.g.g.g.g.g.",
"g.g.g.g.g.g.g.g.g.g.g.g.g.g.g.g.g.g.g.g.g.g.g.g.g.g.g.g.g.g.e.O O g.g.g.g.g.g.g.g.g.g.g.g.g.g.g.g.g.g.g.g.g.g.g.g.g.g.g.g.g.g.g.",
"g.g.g.g.g.g.g.g.g.g.g.g.g.g.g.g.g.g.g.g.g.g.g.g.g.g.g.g.g.e.O O O O e.g.c.e.g.g.g.g.g.g.g.g.g.g.g.g.g.g.g.g.g.g.g.g.g.g.g.g.g.g.",
"g.g.g.g.g.g.g.g.g.g.g.g.g.g.g.g.g.g.g.g.g.g.g.g.g.g.O O O O O O O O O O O O g.g.g.g.g.g.g.g.g.g.g.g.g.g.g.g.g.g.g.g.g.g.g.g.g.g.",
"g.g.g.g.g.g.g.g.g.g.g.g.g.g.g.g.g.g.g.g.g.g.e.g.O O O O O O O O O O O O O O O O t.y.t.e.g.g.g.g.g.g.g.g.g.g.g.g.g.g.g.g.g.g.g.g.",
"g.g.g.g.g.g.g.g.g.g.g.g.g.g.g.g.g.g.g.g.g.g.O O O O O O O O O O O O O O O O j O O O e.c.g.g.g.g.g.g.g.g.g.g.g.g.g.g.g.g.g.g.g.g.",
"g.g.g.g.g.g.g.g.g.g.g.g.g.g.g.g.g.c.g.g.g.O O O O O O O O O O O O O O O O O O j j O O g.g.g.e.e.g.g.g.g.g.g.g.g.g.g.g.g.g.g.g.g.",
"g.g.g.g.g.g.g.g.g.g.g.g.g.g.g.g.g.g.g.g.g.O O O O O O O O O O O O O O O O O O O j j O g.g.g.e.e.g.g.g.g.g.g.g.g.g.g.g.g.g.g.g.g.",
"g.g.g.g.g.g.g.g.g.g.g.g.g.g.g.g.c.g.g.g.o o O O O O O O O O O O O O O O O O O O O O O O t.y.g.g.g.g.g.g.g.g.g.g.g.g.g.g.g.g.g.g.",
"g.g.g.g.g.g.g.g.g.g.g.g.g.g.g.g.g.e.g.g.o o O O O O O O O O O O O O O O O O O O O O O O g.g.g.e.g.g.g.g.g.g.g.g.g.g.g.g.g.g.g.g.",
"g.g.g.g.g.g.g.g.g.g.g.g.g.g.g.g.d.c.c.t.O O O O O O O O O O O O O O O O O O O O O O O O c.g.c.g.g.g.g.g.g.g.g.g.g.g.g.g.g.g.g.g.",
"g.g.g.g.g.g.g.g.g.g.g.g.g.g.g.g.c.t.c.t.O O O O O O O O O O O O O O O O O O O O O O O O g.g.g.g.g.g.g.g.g.g.g.g.g.g.g.g.g.g.g.g.",
"g.g.g.g.g.g.g.g.g.g.g.g.g.g.g.g.g.g.g.f.O O O O O O O O O O O O O O O O O O O O O O O O d.g.e.e.g.g.g.g.g.g.g.g.g.g.g.g.g.g.g.g.",
"g.g.g.g.g.g.g.g.g.g.g.g.g.g.g.g.g.g.g.g.O O O O O O O O O O O O O O O O O O O O O O O O d.g.e.e.g.g.g.g.g.g.g.g.g.g.g.g.g.g.g.g.",
"g.g.g.g.g.g.g.g.g.g.g.g.g.g.g.g.g.g.g.g.e.O O O O O O O O O O O O * O O O O O O O O O t.g.g.g.g.g.g.g.g.g.g.g.g.g.g.g.g.g.g.g.g.",
"g.g.g.g.g.g.g.g.g.g.g.g.g.g.g.g.g.g.g.g.d.d.e.O O O O O O O O O O O O O O O O O O e.g.g.g.g.9.g.g.g.g.g.g.g.g.g.g.g.g.g.g.g.g.g.",
"g.g.g.g.g.g.g.g.g.g.g.g.g.g.g.g.c.c.d.c.g.g.g.g.O O O O * O O O O O O O O O O O e.g.d.y.c.t.g.g.g.g.g.g.g.g.g.g.g.g.g.g.g.g.g.g.",
"g.g.g.g.g.g.g.g.g.g.g.g.g.g.g.g.d.c.d.d.g.g.g.g.O O O O O O O O O O O O O O O O g.g.y.y.e.e.g.g.g.g.g.g.g.g.g.g.g.g.g.g.g.g.g.g.",
"g.g.g.g.g.g.g.g.g.g.g.g.g.g.g.g.c.g.c.g.g.g.g.g.g.g.O O O O O O O O O O O O O g.g.g.g.g.g.g.p.g.g.g.g.g.g.g.g.g.g.g.g.g.g.g.g.g.",
"g.g.g.g.g.g.g.g.g.g.g.g.g.g.g.g.g.g.g.g.g.g.g.e.e.y.O O O O O O O O O O * O e.g.e.c.g.g.g.g.g.g.g.g.g.g.g.g.g.g.g.g.g.g.g.g.g.g.",
"g.g.g.g.g.g.g.g.g.g.g.g.g.g.g.g.g.g.g.g.g.g.g.g.g.g.g.O O O O O O O O O O t.g.g.t.t.g.g.g.g.p.g.g.g.g.g.g.g.g.g.g.g.g.g.g.g.g.g.",
"g.g.g.g.g.g.g.g.g.g.g.g.g.g.g.g.g.g.g.g.g.g.g.g.g.g.g.g.O % % - - % O O t.c.g.g.t.t.g.g.g.g.g.g.g.g.g.g.g.g.g.g.g.g.g.g.g.g.g.g.",
"g.g.g.g.g.g.g.g.g.g.g.g.g.g.g.g.g.g.g.g.9.g.g.g.g.g.g.q.% F.!.Q.Q.!.F.% 9.g.g.c.9.g.g.g.g.g.g.g.g.g.g.g.g.g.g.g.g.g.g.g.g.g.g.g.",
"g.g.g.g.g.g.g.g.g.g.g.g.g.g.g.g.g.g.g.e.g.9.g.g.g.g.g.% % < J.K.K.J.< % % g.g.g.g.9.g.g.e.g.g.g.g.g.g.g.g.g.g.g.g.g.g.g.g.g.g.g.",
"g.g.g.g.g.g.g.g.g.g.g.g.g.g.g.g.g.g.g.g.g.g.9.g.g.f.% % % % D.J.J.S.% O % % g.e.g.g.9.c.g.g.g.g.g.g.g.g.g.g.g.g.g.g.g.g.g.g.g.g.",
"g.g.g.g.g.g.g.g.g.g.g.g.g.g.g.g.g.g.g.g.g.g.g.9.g.B.0 f < < t u u w < < f < V.9.g.g.g.9.g.g.g.g.g.g.g.g.g.g.g.g.g.g.g.g.g.g.g.g.",
"g.g.g.g.g.g.g.g.g.g.g.g.g.g.g.g.g.g.9.g.g.g.g.f.B.< K V x V n l l n b V V D < V.f.g.g.g.g.g.g.g.g.g.g.g.g.g.g.g.g.g.g.g.g.g.g.g.",
"g.g.g.g.g.g.g.g.g.g.g.g.g.g.g.g.g.g.g.9.g.g.g.% 0 F Z P P P P P P E P P P v g < - g.g.g.g.g.g.g.g.g.g.g.g.g.g.g.g.g.g.g.g.g.g.g.",
"g.g.g.g.g.g.g.g.g.g.g.g.g.g.g.g.g.g.g.g.g.g.% < K n P U P P P P P P P U P n Z F < % g.g.g.g.d.d.d.g.g.g.g.g.g.g.g.g.g.g.g.g.g.g.",
"g.g.g.g.g.g.g.g.g.g.g.g.g.g.g.g.g.g.g.g.9.% < F Z P U P P P P P P P P P P P E B J < % g.g.g.d.d.c.c.g.g.g.g.g.g.g.g.g.g.g.g.g.g.",
"g.g.g.g.g.g.g.g.g.g.g.g.g.g.g.g.g.9.g.q.B.< K Z R R P P P P P P P P P P P P P P B x < Z.f.g.g.g.g.g.g.g.g.g.g.g.g.g.g.g.g.g.g.g.",
"g.g.g.g.g.g.g.g.g.g.g.g.g.g.g.g.9.g.g.f.< F V P P P P P P P P P P P P P P P P P E B F < Z.g.g.g.g.g.g.g.g.g.g.g.g.g.g.g.g.g.g.g.",
"g.g.g.g.g.g.g.g.g.g.g.g.g.g.g.g.g.g.g.- F Z P P P P P P L L P P P P P P P P P P P R V F < g.g.g.g.g.g.g.g.g.g.g.g.g.g.g.g.g.g.g.",
"g.g.g.g.g.g.g.g.g.g.g.g.g.g.g.g.g.g.f.- z R P P P P P P L P P P P P P P P P P P R P R x - f.g.g.g.g.g.g.g.g.g.g.g.g.g.g.g.g.g.g.",
"g.g.g.g.g.g.g.g.g.g.g.g.g.g.g.g.e.e.g.- F Z P E L P P P P P P P P P R R P P P P E R B J - d.g.g.g.g.g.g.g.g.g.g.g.g.g.g.g.g.g.g.",
"g.g.g.g.g.g.g.g.g.g.g.g.g.g.g.g.e.g.g.V.w K Z n L P P P P P P P P P P P P P P P R Z K w Z.d.g.g.g.g.g.g.g.g.g.g.g.g.g.g.g.g.g.g.",
"g.g.g.g.g.g.g.g.g.g.g.g.g.g.g.g.g.g.9.g.B.< u n U L P P U L P P P P P P W P P P B u < Z.f.g.g.g.g.g.g.g.g.g.g.g.g.g.g.g.g.g.g.g.",
"g.g.g.g.g.g.g.g.g.g.g.g.g.g.g.g.g.g.g.9.g.- F B P P P P L L P E P P P P P P P B B F - g.g.g.g.g.g.g.g.g.g.g.g.g.g.g.g.g.g.g.g.g.",
"g.g.g.g.g.g.g.g.g.g.g.g.g.g.g.g.g.g.g.f.g.- x P P P E E E P P R W W E E P P R R P x < g.g.g.g.g.g.g.g.g.g.g.g.g.g.g.g.g.g.g.g.g.",
"g.g.g.g.g.g.g.g.g.g.g.g.g.g.g.g.g.g.g.g.g.- x P P P E E P P P P W W E E P W R W P x < g.g.g.g.g.g.g.g.g.g.g.g.g.g.g.g.g.g.g.g.g.",
"g.g.g.g.g.g.g.g.g.g.g.g.g.g.g.g.g.g.g.c.g.< x E E P P P P P P P P P P P P P R R P C - g.g.g.f.g.g.g.g.g.g.g.g.g.g.g.g.g.g.g.g.g.",
"g.g.g.g.g.g.g.g.g.g.g.g.g.g.g.g.g.g.g.c.j.- x n Z R Z P P P P P P P P P R n B B B x < j.g.g.g.g.g.g.g.g.g.g.g.g.g.g.g.g.g.g.g.g.",
"g.g.g.g.g.g.g.g.g.g.g.g.g.g.g.g.f.g.M.j.g.% g J J F F x B P R W P P P B x F J J F h % d.g.g.g.c.g.g.g.g.g.g.g.g.g.g.g.g.g.g.g.g.",
"g.g.g.g.g.g.g.g.g.g.g.g.g.g.g.g.g.g.d.d.g.* 3 3 4 3 q w ! A A C A A A ! 0 3 q 3 3 2 O d.g.g.g.c.g.g.g.g.g.g.g.g.g.g.g.g.g.g.g.g.",
"g.g.g.g.g.g.g.g.g.g.g.g.g.g.g.g.g.g.g.g.g.6 ] O.O.O.O.[ s 9 9 9 9 9 9 s [ O.} [ [ ] 6 f.d.d.g.g.g.g.g.g.g.g.g.g.g.g.g.g.g.g.g.g.",
"g.g.g.g.g.g.g.g.g.g.g.g.g.g.g.g.g.g.g.g.g.6 :.%.2.4.2.%.| _ _ / _ _ / ..%.2.4.2.2.:.6 g.M.d.g.g.g.g.g.g.g.g.g.g.g.g.g.g.g.g.g.g.",
"g.g.g.g.g.g.g.g.g.g.g.g.g.g.g.g.e.e.e.e.g.6 | { 2.%.2.{ 3.%.%.%.X.%.%.3.2.2.2.2.2...7 f.g.g.g.g.g.g.g.g.g.g.g.g.g.g.g.g.g.g.g.g.",
"g.g.g.g.g.g.g.g.g.g.g.g.g.g.g.g.e.e.e.g.g.6 _ %.>.%.#.#.%.%.{ ,.,.%.2.%.#.#.%.>.%._ 6 g.f.f.g.g.g.g.g.g.g.g.g.g.g.g.g.g.g.g.g.g.",
"g.g.g.g.g.g.g.g.g.g.g.g.g.g.g.g.g.g.g.g.c.6 ~ [ _ _ _ ..:.X.%.2.,.2.%.:._ _ _ _ _ ~ * g.g.g.g.f.g.g.g.g.g.g.g.g.g.g.g.g.g.g.g.g.",
"g.g.g.g.g.g.g.g.g.g.g.g.g.g.g.g.g.g.g.g.g.* a a 7 6 7 a d _ ..o.X.../ d a 7 7 7 a 7 * g.g.g.f.g.g.g.g.g.g.g.g.g.g.g.g.g.g.g.g.g.",
"g.g.g.g.g.g.g.g.g.g.g.g.g.g.g.g.g.g.g.g.g.e.A.d.% W.^.% M.6 6 7 7 7 6 d.% ~.W.- M.A.d.g.g.g.g.g.g.g.g.g.g.g.g.g.g.g.g.g.g.g.g.g.",
"g.g.g.g.g.g.g.g.g.g.g.g.g.g.g.g.g.g.g.g.g.g.g.7.< P.P.< 7.g.g.f.d.c.d.q.< I.I.< q.g.g.g.g.g.g.g.g.g.g.g.g.g.g.g.g.g.g.g.g.g.g.g.",
"g.g.g.g.g.g.g.g.g.g.g.g.g.g.g.g.g.g.g.g.g.g.g.7.< P.P.< 7.g.g.g.c.c.g.q.< P.P.< q.g.g.g.g.g.g.g.g.g.g.g.g.g.g.g.g.g.g.g.g.g.g.g.",
"g.g.g.g.g.g.g.g.g.g.g.g.g.g.g.g.g.g.g.g.g.g.g.7.- P.L.< V.g.9.g.g.g.g.7.< P.I.- q.g.g.g.g.g.g.g.g.g.g.g.g.g.g.g.g.g.g.g.g.g.g.g.",
"g.g.g.g.g.g.g.g.g.g.g.g.g.g.g.g.g.g.g.g.g.g.g.7.< P.I.< 7.g.f.g.g.g.g.7.< I.I.< q.g.g.9.g.g.g.g.g.g.g.g.g.g.g.g.g.g.g.g.g.g.g.g.",
"g.g.g.g.g.g.g.g.g.g.g.g.g.g.g.g.g.g.g.g.g.g.g.q.- U.U.< 7.g.g.g.g.g.g.q.- Y.U.- q.g.9.g.g.g.g.g.g.g.g.g.g.g.g.g.g.g.g.g.g.g.g.g.",
"g.g.g.g.g.g.g.g.g.g.g.g.g.g.g.g.g.g.g.g.g.g.g.q.- T.W.% q.g.g.g.g.g.g.9.% W.T.% q.g.g.g.g.g.g.c.g.g.g.g.g.g.g.g.g.g.g.g.g.g.g.g.",
"g.g.g.g.g.g.g.g.g.g.g.g.g.g.g.g.g.g.g.g.g.g.g.g.% % % O f.g.g.c.g.g.g.g.% % % O g.g.g.g.g.g.g.c.g.g.g.g.g.g.g.g.g.g.g.g.g.g.g.g.",
"g.g.g.g.g.g.g.g.g.g.g.g.g.g.g.g.g.g.g.g.g.g.g.g.g.q.g.9.f.g.g.g.g.g.g.g.9.9.9.9.g.g.g.g.g.g.c.d.g.g.g.g.g.g.g.g.g.g.g.g.g.g.g.g.",
"g.g.g.g.g.g.g.g.g.g.g.g.g.g.g.g.g.g.g.g.g.g.g.g.g.c.d.d.M.d.g.g.g.g.g.g.g.e.c.c.g.g.g.g.9.g.d.d.g.g.g.g.g.g.g.g.g.g.g.g.g.g.g.g."
};
