/* XPM */
static char *_fcb9b9047b540c1e6c533c206d3356eD1nLLxBszrV28yU8[] = {
/* columns rows colors chars-per-pixel */
"64 64 147 2 ",
"   c #776E37",
".  c #726F38",
"X  c #736D3D",
"o  c #726E3F",
"O  c #756D3C",
"+  c #776C3F",
"@  c #6E6E48",
"#  c #746D41",
"$  c #726D47",
"%  c #726C48",
"&  c #716D4A",
"*  c #716C4C",
"=  c #716E4D",
"-  c #716C4E",
";  c #706D4E",
":  c #716C4F",
">  c #6E6D51",
",  c #6E6C53",
"<  c #6D6B54",
"1  c #6B6D55",
"2  c #6B6D57",
"3  c #6D6D55",
"4  c #6E6C55",
"5  c #6D6C57",
"6  c #6B6D58",
"7  c #6B6C5A",
"8  c #6D6C58",
"9  c #6D6C5A",
"0  c #6B6B5F",
"q  c #6D6B5C",
"w  c #6A6C5F",
"e  c #706C51",
"r  c #706C53",
"t  c #706B55",
"y  c #6B6B61",
"u  c #6A6C61",
"i  c #6A6B65",
"p  c #696B66",
"a  c #6A6B66",
"s  c #676B6A",
"d  c #696B68",
"f  c #686A69",
"g  c #6A6A68",
"h  c #696B6A",
"j  c #6A6A6A",
"k  c #6A6C6B",
"l  c #696A6C",
"z  c #A7962E",
"x  c #A9962D",
"c  c #A8972F",
"v  c #A79533",
"b  c #A69732",
"n  c #A89630",
"m  c #A89632",
"M  c #A89536",
"N  c #A59830",
"B  c #A59832",
"V  c #A49834",
"C  c #A5943C",
"Z  c #9E9552",
"A  c #9B955B",
"S  c #9D9459",
"D  c #9B945E",
"F  c #9D945D",
"G  c #9C955F",
"H  c #A59444",
"J  c #A49446",
"K  c #A19549",
"L  c #A49449",
"P  c #A2934E",
"I  c #A29350",
"U  c #A19352",
"Y  c #A29352",
"T  c #9B9565",
"R  c #CDBF5C",
"E  c #D1BE57",
"W  c #D0BF57",
"Q  c #D0BE58",
"!  c #D1BE58",
"~  c #D0BE5C",
"^  c #C8BF60",
"/  c #CEBD61",
"(  c #CCBF61",
")  c #CDBE63",
"_  c #CABF65",
"`  c #CDBD66",
"'  c #C7BF6A",
"]  c #C7BF6C",
"[  c #C7BE6F",
"{  c #C9BE6C",
"}  c #CDBC6E",
"|  c #D0BC65",
" . c #C7BE71",
".. c #C7BD75",
"X. c #C6BE75",
"o. c #C9BD73",
"O. c #C8BE77",
"+. c #C6BD7A",
"@. c #C3BE7C",
"#. c #CAC257",
"$. c #CEC055",
"%. c #CDC057",
"&. c #CCC157",
"*. c #C7C15F",
"=. c #CAC158",
"-. c #CDC258",
";. c #CCC05A",
":. c #CDC05A",
">. c #C9C15C",
",. c #C9C15E",
"<. c #C9C15F",
"1. c #CCC05C",
"2. c #CCC05E",
"3. c #C7C161",
"4. c #C7C163",
"5. c #C9C061",
"6. c #CAC061",
"7. c #C8C260",
"8. c #C9C063",
"9. c #C9C065",
"0. c #C8C166",
"q. c #C7C068",
"w. c #C6C06A",
"e. c #C7C16D",
"r. c #FFF18E",
"t. c #FFEF93",
"y. c #FBF190",
"u. c #F9F391",
"i. c #FBF391",
"p. c #FBF293",
"a. c #FCF291",
"s. c #FEF193",
"d. c #FCF293",
"f. c #FCF491",
"g. c #F8F395",
"h. c #F9F297",
"j. c #FBF297",
"k. c #FAF39B",
"l. c #F7F2A1",
"z. c #F4F1AC",
"x. c #F4F1AE",
"c. c #F5F0B0",
"v. c #F4F0B1",
"b. c #F3F1B4",
"n. c #F2F0B5",
"m. c #F2F0B7",
"M. c #F1EEC3",
/* pixels */
"h h h h h h h h h h h h h h h h h h h h h h h h h h h h h h h h h h h h h h h h h h h h h h h h h h h h h h h h h h h h h h h h ",
"h h h h h h h h h h h h h h h h h h h h h h h h h h h h h h h h h h h h h h h h h h h h h h h h h h h h h h h h h h h h h h h h ",
"h h h h h h h h h h h h h h h h h h h h h h h h h h h h h h h h h h h h h h h h h h h h h h h h h h h h h h h h h h h h h h h h ",
"h h h h h h h h h h h h h h h h h h h h h h h h h h h h h h h h h h h h h h h h h h h h h h h h h h h h h h h h h h h h h h h h ",
"h h h h h h h h h h h h h h h h h h h h h h h h h h h h h h h h h h h h h h h h h h h h h h h h h h h h h h h h h h h h h h h h ",
"h h h h h h h h h h h h h h h h h h h h h h h h h h h h h h h h h h h h h h h h h h h h h h h h h h h h h h h h h h h h h h h h ",
"h h h h h h h h h h h h h h h h h h h h h h h h h h h h h h h h h h h h h h h h h h h h h h h h h h h h h h h h h h h h h h h h ",
"h h h h h h h h h h h h h h h h h h h h h h h h h h h h h h h h h h h h h h h h h h h h h h h h h h h h h h h h h h h h h h h h ",
"h h h h h h h h h h h h h h h h h h h h h h h h h h h h h h h h h h h h h h h h h h h h h h h h h h h h h h h h h h h h h h h h ",
"h h h h h h h h h h h h h h h h h h h h h h h h h h h h h h h h h h h h h h h h h h h h h h h h h h h h h h h h h h h h h h h h ",
"h h h h h h h h h h h h h h h h h h h h h h h h h h h h h h h h h h h h h h h h h h h h h h h h h h h h h h h h h h h h h h h h ",
"h h h h h h h h h h h h h h h h h h h h h h h h h h h h h h h h h h h h h h h h h h h h h h h h h h h h h h h h h h h h h h h h ",
"h h h h h h h h h h h h h h h h h h h h h h h h h h h h h h h h h h h h h h h h h h h h h h h h h h h h h h h h h h h h h h h h ",
"h h h h h h h h h h h h h h h h h h h h h h h h h h h h h h h h h h h h h h h h h h h h h h h h h h h h h h h h h h h h h h h h ",
"h h h h h h h h h h h h h h h h h h h h h h h h h h h h h h h h h h h h h h h h h h h h h h h h h h h h h h h h h h h h h h h h ",
"h h h h h h h h h h h h h h h h h h h h h h h h h h h h h h h h h h h h h h h h h h h h h h h h h h h h h h h h h h h h h h h h ",
"h h h h h h h h h h h h h h h h h h h h h h h h h h h h h h h h s s h h h h h h p h h h h h h h h h h h h h h h h h h h h h h h ",
"h h h h h h h h h h h h h h h h h h h h h h h h h h h h h h h h s s h h h h h h h p h h h h h h h h h h h h h h h h h h h h h h ",
"h h h h h h h h h h h h h h h h h h h h h h h p h j h h h h h h h h s s h h h h p h h h h h j j h h h h h h h h h h h h h h h h ",
"h h h h h h h h h h h h h h h h h h h h j h p h h h h h h h h h h h s s h h h h h p h h h p h h h h h h h h h h h h h h h h h h ",
"h h h h h h h h h h h h h h h h h h h h h h h h h h h h h h h h h h l l h h h h h h h h h h h h h h h h h h h h h h h h h h h h ",
"h h h h h h h h h h h h h h h h h h h h h h h h h h h h h h h h h h l l h h h h h h h h h h h h h h h h h h h h h h h h h h h h ",
"h h h h h h h h h h h h h h h h h h h h h h h h h h h h h h h h s s h h h h s s h h h h h h h h h h h h h h h h h h h h h h h h ",
"h h h h h h h h h h h h h h h h h h h h h h h h h h h p u q 4 4 2 2 0 p p h s h h h h h h h h h h h h h h h h h h h h h h h h h ",
"h h h h h h h h h h h h h h h h h h h h l l j j h h h y - X v.x.z.n.@ 7 p h p h h h h h h h s s h h h h h h h h h h h h h h h h ",
"h h h h h h h h h h h h h h h h h h h h l l j h h p y e G X.w.3.R ' v.M.5 p h p h h h h h h h h h h h h h h h h h h h h h h h h ",
"h h h h h h h h h h h h h h h h h h h h h h h h h y - D  .0.g.p.V V R ..$ q p h h h h h h h h h h h h h h h h h h h h h h h h h ",
"h h h h h h h h h h h h h h h h h h h h h h h h h 9 O o.0.i.3.*.R W z / S & 0 s h h h h h h h h h h h h h h h h h h h h h h h h ",
"h h h h h h h h h h h h h h h h h h h h h h h h h 4 P / p.3.3.u.p.1.E v ] m.6 h h h h h l l h h h h h h h h h h h h h h h h h h ",
"h h h h h h h h h h h h h h h h h h h h h h h h h e H R p.3.=.*.3.p.! c 5.z.4 h h h h h l l h h h h h h h h h h h h h h h h h h ",
"h h h h h h h h h h h h h h h h h h h h h h h h h > { W p.3.#.=.3.i.! c 5.z.4 l h h h h h h h h h h h h h h h h h h h h h h h h ",
"h h h h h h h h h h h h h h h h h h h h h h h h k > ] -.r.*.#.#.*.i.! c 5.z.6 l h h h h h h h h h h h h h h h h h h h h h h h h ",
"h h h h h h h h h h h h h h h h h h h h h h h h s > { -.p.*.#.#.<.i.! c 5.x.4 h h h h h s s h h h h h h h h h h h h h h h h h h ",
"h h h h h h h h h h h h h h h h h h h h h h h h h < L R p.*.#.#.<.p.E c 5.x.4 h h h h h s s h h h h h h h h h h h h h h h h h h ",
"h h h h h h h h h h h h h h h h h h h p h h h h h < Z _ g.<.W $.-.r.E v 0.m.6 h h h h h h h h h h h h h h h h h h h h h h h h h ",
"h h h h h h h h h h h h h h h h j h p h h h h h h 4   ] k.3.R V V R ! M ] . 2 d h h h h h h h h h h h h h h h h h h h h h h h h ",
"h h h h h h h h h h h h h h h h h h h h h h h h h q # +.] g.3.R 5./ M C +.X 9 h h h h h s h h h h h h h h h h h h h h h h h h h ",
"h h h h h h h h h h h h h h h h h h h h h h h h h y e T @.l.k.y.p.s.t.} G & y p h h h h s h h h h h h h h h h h h h h h h h h h ",
"h h h h h h h h h h h h h h h h h h h h h h h h h h y 4 * S ` E E ! | U * 0 p h j j h h h h h h h h h h h h h h h h h h h h h h ",
"h h h h h h h h h h h h h h h h h h h h h h h h l l h p 9 % U H J L U + 9 h h h j h h h h h h h h h h h h h h h h h h h h h h h ",
"h h h h h h h h h h h h h h h h h h h h h s h h h h h h p q 5 e e r t q p h h h h h h h h h h l h h h h h h h h h h h h h h h h ",
"h h h h h h h h h h h h h h h h h h h h s s h h h h h h h h h h h h h h h h h h h h h h h h l l h h h h h h h h h h h h h h h h ",
"h h h h h h h h h h h h h h h h h h h h h h h h h h h h h h h h h h h h h h h h h h h h p h h h h h h h h h h h h h h h h h h h ",
"h h h h h h h h h h h h h h h h h h h h h h h h h h h h h h h h h h h h h h h h j h h h h p h h h h h h h h h h h h h h h h h h ",
"h h h h h h h h h h h h h h h h h h h h h h h h h h h h h h j j h h h h h h p h h h j j h h h h h h h h h h h h h h h h h h h h ",
"h h h h h h h h h h h h h h h h h h h h h h h h h h h h h h j j h h h h h h h h h h j j h h h h h h h h h h h h h h h h h h h h ",
"h h h h h h h h h h h h h h h h h h h h h h h h h h h h h h h h h h h h h h h h p h h h h h h h h h h h h h h h h h h h h h h h ",
"h h h h h h h h h h h h h h h h h h h h h h h h h h h h h h h h h h p h h l h h h p h h h h h h h h h h h h h h h h h h h h h h ",
"h h h h h h h h h h h h h h h h h h h h h h h h h h h h h h h h h h h h h h h h h h h h h h h h h h h h h h h h h h h h h h h h ",
"h h h h h h h h h h h h h h h h h h h h h h h h h h h h h h h h h h h h h h h h h h h h h h h h h h h h h h h h h h h h h h h h ",
"h h h h h h h h h h h h h h h h h h h h h h h h h h h h h h h h h h h h h h h h h h h h h h h h h h h h h h h h h h h h h h h h ",
"h h h h h h h h h h h h h h h h h h h h h h h h h h h h h h h h h h h h h h h h h h h h h h h h h h h h h h h h h h h h h h h h ",
"h h h h h h h h h h h h h h h h h h h h h h h h h h h h h h h h h h h h h h h h h h h h h h h h h h h h h h h h h h h h h h h h ",
"h h h h h h h h h h h h h h h h h h h h h h h h h h h h h h h h h h h h h h h h h h h h h h h h h h h h h h h h h h h h h h h h ",
"h h h h h h h h h h h h h h h h h h h h h h h h h h h h h h h h h h h h h h h h h h h h h h h h h h h h h h h h h h h h h h h h ",
"h h h h h h h h h h h h h h h h h h h h h h h h h h h h h h h h h h h h h h h h h h h h h h h h h h h h h h h h h h h h h h h h ",
"h h h h h h h h h h h h h h h h h h h h h h h h h h h h h h h h h h h h h h h h h h h h h h h h h h h h h h h h h h h h h h h h ",
"h h h h h h h h h h h h h h h h h h h h h h h h h h h h h h h h h h h h h h h h h h h h h h h h h h h h h h h h h h h h h h h h ",
"h h h h h h h h h h h h h h h h h h h h h h h h h h h h h h h h h h h h h h h h h h h h h h h h h h h h h h h h h h h h h h h h ",
"h h h h h h h h h h h h h h h h h h h h h h h h h h h h h h h h h h h h h h h h h h h h h h h h h h h h h h h h h h h h h h h h ",
"h h h h h h h h h h h h h h h h h h h h h h h h h h h h h h h h h h h h h h h h h h h h h h h h h h h h h h h h h h h h h h h h ",
"h h h h h h h h h h h h h h h h h h h h h h h h h h h h h h h h h h h h h h h h h h h h h h h h h h h h h h h h h h h h h h h h ",
"h h h h h h h h h h h h h h h h h h h h h h h h h h h h h h h h h h h h h h h h h h h h h h h h h h h h h h h h h h h h h h h h ",
"h h h h h h h h h h h h h h h h h h h h h h h h h h h h h h h h h h h h h h h h h h h h h h h h h h h h h h h h h h h h h h h h "
};
