/* XPM */
static char *f9028badd75443819e94a150f3cd3591O4TEgDEgMdDXEDYT[] = {
/* columns rows colors chars-per-pixel */
"64 64 144 2 ",
"   c #776E35",
".  c #796C37",
"X  c #756E3A",
"o  c #736C3E",
"O  c #776C3F",
"+  c #746E3E",
"@  c #786B3F",
"#  c #6E6E48",
"$  c #726D43",
"%  c #726D45",
"&  c #746C48",
"*  c #726B4E",
"=  c #706D4C",
"-  c #716C4E",
";  c #6F6B50",
":  c #6D6A57",
">  c #6D6D55",
",  c #6E6C55",
"<  c #6D6C57",
"1  c #6E6C57",
"2  c #6A6B59",
"3  c #6E6B58",
"4  c #6B6D58",
"5  c #6B6C5A",
"6  c #6D6C58",
"7  c #6D6C5A",
"8  c #6D6B5C",
"9  c #6E6B5C",
"0  c #6D6B5F",
"q  c #6B6C5E",
"w  c #6A6C5F",
"e  c #706C51",
"r  c #706C53",
"t  c #6B6B61",
"y  c #6A6B63",
"u  c #6A6C61",
"i  c #6C6C62",
"p  c #6A6B65",
"a  c #696B66",
"s  c #6A6B66",
"d  c #6B6C66",
"f  c #676B6A",
"g  c #696B68",
"h  c #696B6A",
"j  c #6A6A6A",
"k  c #6A6C6B",
"l  c #696A6C",
"z  c #A7962A",
"x  c #A8972B",
"c  c #AC952B",
"v  c #AB962D",
"b  c #A9962F",
"n  c #A8972F",
"m  c #A6982F",
"M  c #A69732",
"N  c #A89630",
"B  c #A99630",
"V  c #A59832",
"C  c #A99830",
"Z  c #A2973B",
"A  c #9F9452",
"S  c #9F9558",
"D  c #9E9459",
"F  c #9B945D",
"G  c #9B945E",
"H  c #A39346",
"J  c #A59444",
"K  c #A49544",
"L  c #A29449",
"P  c #A2944B",
"I  c #A49449",
"U  c #A1954D",
"Y  c #A19352",
"T  c #A29453",
"R  c #A29254",
"E  c #9E9260",
"W  c #CEBF5A",
"Q  c #CEBE5C",
"!  c #CDBF5E",
"~  c #CCBF5F",
"^  c #CEBE5E",
"/  c #D1BF51",
"(  c #D0BF53",
")  c #D1BF53",
"_  c #D3BE53",
"`  c #D4BD53",
"'  c #D0BD54",
"]  c #D1BE55",
"[  c #D3BE55",
"{  c #D0BF57",
"}  c #D5BE54",
"|  c #D1BE58",
" . c #D0BE5C",
".. c #CEBF62",
"X. c #CABF65",
"o. c #C9BF66",
"O. c #CDBD65",
"+. c #CDBD66",
"@. c #C7BF6A",
"#. c #C7BE6F",
"$. c #CABE6A",
"%. c #C9BE6C",
"&. c #CABD6F",
"*. c #C7BE71",
"=. c #C7BE73",
"-. c #C6BE75",
";. c #CDC151",
":. c #CEC151",
">. c #CDC153",
",. c #CEC053",
"<. c #CCC155",
"1. c #CDC155",
"2. c #CEC254",
"3. c #CDC057",
"4. c #CCC157",
"5. c #CAC158",
"6. c #CDC058",
"7. c #CDC05A",
"8. c #C9C15C",
"9. c #C9C15F",
"0. c #CAC05F",
"q. c #CCC05E",
"w. c #D0C051",
"e. c #C7C161",
"r. c #C9C061",
"t. c #CAC061",
"y. c #C9C063",
"u. c #C9C065",
"i. c #FFF38B",
"p. c #FFF18C",
"a. c #FBF391",
"s. c #FBF293",
"d. c #FCF293",
"f. c #F9F395",
"g. c #F9F297",
"h. c #F9F29A",
"j. c #F9F19E",
"k. c #F4F1AC",
"l. c #F4F1AE",
"z. c #F9F0AB",
"x. c #F4EEBC",
"c. c #F4F0B1",
"v. c #F2F0B5",
"b. c #F0EFC3",
/* pixels */
"h h h h h h h h h h h h h h h h h h h h h h h h h h h h h h h h h h h h h h h h h h h h h h h h h h h h h h h h h h h h h h h h ",
"h h h h h h h h h h h h h h h h h h h h h h h h h h h h h h h h h h h h h h h h h h h h h h h h h h h h h h h h h h h h h h h h ",
"h h h h h h h h h h h h h h h h h h h h h h h h h h h h h h h h h h h h h h h h h h h h h h h h h h h h h h h h h h h h h h h h ",
"h h h h h h h h h h h h h h h h h h h h h h h h h h h h h h h h h h h h h h h h h h h h h h h h h h h h h h h h h h h h h h h h ",
"h h h h h h h h h h h h h h h h h h h h h h h h h h h h h h h h h h h h h h h h h h h h h h h h h h h h h h h h h h h h h h h h ",
"h h h h h h h h h h h h h h h h h h h h h h h h h h h h h h h h h h h h h h h h h h h h h h h h h h h h h h h h h h h h h h h h ",
"h h h h h h h h h h h h h h h h h h h h h h h h h h h h h h h h h h h h h h h h h h h h h h h h h h h h h h h h h h h h h h h h ",
"h h h h h h h h h h h h h h h h h h h h h h h h h h h h h h h h h h h h h h h h h h h h h h h h h h h h h h h h h h h h h h h h ",
"h h h h h h h h h h h h h h h h h h h h h h h h h h h h h h h h h h h h h h h h h h h h h h h h h h h h h h h h h h h h h h h h ",
"h h h h h h h h h h h h h h h h h h h h h h h h h h h h h h h h h h h h h h h h h h h h h h h h h h h h h h h h h h h h h h h h ",
"h h h h h h h h h h h h h h h h h h h h h h h h h h h h h h h h h h h h h h h h h h h h h h h h h h h h h h h h h h h h h h h h ",
"h h h h h h h h h h h h h h h h h h h h h h h h h h h h h h h h h h h h h h h h h h h h h h h h h h h h h h h h h h h h h h h h ",
"h h h h h h h h h h h h h h h h h h h h h h h h h h h h h h h h h h h h h h h h h h h h h h h h h h h h h h h h h h h h h h h h ",
"h h h h h h h h h h h h h h h h h h h h h h h h h h h h h h h h h h h h h h h h h h h h h h h h h h h h h h h h h h h h h h h h ",
"h h h h h h h h h h h h h h h h h h h h h h h h h h h h h h h h h h h h h h h h h h h h h h h h h h h h h h h h h h h h h h h h ",
"h h h h h h h h h h h h h h h h h h h h h h h h h h h h h h h h h h h h h h h h h h h h h h h h h h h h h h h h h h h h h h h h ",
"h h h h h h h h h h h h h h h h h h l l h h h h h p h h h h h h h h h h h h f p p f h h h h f f h h h h h h h h h h h h h h h h ",
"h h h h h h h h h h h h h h h h h h l l h h h h h p h h h h h h h h h h h h h h h p h h h h f f h h h h h h h h h h h h h h h h ",
"h h h h h h h h h h h h h h h h h h h h h h h h h h h h h h h h h h h h h h h h h h h h h h h h h h h h h h h h h h h h h h h h ",
"h h h h h h h h h h h h h h h h h h h h h h h h h h h h h h h h h h h h h h h h h h h h h h h h h h h h h h h h h h h h h h h h ",
"h h h h h h h h h h h h h h h h h h h h h h h h h h h h h h h h h h h h h h h h h h h h h h h h h h h h h h h h h h h h h h h h ",
"h h h h h h h h h h h h h h h h h h h h h h h h h h h h h h h h h h h h h h h h h h h h h h h h h h h h h h h h h h h h h h h h ",
"h h h h h h h h h h h h h h h h h h h h h h h h h h h h h h l l h f h h h h l l h h h h h h h h h h h h h h h h h h h h h h h h ",
"h h h h h h h h h h h h h h h h h h h h h h h h h h h h p q 2 4 : 3 3 t p h l l h h h h h h h h h h h h h h h h h h h h h h h h ",
"h h h h h h h h h h h h h h h h h h l l l l h h h h h d 4 # v.k.k.c.+ * t h h h h h h h h h h h h h h h h h h h h h h h h h h h ",
"h h h h h h h h h h h h h h h h h h l l l l h h h h p 2 b.k.@.9.r.o.=.G ; t p h h h h h h h p h h h h h h h h h h h h h h h h h ",
"h h h h h h h h h h h h h h h h h h h h h h f f h p u # -...M C b M ! %.G - t h h h f f h h h h h h h h h h h h h h h h h h h h ",
"h h h h h h h h h h h h h h h h h h h h h h f f h p 1 x.u.z [ [ [ ' z W &.X 7 h h h f f h h h h h h h h h h h h h h h h h h h h ",
"h h h h h h h h h h h h h h h h h h h h h h h h l q % z.Z 6.W p.i.4.[ b  .P 1 h h h h h h h h h h h h h h h h h h h h h h h h h ",
"h h h h h h h h h h h h h h h h h h h h h h h h l 3 D $.d.q.V W 5.4.' c [ K e h h h h h h h h h h h h h h h h h h h h h h h h h ",
"h h h h h h h h h h h h h h h h h h h h h h h h h r P  .d.9.B / 4.:.[ c w.K e f h h h h h f h h h h h h h h h h h h h h h h h h ",
"h h h h h h h h h h h h h h h h h h h h h h h h h ; J 6.d.9.b / :.:.} c } J e f h h h h f f h h h h h h h h h h h h h h h h h h ",
"h h h h h h h h h h h h h h h h h h f f h h h h h ; J | d.9.B / :.:.} c / J e h h h h h h h h h h h h h h h h h h h h h h h h h ",
"h h h h h h h h h h h h h h h h h h f h h h h h h e I  .a.r.B / :.:./ b | P e h h h h h h h h h h h h h h h h h h h h h h h h h ",
"h h h h h h h h h h h h h h h h h h h h h h h h h 7 Y O.h.9.B } :.w.w.B ..A 1 h l l h h h h h h h h h h h h h h h h h h h h h h ",
"h h h h h h h h h h h h h h h h h p h h h h h h h : . H h.e.6.m m 4.:.W $.  7 h l l h h h h h h h h h h h h h h h h h h h h h h ",
"h h h h h h h h h h h h h h h h h h h h h h l l h 3 $ R j.f.r.r.9.9.4.q.=.o 3 h h h h h h h h h h h h h h h h h h h h h h h h h ",
"h h h h h h h h h h h h h h h h h h h h h h l l h i e R &.u.s.a.d.a.r.=.G - t h h h h h h h h h h h h h h h h h h h h h h h h h ",
"h h h h h h h h h h h h h h h h l l h h h h h h h p s * Y O.! | [ O.D % 1 u p f h h h h h h h h h h h h h h h h h h h h h h h h ",
"h h h h h h h h h h h h h h h h l h h h h h h h h h l 9 @ Y I J J Y & 3 p l f f h h h h h h h h h h h h h h h h h h h h h h h h ",
"h h h h h h h h h h h h h h h h h h h h f f h h h h h s 9 : ; e ; 1 0 d p f h h h h h h h h h h h h h h h h h h h h h h h h h h ",
"h h h h h h h h h h h h h h h h h h h h f f h h h h h h h h h h h h h h h h h h h h h h h h h h h h h h h h h h h h h h h h h h ",
"h h h h h h h h h h h h h h h h h h h h h h h h h h h h h h h f h h h h h h h h h h h h h h h h h h h h h h h h h h h h h h h h ",
"h h h h h h h h h h h h h h h h h h p h h h h h h h h h h h h f h h h h h h h h h h h h h h h h h h h h h h h h h h h h h h h h ",
"h h h h h h h h h h h h h h h h h h h h h h h h h h h h h h h h h h f f h h h h h h h h h h h h h h h h h h h h h h h h h h h h ",
"h h h h h h h h h h h h h h h h h h h h h h h h h h h h h h h h h h f f h h h h h h h h h h h h h h h h h h h h h h h h h h h h ",
"h h h h h h h h h h h h h h h h h h h h h h h h l l h h h h h h h h h h h h h h h h h h h h l l h h h h h h h h h h h h h h h h ",
"h h h h h h h h h h h h h h h h h h h h h h h h l l h h h h h h h h h h h h h h h h h h h h l l h h h h h h h h h h h h h h h h ",
"h h h h h h h h h h h h h h h h h h h h h h h h h h h h h h h h h h h h h h h h h h h h h h h h h h h h h h h h h h h h h h h h ",
"h h h h h h h h h h h h h h h h h h h h h h h h h h h h h h h h h h h h h h h h h h h h h h h h h h h h h h h h h h h h h h h h ",
"h h h h h h h h h h h h h h h h h h h h h h h h h h h h h h h h h h h h h h h h h h h h h h h h h h h h h h h h h h h h h h h h ",
"h h h h h h h h h h h h h h h h h h h h h h h h h h h h h h h h h h h h h h h h h h h h h h h h h h h h h h h h h h h h h h h h ",
"h h h h h h h h h h h h h h h h h h h h h h h h h h h h h h h h h h h h h h h h h h h h h h h h h h h h h h h h h h h h h h h h ",
"h h h h h h h h h h h h h h h h h h h h h h h h h h h h h h h h h h h h h h h h h h h h h h h h h h h h h h h h h h h h h h h h ",
"h h h h h h h h h h h h h h h h h h h h h h h h h h h h h h h h h h h h h h h h h h h h h h h h h h h h h h h h h h h h h h h h ",
"h h h h h h h h h h h h h h h h h h h h h h h h h h h h h h h h h h h h h h h h h h h h h h h h h h h h h h h h h h h h h h h h ",
"h h h h h h h h h h h h h h h h h h h h h h h h h h h h h h h h h h h h h h h h h h h h h h h h h h h h h h h h h h h h h h h h ",
"h h h h h h h h h h h h h h h h h h h h h h h h h h h h h h h h h h h h h h h h h h h h h h h h h h h h h h h h h h h h h h h h ",
"h h h h h h h h h h h h h h h h h h h h h h h h h h h h h h h h h h h h h h h h h h h h h h h h h h h h h h h h h h h h h h h h ",
"h h h h h h h h h h h h h h h h h h h h h h h h h h h h h h h h h h h h h h h h h h h h h h h h h h h h h h h h h h h h h h h h ",
"h h h h h h h h h h h h h h h h h h h h h h h h h h h h h h h h h h h h h h h h h h h h h h h h h h h h h h h h h h h h h h h h ",
"h h h h h h h h h h h h h h h h h h h h h h h h h h h h h h h h h h h h h h h h h h h h h h h h h h h h h h h h h h h h h h h h ",
"h h h h h h h h h h h h h h h h h h h h h h h h h h h h h h h h h h h h h h h h h h h h h h h h h h h h h h h h h h h h h h h h ",
"h h h h h h h h h h h h h h h h h h h h h h h h h h h h h h h h h h h h h h h h h h h h h h h h h h h h h h h h h h h h h h h h "
};
