/* XPM */
static char *_96f33d7506f4e0289881f65c2e31984XHOY9p7uOQ0Z6PIr[] = {
/* columns rows colors chars-per-pixel */
"64 64 122 2 ",
"   c #776E35",
".  c #746E3E",
"X  c #786B3F",
"o  c #6E6E4A",
"O  c #6D6C4E",
"+  c #6E6D4F",
"@  c #706E45",
"#  c #746B4C",
"$  c #726C4C",
"%  c #726D4D",
"&  c #6D6D51",
"*  c #6E6C53",
"=  c #6F6E52",
"-  c #6D6D55",
";  c #6E6C55",
":  c #6E6B58",
">  c #6B6D58",
",  c #6B6C5A",
"<  c #6D6C58",
"1  c #6B6B5F",
"2  c #6D6B5C",
"3  c #6E6B5C",
"4  c #6A6D5C",
"5  c #6B6C5E",
"6  c #6A6C5F",
"7  c #706B55",
"8  c #706B57",
"9  c #6B6B61",
"0  c #6A6B63",
"q  c #6B6B63",
"w  c #6A6C61",
"e  c #6A6B65",
"r  c #696B66",
"t  c #6A6B66",
"y  c #696C65",
"u  c #676B6A",
"i  c #676C68",
"p  c DimGray",
"a  c #696B68",
"s  c #686A69",
"d  c #696B6A",
"f  c #6A6A6A",
"g  c #6A6C6B",
"h  c #696A6C",
"j  c #6A6A6C",
"k  c #A5953E",
"l  c #A9933D",
"z  c #A8943D",
"x  c #9E9746",
"c  c #9D945B",
"v  c #A19742",
"b  c #A19647",
"n  c #A5924E",
"m  c #A4934E",
"M  c #A49254",
"N  c #A19259",
"B  c #9B9267",
"V  c #CEBE5F",
"C  c #CCBF61",
"Z  c #CDBE63",
"A  c #C6BF6F",
"S  c #C9BF68",
"D  c #C7BD75",
"F  c #C3BE7A",
"G  c #C6BD7A",
"H  c #C9C25A",
"J  c #C9C15F",
"K  c #C5C16A",
"L  c #C3C16E",
"P  c #C5C06C",
"I  c #C6C06C",
"U  c #C2C075",
"Y  c #BFBE88",
"T  c #BFBD8A",
"R  c #BEBD8F",
"E  c #F7F39C",
"W  c #F7F29E",
"Q  c #F9F19C",
"!  c #FBF09E",
"~  c #F8F49D",
"^  c #FEEDA5",
"/  c #F5F2A1",
"(  c #F7F2A1",
")  c #F7F1A3",
"_  c #F5F2A3",
"`  c #F6F3A2",
"'  c #F7F1A5",
"]  c #F4F2A5",
"[  c #F5F2A5",
"{  c #F4F2A7",
"}  c #F8F1A0",
"|  c #F8F1A1",
" . c #F9F2A2",
".. c #F2F2A8",
"X. c #F4F1AA",
"o. c #F5F1AA",
"O. c #F2F2AC",
"+. c #F3F3AD",
"@. c #F2F1AE",
"#. c #F5F0AE",
"$. c #F1F2B0",
"%. c #F1F1B3",
"&. c #F1F1B5",
"*. c #F2F0B5",
"=. c #F1F0B7",
"-. c #F1F0B8",
";. c #F0F0BA",
":. c #F1F0BA",
">. c #FFFFBD",
",. c #EEEFC5",
"<. c #EEEDCE",
"1. c #F0EFC1",
"2. c #F0EFC3",
"3. c #F2EFC2",
"4. c #FFFFC7",
"5. c #FFFFCE",
"6. c #EDEDD1",
"7. c #FFFFDC",
"8. c #FFFFE4",
"9. c #FFFFE5",
"0. c #FDFFEA",
"q. c #FDFEEE",
/* pixels */
"d d d d d d d d d d d d d d d d d d d d d d d d d d d d d d d d d d d d d d d d d d d d d d d d d d d d d d d d d d d d d d d d ",
"d d d d d d d d d d d d d d d d d d d d d d d d d d d d d d d d d d d d d d d d d d d d d d d d d d d d d d d d d d d d d d d d ",
"d d d d d d d d d d d d d d d d d d d d d d d d d d d d d d d d d d d d d d d d d d d d d d d d d d d d d d d d d d d d d d d d ",
"d d d d d d d d d d d d d d d d d d d d d d d d d d d d d d d d d d d d d d d d d d d d d d d d d d d d d d d d d d d d d d d d ",
"d d d d d d d d d d d d d d d d d d d d d d d d d d d d d d d d d d d d d d d d d d d d d d d d d d d d d d d d d d d d d d d d ",
"d d d d d d d d d d d d d d d d d d d d d d d d d d d d d d d d d d d d d d d d d d d d d d d d d d d d d d d d d d d d d d d d ",
"d d d d d d d d d d d d d d d d d d d d d d d d d d d d d d d d d d d d d d d d d d d d d d d d d d d d d d d d d d d d d d d d ",
"d d d d d d d d d d d d d d d d d d d d d d d d d d d d d d d d d d d d d d d d d d d d d d d d d d d d d d d d d d d d d d d d ",
"d d d d d d d d d d d d d d d d d d d d d d d d d d d d d d d d d d d d d d d d d d d d d d d d d d d d d d d d d d d d d d d d ",
"d d d d d d d d d d d d d d d d d d d d d d d d d d d d d d d d d d d d d d d d d d d d d d d d d d d d d d d d d d d d d d d d ",
"d d d d d d d d d d d d d d d d d d d d d d d d d d d d d d d d d d d d d d d d d d d d d d d d d d d d d d d d d d d d d d d d ",
"d d d d d d d d d d d d d d d d d d d d d d d d d d d d d d d d d d d d d d d d d d d d d d d d d d d d d d d d d d d d d d d d ",
"d d d d d d d d d d d d d d d d d d d d d d d d d d d d d d d d d d d d d d d d d d d d d d d d d d d d d d d d d d d d d d d d ",
"d d d d d d d d d d d d d d d d d d d d d d d d d d d d d d d d d d d d d d d d d d d d d d d d d d d d d d d d d d d d d d d d ",
"d d d d d d d d d d d d d d d d d d d d d d d d d d d d d d d d d d d d d d d d d d d d d d d d d d d d d d d d d d d d d d d d ",
"d d d d d d d d d d d d d d d d d d d d d d d d d d d d d d d d d d d d d d d d d d d d d d d d d d d d d d d d d d d d d d d d ",
"d d d d d d d d d d d d d d d d d d d d d d d d d d d d d d d d d d d p d d d d d d d d d d d d d d d d d d d d d d d d d d d d ",
"d d d d d d d d d d d d d d d d d d d d d d d d d d d d d d d d d j p d d d d d d d d d d d d d d d d d d d d d d d d d d d d d ",
"d d d d d d d d d d d d d d d d d d d d d d d d d d d d d d d d d d j j d d j j d d d d d d d d d d d d d d d d d d d d d d d d ",
"d d d d d d d d d d d d d d d d d d d d d d d d d d d d d d d d d d j j d d j j d d d d d d d d d d d d d d d d d d d d d d d d ",
"d d d d d d d d d d d d d d d d d d d d d f d d d d d d d d d d d d d d d d d p j j d d d d d d d d d d d d d d d d d d d d d d ",
"d d d d d d d d d d d d d d d d d d d d d d d d d d d d d d d d d d d d d d p d j j d d d d d d d d d d d d d d d d d d d d d d ",
"d d d d d d d d d d d d d d d d d d d d d d d d d r d d d d d d f d d d d d d d d d d d d d d d d d d d d d d d d d d d d d d d ",
"d d d d d d d d d d d d d d d d d d d d d d d d r d d d r d r r 9 9 r r d d d d d d d d d d d u d d d d d d d d d d d d d d d d ",
"d d d d d d d d d d d d d d d d j j d d d d d d d p j d r q 4 0.9.& , q r d u u d d d d j j h h d d d d d d d d d d d d d d d d ",
"d d d d d d d d d d d d d d d d j j d d d d d d p d d r r q.9.7.2.2.<.2 q d u u d d d d j j h j d d d d d d d d d d d d d d d d ",
"d d d d d d d d d d d d d d d d d d d d d d d d g d d r 4 6.,.;.%.-.R O 6 d u d d d d d d d d d d d d d d d d d d d d d d d d d ",
"d d d d d d d d d d d d d d d d d d d d d d d d d d g 1 o 5.4.$...@.*.@ 6 p d d d d d d d d d d d d d d d d d d d d d d d d d d ",
"d d d d d d d d d d d d d d d d d r d d d r d d d d d - F K ] +.>.X...T , d d d d d d d d d d d d d d d d d d d d d d d d d d d ",
"d d d d d d d d d d d d d d d d r d d d r d d d d g d + A H / ..F ] ] *.> u d d d d d d d d d d d d d d d d d d d d d d d d d d ",
"d d d d d d d d d d d d d d d d d d d d d d d d r d g + K H W ] L W ] *., d d d d d d d d d d d d d d d d d d d d d d d d d d d ",
"d d d d d d d d d d d d d d d d d d d d d d d d d r d + A H / ] K E ] -., d d d d d d d d d d d d d d d d d d d d d d d d d d d ",
"d d d d d d d d d d d d d d d d d r d d d d d d g i g + K H / ] K E ] ;.- d d d d d d d d u d d d d d d d d d d d d d d d d d d ",
"d d d d d d d d d d d d d d d d r d d d d d d d d g g 7 A J | ] K W ] ;.< d d d d d d d u u d d d d d d d d d d d d d d d d d d ",
"d d d d d d d d d d d d d d d d d d d d d d d d d r d 7 G S | / x | / *.> d d d d d d d d d u u d d d d d d d d d d d d d d d d ",
"d d d d d d d d d d d d d d d d d d d d d d d d d d d <   b v Q | ] X.T , g d d d d d d d d u u d d d d d d d d d d d d d d d d ",
"d d d d d d d d d d d d d d d d d d j j d d d d d d d 1 . D Z Z ~ #.;.o 4 d d d d d d d d d d d d d d d d d d d d d d d d d d d ",
"d d d d d d d d d d d d d d d d d d j j d d d d d d d 1 # c k V ~ #.2.7 r d d d d d d d d d d d d d d d d d d d d d d d d d d d ",
"d d d d d d d d d d d d d d d d d d d d d d d d d d d t 1 # n l l ^ B 8 9 d d d d d d p d d d d d d d d d d d d d d d d d d d d ",
"d d d d d d d d d d d d d d d d d d d d d d d d r d d d f 1 X M n N # 2 r d d d d d p d d d d d d d d d d d d d d d d d d d d d ",
"d d d d d d d d d d d d d d d d d d d d j h u d d d d d d t 3 8 8 : 1 r d d d d d d d d d d d r d d d d d d d d d d d d d d d d ",
"d d d d d d d d d d d d d d d d d d d d h h d d d d d d d d d d d d d d d d d d d d d d d d r d d d d d d d d d d d d d d d d d ",
"d d d d d d d d d d d d d d d d u u d j d d d d d d j p d d d d d d d d d d d d r d d d d d d d d d d d d d d d d d d d d d d d ",
"d d d d d d d d d d d d d d d d u u d d d d d d d d d d d d d d d d d d d d d d d d d d d d d d d d d d d d d d d d d d d d d d ",
"d d d d d d d d d d d d d d d d d d d p d d j j d d d d d d d d d d d d p j d d d d d d d d d d d d d d d d d d d d d d d d d d ",
"d d d d d d d d d d d d d d d d j j p d d d h h d d d d d d d d d d d d j j d d j j d d d d d d d d d d d d d d d d d d d d d d ",
"d d d d d d d d d d d d d d d d j j d d d u u d d d d d d d d d d d d d d d d d d d d d d r d d d d d d d d d d d d d d d d d d ",
"d d d d d d d d d d d d d d d u h j d d u u d d d d d d d d d d d d d p d d d d d d d d r d d d d d d d d d d d d d d d d d d d ",
"d d d d d d d d d d d d d d d d d d d d d d d d d d d d d d d d d d d d d d d d d d d d d d d d d d d d d d d d d d d d d d d d ",
"d d d d d d d d d d d d d d d d d d d d d d d d d d d d d d d d d d d d d d d d d d d d d d d d d d d d d d d d d d d d d d d d ",
"d d d d d d d d d d d d d d d d d d d d d d d d d d d d d d d d d d d d d d d d d d d d d d d d d d d d d d d d d d d d d d d d ",
"d d d d d d d d d d d d d d d d d d d d d d d d d d d d d d d d d d d d d d d d d d d d d d d d d d d d d d d d d d d d d d d d ",
"d d d d d d d d d d d d d d d d d d d d d d d d d d d d d d d d d d d d d d d d d d d d d d d d d d d d d d d d d d d d d d d d ",
"d d d d d d d d d d d d d d d d d d d d d d d d d d d d d d d d d d d d d d d d d d d d d d d d d d d d d d d d d d d d d d d d ",
"d d d d d d d d d d d d d d d d d d d d d d d d d d d d d d d d d d d d d d d d d d d d d d d d d d d d d d d d d d d d d d d d ",
"d d d d d d d d d d d d d d d d d d d d d d d d d d d d d d d d d d d d d d d d d d d d d d d d d d d d d d d d d d d d d d d d ",
"d d d d d d d d d d d d d d d d d d d d d d d d d d d d d d d d d d d d d d d d d d d d d d d d d d d d d d d d d d d d d d d d ",
"d d d d d d d d d d d d d d d d d d d d d d d d d d d d d d d d d d d d d d d d d d d d d d d d d d d d d d d d d d d d d d d d ",
"d d d d d d d d d d d d d d d d d d d d d d d d d d d d d d d d d d d d d d d d d d d d d d d d d d d d d d d d d d d d d d d d ",
"d d d d d d d d d d d d d d d d d d d d d d d d d d d d d d d d d d d d d d d d d d d d d d d d d d d d d d d d d d d d d d d d ",
"d d d d d d d d d d d d d d d d d d d d d d d d d d d d d d d d d d d d d d d d d d d d d d d d d d d d d d d d d d d d d d d d ",
"d d d d d d d d d d d d d d d d d d d d d d d d d d d d d d d d d d d d d d d d d d d d d d d d d d d d d d d d d d d d d d d d ",
"d d d d d d d d d d d d d d d d d d d d d d d d d d d d d d d d d d d d d d d d d d d d d d d d d d d d d d d d d d d d d d d d ",
"d d d d d d d d d d d d d d d d d d d d d d d d d d d d d d d d d d d d d d d d d d d d d d d d d d d d d d d d d d d d d d d d "
};
