/* XPM */
static char *_dd2675e62204310bcc62e3099271696aJf5LbRlmDgb0pZ8[] = {
/* columns rows colors chars-per-pixel */
"64 64 216 2 ",
"   c #040007",
".  c #060007",
"X  c #1E101F",
"o  c #281800",
"O  c #391E0B",
"+  c #2D2403",
"@  c #342D03",
"#  c #3B2909",
"$  c #3B3100",
"%  c #1C2029",
"&  c #2D2D23",
"*  c #312620",
"=  c #323731",
"-  c #423809",
";  c #46271D",
":  c #4C3E11",
">  c #4E2F2A",
",  c #493925",
"<  c #503625",
"1  c #403836",
"2  c #564C07",
"3  c #5B5403",
"4  c #5A560D",
"5  c #564717",
"6  c #6D5914",
"7  c #4B4728",
"8  c #594928",
"9  c #665B27",
"0  c #65553C",
"q  c #7A692E",
"w  c #727026",
"e  c #686133",
"r  c #6D674F",
"t  c #796D43",
"y  c #776A62",
"u  c #8E6C25",
"i  c #8A7935",
"p  c #867D52",
"a  c #98881B",
"s  c #8A8735",
"d  c #938239",
"f  c #B1AD28",
"g  c #A6A330",
"h  c #B0A331",
"j  c #A8A728",
"k  c #D9D712",
"l  c #EBDB03",
"z  c #FCDC08",
"x  c #E3CD15",
"c  c #E8D811",
"v  c #FADA12",
"b  c #F1D71E",
"n  c #F5DC1E",
"m  c #F8DD1C",
"M  c #F5DB12",
"N  c #EEE200",
"B  c #F5E60D",
"V  c #FDED0C",
"C  c #F7E808",
"Z  c #F5F401",
"A  c #FCFE02",
"S  c #F3F60C",
"D  c #FCF40C",
"F  c #FDFA0C",
"G  c #F9F804",
"H  c #EEE214",
"J  c #E8E912",
"K  c #F4E416",
"L  c #F9E515",
"P  c #F5EA16",
"I  c #FBEB15",
"U  c #F5E41D",
"Y  c #F9E31D",
"T  c #F5EA1D",
"R  c #FBEA1C",
"E  c #FCF313",
"W  c #FDFB15",
"Q  c #F7F51C",
"!  c #FDF31C",
"~  c #FDFB1C",
"^  c #F6F717",
"/  c #DFD333",
"(  c #CDC63A",
")  c #E6CC25",
"_  c #EEDC26",
"`  c #EFDA2C",
"'  c #E5D728",
"]  c #F4D623",
"[  c #F5DC22",
"{  c #F8DE22",
"}  c #F4DD2B",
"|  c #F9DB2B",
" . c #EBD633",
".. c #F2D934",
"X. c #EEEF2F",
"o. c #F6E322",
"O. c #FAE422",
"+. c #F6EB22",
"@. c #FCEC23",
"#. c #F5E22B",
"$. c #FAE32B",
"%. c #F5ED2A",
"&. c #FCEB2C",
"*. c #EDF023",
"=. c #F5F525",
"-. c #FDF324",
";. c #F4FD23",
":. c #FEFC24",
">. c #F6F32A",
",. c #FEF42B",
"<. c #FEFA2D",
"1. c #F6E133",
"2. c #FBE434",
"3. c #F4EB32",
"4. c #FCED33",
"5. c #FBE53C",
"6. c #FDED3A",
"7. c #F1E33C",
"8. c #FEF534",
"9. c #F6FC34",
"0. c #FEFA34",
"q. c #F6F33D",
"w. c #FEF53B",
"e. c #FEFB3C",
"r. c #F7FA37",
"t. c #ACAB58",
"y. c #968D66",
"u. c #A6A064",
"i. c #929053",
"p. c #CBC343",
"a. c #D2C342",
"s. c #DBD251",
"d. c #C9C959",
"f. c #E0DA50",
"g. c #EEE642",
"h. c #EEEE42",
"j. c #FDF644",
"k. c #F7FD41",
"l. c #FEFB43",
"z. c #FEF54C",
"x. c #F7FC48",
"c. c #FEFB4B",
"v. c #F7F048",
"b. c #EAEA55",
"n. c #F2EE57",
"m. c #FEF655",
"M. c #FEFC53",
"N. c #F6F35C",
"B. c #FDF65D",
"V. c #FDFB5C",
"C. c #F7FE56",
"Z. c #E1E263",
"A. c #FEF663",
"S. c #F6FD65",
"D. c #FEFB64",
"F. c #FEF66A",
"G. c #FDFC6B",
"H. c #FCEE7C",
"J. c #FDF773",
"K. c #FDFB73",
"L. c #FEF57B",
"P. c #FDFC7C",
"I. c #D3D071",
"U. c #8F8383",
"Y. c #998F8E",
"T. c #968B91",
"R. c #A89D97",
"E. c #ADA284",
"W. c #BCACAF",
"Q. c #DAD39F",
"!. c #FCF584",
"~. c #FDFC83",
"^. c #FDF38E",
"/. c #F6FC8D",
"(. c #FEFC8C",
"). c #F5F387",
"_. c #FFEA99",
"`. c #FFF594",
"'. c #FDFC94",
"]. c #FEFC9C",
"[. c #FFF29D",
"{. c #D4CDA3",
"}. c #FDF6A3",
"|. c #FEFCA2",
" X c #FEFCAC",
".X c #FEF5B2",
"XX c #FEFBB3",
"oX c #FFF5BC",
"OX c #FDFBBB",
"+X c #DCD4CB",
"@X c #E8DCC2",
"#X c #E0D3DC",
"$X c #FEF6C4",
"%X c #FEFBC3",
"&X c #FDF7CE",
"*X c #FEFCCB",
"=X c #F3FCC3",
"-X c #F0E4D6",
";X c #FFF6D3",
":X c #F7FED5",
">X c #FDFBD5",
",X c #FFF6DC",
"<X c #FFFBDC",
"1X c #EAE1E6",
"2X c #FEF3E2",
"3X c #FEFDE4",
"4X c #FFF6ED",
"5X c #F5FEE9",
"6X c #FDFEEC",
"7X c #FEEDFF",
"8X c #FFF3F5",
"9X c #F7FFF4",
"0X c #FDFEF4",
"qX c #FEF5FE",
"wX c #F6FEFD",
"eX c #FFFEFF",
/* pixels */
"eXeXeXeXeXeXeXeXeXeXeXeXeXeXeXeXeXeXeXeXeXeXeXeXeXeXwXwX0XqX8XM.(.2XeX0XeXeXeXeXeXeXeXeXeXeXeXeXeXeXeXeXeXeXeXeXeXeXeXeXeXeXeXeX",
"eXeXeXeXeXeXeXeXeXeXeXeXeXeXeXeXeXeXeXeXeXeXeXeX0XeXwX0XwXeX$Xc.~.>X8XeXeXeX6XeXeXeXeXeXeXeXeXeXeXeXeXeXeXeXeXeXeXeXeXeXeXeXeXeX",
"eXeXeXeXeXeXeXeXeXeXeXeXeXeXeXeXeXeXeXeXeXeXeXeX0XeX0X9XeX,X~.j.K.XX<XeXeXeX6XeXeXeXeXeXeXeXeXeXeXeXeXeXeXeXeXeXeXeXeXeXeXeXeXeX",
"eXeXeXeXeXeXeXeXeXeXeXeXeXeXeXeXeXeXeXeXeXeXeXeXeXeX0XwXwXXXM.x.G.'.OXeXqXeX<XeXeXeXeXeXeXeXeXeXeXeXeXeXeXeXeXeXeXeXeXeXeXeXeXeX",
"eXeXeXeXeXeXeXeXeXeXeXeXeXeXeXeXeXeXeXeXeXeXeXeXeXeXeXeXqX'.r.z.S.!. X6XqXeX3XeXeXeXeXeXeXeXeXeXeXeXeXeXeXeXeXeXeXeXeXeXeXeXeXeX",
"eXeXeXeXeXeXeXeXeXeXeXeXeXeXeXeXeXeXeXeXeXeXeXeXeXeXeXeX;XK.e.m.V.!.].*XeXeX6XeXeXeXeXeXeXeXeXeXeXeXeXeXeXeXeXeXeXeXeXeXeXeXeXeX",
"eXeXeXeXeXeXeXeXeXeXeXeXeXeXeXeXeXeXeXeXeXeXeXeXeX0XeX6X|.C.z.l.V.(.'. X4XeXeX0XeXeXeXeXeXeXeXeXeXeXeXeXeXeXeXeXeXeXeXeXeXeXeXeX",
"eXeXeXeXeXeXeXeXeXeXeXeXeXeXeXeXeXeXeXeXeXeXeXeXeX3X8X<XK.x.z.w.V.`.'.'.:XeXeXeXeXeXeXeXeXeXeXeXeXeXeXeXeXeXeXeXeXeXeXeXeXeXeXeX",
"eXeXeXeXeXeXeXeXeXeXeXeXeXeXeXeXeXeXeXeXeXeXeXeX5XeX0X~.l.A.V.,.l.(.|.~.|.eXeX5XeXeXeXeXeXeXeXeXeXeXeXeXeXeXeXeXeXeXeXeXeXeXeXeX",
"eXeXeXeXeXeXeXeXeXeXeXeXeXeXeXeXeXeXeXeXeXeXeXeXeXeX>XP.M.A.B.8.c.~.|.'.].,XeXwXeXeXeXeXeXeXeXeXeXeXeXeXeXeXeXeXeXeXeXeXeXeXeXeX",
"eXeXeXeXeXeXeXeXeXeXeXeXeXeXeXeXeXeXeXeXeXeXeXeXeX3X|.S.V.V.c.r.x.P.|.|.]..X6XwXeXeXeXeXeXeXeXeXeXeXeXeXeXeXeXeXeXeXeXeXeXeXeXeX",
"eXeXeXeXeXeXeXeXeXeXeXeXeXeXeXeXeXeXeXeXeXeXeXeXqXOXK.A.A.M.e.w.m.K.|.OX'.(.*XeXeXeXeXeXeXeXeXeXeXeXeXeXeXeXeXeXeXeXeXeXeXeXeXeX",
"eXeXeXeXeXeXeXeXeXeXeXeXeXeXeXeXeXeXeXeXeXeXeXeXqX].C.B.A.c.e.l.M.S.].%X].P. XeXeXeXeXeXeXeXeXeXeXeXeXeXeXeXeXeXeXeXeXeXeXeXeXeX",
"eXeXeXeXeXeXeXeXeXeXeXeXeXeXeXeXeXeXeXeXeXeXeXeX$X~.M.A.D.j.0.l.M.S.'.OX X~.].<XeXeXeXeXeXeXeXeXeXeXeXeXeXeXeXeXeXeXeXeXeXeXeXeX",
"eXeXeXeXeXeXeXeXeXeXeXeXeXeXeXeXeXeXeXeXeXeXeXeX(.K.A.D.m.e.e.l.z.S./.OXOX].'. XeXeXeXeXeXeXeXeXeXeXeXeXeXeXeXeXeXeXeXeXeXeXeXeX",
"eXeXeXeXeXeXeXeXeXeXeXeXeXeXeXeXeXeXeXeXeXeXeXeXD.F.F.F.M.8.e.z.l.V./.XXOX X'./.eXeXeXeXeXeXeXeXeXeXeXeXeXeXeXeXeXeXeXeXeXeXeXeX",
"wXwXwXeXeXeXeXeXeX0XeXeXqXeXeXeXeX4X:X5XwXeX,X.XF.D.M.z.j.w.w.9.c.D.(.|.XX X|.'.:X8XeXwXwX5XeXeXeXeXeXeXeXeXeXeXeXeXeXeXeXeX0X6X",
"eX0XeX0X0X0X0X8XeXeXeXeXeX0X0X6XqXwX0XwXeXeX%X~.D.B.B.z.j.0.0.r.l.V.~.|.XX.X|.`./.OX0XeXeX0X6XeX6X0X0XeXeXeXeXeX0X0X0X0X0X0X0X0X",
"eXqXeXqXqXeX0X0XeXeXwXeXeX0X0XwXeXeXeXeXeX6X].V.D.B.m.j.w.w.0.8.l.V.P.]. XXX|.|.S.].<XeXeXeXeXeX0XeX0XwXwXeXeXwXwXeXeXwXeXeXeXeX",
"eXeXeXeXeXeXeXeX5X0XeXeXeXeXeXqXeX8X0X0X4X%X^.V.B.m.z.j.w.w.8.0.e.M.K.'.|. X X|.P.|.,X0XqXeXeXeXwXwXeXeX9X0X0X6XeXeXeXeXeXwXeXwX",
"6X0X6X0X0X0XwXwXeXeXeXeX0XeXeX0X,X*XXX X].`.L.F.M.c.j.w.w.8.8.0.e.M.G.(.]. X X|.|. X.XXX%X*X,X6XeX0XeXeXeXeXeXeXeX0X0X0X0X0X6X6X",
"wXeXwXeXeXeXeXeXeXwX6X<X*XXX X|.}./.K.G.F.K.K.K.c.j.w.w.8.8.8.0.l.c.D.~.'.|.|.|.|.].~.P.P.~.'.]. X XOX*X<X4XeXeXqXeXeXeXeXeXeXwX",
"eXeXeX4X3X,X;X&XXX.X}.'.^.L.J.F.F.F.D.B.V.V.V.V.z.j.8.8.&.8.8.w.l.c.D.P.'.].|.|.|.'.~.P.L.K.K.K.K.P.).(.|..XOX%X;X,X<X6X0XeXeXeX",
"%XOX X'.L.F.B.m.C.C.V.V.B.D.A.F.M.V.G.F.F.V.c.e.j.w.w.8.&.8.8.8.l.M.S.P./.].].|. X X|.}.}.].P.G.K.K.K.G.G.D.D.D.S.G.P./. XOX*X>X",
"8.v.-.~ M.J.V.l.V.M.V.V.D.V.V.V.V.V.V.M.M.l.l.j.4.W l.q.W -.3.e.v.0.D.n.(..X~.'.].].|.].|.].|.].(.(.'.'.].].'.'.K.(./.K.~.(.D.%.",
"_.9.^ 4.w.z.B.e.z.z.c.M.c.M.M.M.M.M.c.c.l.l.w.w.l.w.( s.%.H l.8.M.0.D.~.I.Q.]./.|.|.|.|.].|.].|.].].].|.].|.].'.'.P.G.F.V.q.N.^.",
",X).3.U 1.&.,.w.w.w.e.j.e.j.e.e.l.l.l.e.w.w.w.8.w.f $ 5 ( 8.5.4.X.0.G.d.@ 0 t.].|.].].].].|.].].].|.|.].].'.(.(.(.F.M.e.=.*.H.4X",
"6X0X^.%.Y U I %.&.,.&.8.9.8.w.w.w.8.0.8.8.4.4.4.X.3 R.W.a T w.8.l.9.N.s r +Xi.'.'.'.'.'.'.'.'.'.'.'.'.(.~.P.K.G.M.A.z.D E J.>XwX",
"wXeX4X^.E B } M o.#.$.$.&.4.8.6.,.,.8.4.&.4.4.&.l.$ 1XqXd 0.,.U H >.G.w Y.eXt /.~.~.~.~.~.P.~.~.K.K.F.G.D.V.c.c.=.8.8.%.A.*XeXwX",
"wXeXeX2X!.%.Y ..{ { } } #.1.$.2.#.%.&.%.&.&.&.&.k 8 +X#Xd ^ c 0.0.j.M.4 T.eXy.Z.K.K.G.F.G.G.D.D.V.M.V.c.z.w.0.,.:.B %.`.,X8XeXwX",
"0XeX0X0X4X(.,.$.} { { [ [ } #.#.#.#.#.#.$.2.$.$.' < {.-Xi -.4.[ O.1.j.3 U.2Xi.b.V.V.V.V.M.M.M.c.e.l.e.e.8.8.,.-.R 4.L.2XeXeX0XeX",
"8X0XwXwXwX3X!.G O.{ m n n b n _ ` ` } #.#.$.} $.' ; u.E.9 8.` 4.&.2.c.2 y @X: b.c.c.c.c.l.l.l.e.0.0.0.8.8.&.@.O.V L.2XeX9XwXeX0X",
"0XeXeXeXeX6X:X=XF 3.U N M ] [ ] ] ] [ ] ] [ [ } x > 9 0 u I } 7.g.| :.6 7 q > 1.l.e.l.e.e.e.e.0.e.0.e.,.D +.5.V =X:X6XeXeXeXeX0X",
"0XeXeXeXeX0X3X:XL.9.P [ m m | n ] ] ] [ [ [ _ [ ) O 9 7 6 O.2.,.O.8.=.6 , e ,  .e.r.e.e.e.0.0.0.<.0.:.! %.E ,.H.:X<X6XeXeXeXeX0X",
"eXeXeXeXeX0X0X0X2XK.9.%.Y n ] v [ ] ] b _ [ [ ] / o 7 & i 6.{ z l &.8.q * 7 # g.0.0.w.0.0.0.0.0.~ ,.! I o.>.G.,X0X0X0XeXeXeXeXwX",
"eXeXeX0XeXeXeXeX0X3X~.;.@.$.v v [ [ b b b _ [ [ ) - = % s Y O.R -.K ,.i X = @ h.9.<.0.<.<.<.,.<.~ ! O.R ! L.2X0XeXeXeXeXeXeXqXeX",
"eXeXeX0XeXeXeXeX0XeX$XC.9.R C m m n n b b ] ] [ ) 2 . . g B { 5.w.o.~ h . . 4 e.<.<.<.<.0.,.,.,.,.I R 4.B.*XeX9XeXeXeXeX0XeXeXeX",
"eXeXeXeXeXeXeXeXeX6X6X;XS.~ R $.{ n n b b ] ] ] $.a + : / V | .. .6.V g.5 o j r.:.,.0.<.8.,.,.8.6.,.! F.,X0X0XwXeXeXeXeXeXeXeXeX",
"eXeXeXeXeXeXeXeXeX6XwXqX XV.q.>.O.U U b n ] ] | [ _ p.a.R v 1.e.6.6.l 0.s.( e.>.<.0.0.,.8.8.8.4.,.j.S.XXqXeX6XeX0XeXeXqXeXeXeXeX",
"8XeXeXeXeXeXeX0X<XqXeXeX4XoXc.~ O.Y U n n ] ] | ] N T O.C | | J H #.&.S ;.:.A w.<.<.0.0.0.8.8.8.E z. X6X0XwXeX,X0X0XeXeXeXeX0X0X",
"eXeXeXeXeXeXeXeXwX0XeXqX0X0XoXl.=.+.U U b b [ [ [ [ [ [ O.[ { { O.+.+.O.-.-.,.,.<.<.<.0.0.0.0.0.m.$XwX0XeXeXeXeXeXeXeXeXeXeXeXeX",
"eXeXeXeXeXeXeXeXeX0XeXeX0XeX$XM.>.-.+.U b n [ [ [ [ { { [ Y O.{ +.O.O.@.@.&.,.-.<.<.<.0.0.0.w.0.m.$XeX0XeXeX0XeXeXeXeXeXeXeXeXeX",
"eXeXeXeXeXeXeXeXeX8XeXeXwXeX*XV.<.:.+.Y [ n b [ m [ n [ { m { m O.O.O.R @.-.-.,.0.:.<.0.0.w.w.e.A.;XeX0XeXeX0XeXeXeXeXeXeXeXeXeX",
"eXeXeXeXeXeXeXeXeX0XeXeXeXeX*XV.<.,.&.o.n n [ [ [ [ O.[ Y O.O.Y O.Y +.@.@.@.-.-.,.,.,.0.0.0.e.e.F.;XeXeXeXeX6XeXeXeXeXeXeXeXeXeX",
"eXeXeXeXeXeXeXeXeX0XeXeXeXeX*XV.<.,.-.O.[ [ [ [ [ { [ { Y { Y Y Y Y Y R +.@.-.@.,.,.,.0.w.e.l.l.D.>XeXeXeXeX4XeXeXeXeXeXeXeXeXeX",
"eXeXeXeXeXeXeXeXeX0XeXeXwXeXOXc.0.,.&.o.o.n [ [ { m Y Y { Y Y m O.Y Y Y R O.@.! ,.:.,.0.e.e.l.l.V.%XeXwXeXeX0XeXeXeXeXeXeXeXeXeX",
"eXeXeXeXeXeXeXeXeX0XeXeX0X0X.X0.<.,.-.o.[ [ [ { m O.{ O.Y Y Y Y Y Y O.Y O.+.@.@.-.-.,.8.w.e.l.l.l.OX0XeXeXeX0XeXeXeXeXeXeXeXeXeX",
"eXeXeXeXeXeXeXeXeX8XeXeXeX6X X;.<.,.@.O.[ [ { { m { m Y m Y Y R U m Y Y Y R R O.-.,.8.8.e.l.c.c.r..X6X0XeXeXeXeXeXeXeXeXeXeXeXeX",
"eXeXeXeXeXeXeXeX6XeXwX6XeX0X!.9.<.,.O.o.[ { m U { O.$.#.#.o.O.O.T U U R P R R Y @.@.,.,.0.w.j.z.l.'.8XeX3XeXeX6XeXeXeXeXeXeXeXeX",
"eXeXeXeXeXeXeXeX4XeXwX5XeX3XL.8.<.,.O.[ n m m U L L P K P P R L o.o.O.{ U Y Y Y +.-.-.,.0.w.e.l.r./.4XeX3XeXeX6XeXeXeXeXeXeXeXeX",
"eXeXeXeXeXeXeXeX6XeXwX6XeX,XG.0.,.@.O.o.n n m m L P P I I I I I Y O.O.O.o.o.Y R R R -.,.,.0.e.l.l.P.<XeX6XeXeX0XeXeXeXeXeXeXeXeX",
"eXeXeXeXeXeXeXeX0XeXeX0XeX*XV.<.,.@.o.n n m Y R $.&.@.R -.! @.@.E I R O.O.O.Y L R +.@.-.,.8.w.j.e.F.*XeX0XeXeX0XeXeXeXeXeXeXeXeX",
"eXeXeXeXeXeXeXeX0XeX0XeXeX Xc.,.@.+.o.n m Y R R &.-.-.! W ~ =.:.W E ! E R P R R Y R R @.-.8.0.e.j.C..XeXeX0XqX0XeXeXeXeXeXeXeXeX",
"eXeXeXeXeXeXeXeXeXeXwXwX0X].e.&.@.o.o.[ Y R R R W D A F ~ :.0.k.M.z.0.:.Q P P R R R R T -.,.0.8.e.l.].0XeXwXeXeXeXeXeXeXeXeXeXeX",
"eXeXeXeXeXeXeXeXeXeXeXeX0X(.<.,.o.Y { Y O.R -.! G W W ,.l.K.'. XOX|.P.c.0.~ R +.R R P R @.-.,.8.e.0.(.eXeXeXwXeXeXeXeXeXeXeXeXeX",
"eXeXeXeXeXeXeXeXeXeXwXeX8X~.:.@.Y U m m O.@.! :.:.-.w.V.(.%X0XeXeX6XXXP.l.<.,.,.R R P I ! ,.,.,.w.0.(.8XeX0XeXeXeXeXeXeXeXeXeXeX",
"eXeXeXeXeXeXeXeX3X6XwXwX0XG.w.4.K U Y @.! ~ ~ W ^ x.~.OX6XeXeXeXeXeXeX4X%X~.x.;.E E R @.O.O.! Q 9.z.K.qXwXwX6X8XeXeXeXeXeXeXeXeX",
"eXeXeXeXeXeXeXeXeX0XwX6X$X0.E B O.O.O.! ! :.;.<.|.XX>X8XeXeXeX8X0XwXeXeX0X,XOX|.:.8.-.I R &.8.! W :.l.$X6XwX0XeXeXeXeXeXeXeXeXeX",
"eXeXeXeXeXeXeXeXeX0XwX3X].:.I K R &.&.W A :.P.;XwXqXqXeXeXeXeX0X0XeXeXeXqXeXeXeX2XK.F G R R @.-.Q :.<.].<XwX6XqXeXeXeXeXeXeXeXeX",
"eXeXeXeXeXeXeXeX8X6XwXeX].8.$.2.R D A :.D.XX0XeXeXeXeXeXeXeXwXeXeXeXeXeXeXwX0X0XeXwX$XC.F F R I 6.8.w.`.0XeX5XeXeXeXeXeXeXeXeXeX",
"eXeXeXeXeXeXeXeX0X6XeXqXL.-.R T A ~ V. X8XeXeX4X0X0X6X6X6X0XeXeXeXeX0X6X5X5X6X6XwXeXeXqXoXc.D D @.-.-.P.qXeX6X0XeXeXeXeXeXeXeXeX",
"eXeXeXeXeXeXeXeXeX6XeXqXz.Z Z S e.(.8XqXeX6X6XwXwXeXeXeXeXeXeXeX0XeXeXeXeXeXeXwX6XwX0X0XqX7X[.<.S G Z l.eXeX6X0XeXeXeXeXeXeXeXeX",
"eXeXeXeXeXeXeXeXeX6X0X8X9.E j.K.<X6X0X0XwXeX0XeXeXeXeXeXqXeXeXwXeXeXeXeXeXeXeXeXqX0X0XeXeX6X3X8XF.x.S ;.qXwX6XeXeXeXeXeXeXeXeXeX",
"eXeXeXeXeXeXeXeXqX0X0X8Xe.B.oXeX0XeXwXwXwXeXeXeX3X6X8X0XeXeX0XwXeXeXeXeX0X0X4X3XeXeXwX0X0XwXeXwXqXXXc.9.qXwX5XeXeXeXeXeXeXeXeXeX"
};
