/* XPM */
static char *_b34c8c373114df8b4f357a8ac9b27e25PzUvEYrJxA3RQNY[] = {
/* columns rows colors chars-per-pixel */
"64 64 58 1 ",
"  c #6E6D51",
". c #6D6C57",
"X c #706A50",
"o c #716B51",
"O c #726B51",
"+ c #726A53",
"@ c #706C51",
"# c #726A57",
"$ c #746957",
"% c #746659",
"& c #77665C",
"* c #74675F",
"= c #77665E",
"- c #746858",
"; c #72685F",
": c #6A6B63",
"> c #6B6A66",
", c #6D6966",
"< c #676B6A",
"1 c #696B68",
"2 c #686A69",
"3 c #6A6A68",
"4 c #696B6A",
"5 c #6A6A6A",
"6 c #6A6C6B",
"7 c #696A6C",
"8 c #6A6A6C",
"9 c #726761",
"0 c #906214",
"q c #975B29",
"w c #985A29",
"e c #8C5B3B",
"r c #8C5E3A",
"t c #866329",
"y c #846429",
"u c #835F47",
"i c #A9972B",
"p c #AB962B",
"a c #B4912B",
"s c #B3912D",
"d c #B2922D",
"f c #B4912D",
"g c #B68F30",
"h c #AC8F49",
"j c #BD8747",
"k c #BB8847",
"l c #A49544",
"z c #AB9144",
"x c #AB9146",
"c c #A99246",
"v c #B08A59",
"b c #D5BD53",
"n c #C7BF6C",
"m c #CEBB6C",
"M c #C2BE7F",
"N c #CDC153",
"B c #CEC053",
"V c #C6C06C",
/* pixels */
"4444444444444444444444444444444444444444444444444444444444444444",
"4444444444444444444444444444444444444444444444444444444444444444",
"4444444444444444444444444444444444444444444444444444444444444444",
"4444444444444444444444444444444444444444444444444444444444444444",
"4444444444444444444444444444444444444444444444444444444444444444",
"4444444444444444444444444444444444444444444444444444444444444444",
"4444444444444444444444444444444444444444444444444444444444444444",
"4444444444444444444444444444444444444444444444444444444444444444",
"4444444444444444444444444444444444444444444444444444444444444444",
"4444444444444444444444444444444444444444444444444444444444444444",
"4444444444444444444444444444444444444444444444444444444444444444",
"4444444444444444444444444444444444444444444444444444444444444444",
"4444444444444444444444444444444444444444444444444444444444444444",
"4444444444444444444444444444444444444444444444444444444444444444",
"4444444444444444444444444444444444444444444444444444444444444444",
"4444444444444444444444444444444444444444444444444444444444444444",
"444444444444444444444444<<44447777444444444444444444444444444444",
"444444444444444444444444<<44447777444444444444444444444444444444",
"4444444444444444444444444444444444444444444444444444444444444444",
"4444444444444444444444444444444444444444444444444444444444444444",
"4444444444444444444444444444444444444444444444444444444444444444",
"4444444444444444444444444444444444444444444444444444444444444444",
"4444444444444444444444444477444444447744444444444444444444444444",
"44444444444444444444444444744:.  .:47744444444444444444444444444",
"44444444444444444444444477444.MVnM.44427444444444444444444444444",
"44444444444444444444444477444 nNNn 44477444444444444444444444444",
"44444444444444444444444444444 liplo44422444444444444444444444444",
"4444444444444444444444444444<Xmbbm 44588444444444444444444444444",
"44444444444444444444444444444oxssxo44444444444444444444444444444",
"44444444444444444444444444444oxssxO44444444444444444444444444444",
"444444444444444444444444>4444oxssxo444>4444444444444444444444444",
"444444444444444444444444<4444oxssxo44444444444444444444444444444",
"44444444444444444444444444447OzfsxO44444444444444444444444444444",
"44444444444444444444444477444ozfsxo44477444444444444444444444444",
"44444444444444444444444444444Ozaaxo44477444444444444444444444444",
"44444444444444444444444464644+hgfho44678444444444444444444444444",
"44444444444444444444444444447#y00y-74444444444444444444444444444",
"44444444444444444444444444447-vkjv-44444>44444444444444444444444",
"4444444444444444444447<<44444%rqwr%44444<<444>444444444444444444",
"444444444444444444,447<4444449ueeu*44444<47444444444444444444444",
"44444444444444444444444444444>=%=9,44444444444444444444444444444",
"4444444444444444444444444444444477444444444444444444444444444444",
"4444444444444444444444444444444444444444114444444444444444444444",
"4444444444444444444444444444444444444444114444444444444444444444",
"4444444444444444444444444444441<4>444444444444444444444444444444",
"4444444444444444444444444444441>14444444444444444444444444444444",
"444444444444444444444444114444><11444411444444444444444444444444",
"444444444444444444444444114444<>11444411444444444444444444444444",
"4444444444444444444444444444444444444444444444444444444444444444",
"4444444444444444444444444444444444444444444444444444444444444444",
"4444444444444444444444444444444444444444444444444444444444444444",
"4444444444444444444444444444444444444444444444444444444444444444",
"4444444444444444444444444444444444444444444444444444444444444444",
"4444444444444444444444444444444444444444444444444444444444444444",
"4444444444444444444444444444444444444444444444444444444444444444",
"4444444444444444444444444444444444444444444444444444444444444444",
"4444444444444444444444444444444444444444444444444444444444444444",
"4444444444444444444444444444444444444444444444444444444444444444",
"4444444444444444444444444444444444444444444444444444444444444444",
"4444444444444444444444444444444444444444444444444444444444444444",
"4444444444444444444444444444444444444444444444444444444444444444",
"4444444444444444444444444444444444444444444444444444444444444444",
"4444444444444444444444444444444444444444444444444444444444444444",
"4444444444444444444444444444444444444444444444444444444444444444"
};
