/* XPM */
static char *ENEMY21675895474[] = {
/* columns rows colors chars-per-pixel */
"64 64 81 1 ",
"  c #010000",
". c #0B0000",
"X c #140000",
"o c #1A0000",
"O c #230000",
"+ c #2A1E1E",
"@ c #222222",
"# c #5E2E2E",
"$ c #5A2F30",
"% c #6D2727",
"& c #6E2729",
"* c #622C2C",
"= c #6B2929",
"- c #722526",
"; c #6D3B3B",
": c #7C3535",
"> c #733839",
", c #6E4B4D",
"< c #7F4446",
"1 c #754749",
"2 c #7C4648",
"3 c #75484A",
"4 c #686A67",
"5 c #676B6A",
"6 c #696B6A",
"7 c #726666",
"8 c #706768",
"9 c #8C2D2E",
"0 c #912C2C",
"q c #86302F",
"w c #88302F",
"e c #882F31",
"r c #843131",
"t c #8F3D3F",
"y c #9C373D",
"u c #933C3F",
"i c #98393D",
"p c #A0353B",
"a c #A13F3E",
"s c #9E403E",
"d c #8C3E42",
"f c #844244",
"g c #8C4544",
"h c #8C4847",
"j c #864A4A",
"k c #894949",
"l c #934544",
"z c #9C4140",
"x c #9B7275",
"c c #957678",
"v c #987478",
"b c #A66E6F",
"n c #AC6B6F",
"m c #BA6467",
"M c #B4676D",
"N c #BB656A",
"B c #B2696D",
"V c #A56E73",
"C c #A96D71",
"Z c #A27074",
"A c #C55F65",
"S c #CE5D63",
"D c #C36266",
"F c #C26168",
"G c #AA9E9E",
"H c #DDD7D7",
"J c #DAD9D7",
"K c #DDD7D9",
"L c #D7D8DA",
"P c #D9D9D9",
"I c #FFC3C7",
"U c #FFC8C7",
"Y c #FFC6CA",
"T c #F4CDCE",
"R c #FCCACD",
"E c #EFCFD1",
"W c #F3CED0",
"Q c #E3D4D5",
"! c #EBD1D3",
"~ c #E0D7D8",
"^ c #F2D0D1",
/* pixels */
"6666666666666666666666666666666644556555644466666666666666666666",
"6666666666666666666666666566666646565555666466666666666666666666",
"6666666666666666666666666666666666666666666666666666666666666666",
"6666666666566666666666666666666666666666666666666666666666666666",
"6666666666666666666666666666666666666666666666666666666666666666",
"6666666666666666666666666666666666666666666666666666666666666666",
"6666666665666666665566666666666556666666666666666666666666666666",
"6666666666666666666556666666666666666666666666666666666666666666",
"6666666666666666666666666666666666666666666566666666666666666666",
"6666666666666666666666666666466666666666665566666666666666666666",
"6666666666666666666666666666666665666666666666666666666666666666",
"6666666666666666666666666666666688666666666666666666666666666666",
"665666666666666666666666666     .X.  666665666866666666666666666",
"666666666666666666666666  ..KPP~!c~P    656566666666666666666666",
"6666666666665566666666   QvW~PLQWxQLLPP   6666666666666666666666",
"66666665666655666666   KQ!ZWQPP~RV!~LLPPL   66666666666666666666",
"6666666666666666666 .!KQYn3^QLL!YBW~HPPPPPP  6665455666666666666",
"666666666666666666 .xR^RNdTQJK!WBNCWQPP~!!EWX.665555666666666666",
"66666666666666666  !NDFDSm^PPQYBdddC!LP~RMmmMO.66656666666666666",
"6666666666666666  P!gpdppN!PP!CfRRIC!LP!BFiug2. 6666665666666666",
"666666666566666  PLQ!TETYCQPP~3T!!YZ!LL!BdREQQH  666666666665656",
"66666666666566  LLPPPPPQRZ!Q~QQQLQT,QPPQCY!LPLPP  66666666665566",
"66666666666666  PPPPPPPQoOoooXQKJHQHKPL!VR~KPPPP  66666666666666",
"6666666666666  PPPPPHQ.o>>>>>;X.HHLJPPP~vW~LJPPPP  6666666656666",
"6666666666666  PPPPKQohlwrwrer=#XQJJJPPJQQKPLPPPP  6666666666666",
"666666666666 .LLPP~Qoja00w99e9r&#XQHPPPPPPPPLPPPPP  666666666666",
"666666666666..KKPHQohz0w999900er=#XHJPLPPPPPPPPPPP  666656666666",
"666666666668XvQKK~ojz0er::rree09q%$.HPPPPPHHQQJJPP   66656666666",
"666666666668oZEQHQOl0e>oXXo>r9e0wr*oQPPPLH!ETTHJPPP  66666666666",
"666666666668OVVW!Xhzr:X.  .o:r0ewq=$.PPLJQWVCbTT!!Q. 56666666666",
"666666666668X3dn^Oza:oX    Xo:e09w-#.PPHQTndfdmmmBbo.56655666666",
"666666666668.^RCxOza:oG@   .o>re9w-*.PJH!x<URUtiisjo.66655666666",
"666666666666 !^33Oza:o@@   .o>r90w-*.PPQ!c!!QQ!^^!Q. 66666666666",
"666666666666 HQQQoza:OX    .O:e99w&*.KPK!QKPPPPPPPP  66666666666",
"666666666656 PK~~Xlzr:X.  .X:r999r&$.PLPPKPPPPPPPPP  66666666666",
"666666666665 LPPP!Ol9r>oXXo>r9099r*oQPPPPPPPPPPPPPP  66666666666",
"666666666666  PPP~ojz9rrrr:rw09wr=#.JPLPPPPPPPPPPP   66666666666",
"666666666666  PPPJQolz009w999www&#XQ!!QQQQQQ~HPPPP   66666666666",
"6666666666665 PPPJHQoka000999wr&$XQ!nNURYRRREQJPPP  666666666566",
"6666666666665  LPPJ~^Ollrrrrrr=$X~H!fuBCnCCbZTQPL  6666666666666",
"66646666666666 PPPPQbUoo;>>>>;X.HKPH!T<f<s1<MY!LP  6666666666666",
"66446666666686  PPPQfn!QXoooXX!QHPPHQ^TRRTTUlC!L  66666666666666",
"666666656666666 PPPQYVQPJHQHQ!v^QJPQYZ!QQQQEYZQP 666666666666666",
"666666656666666. PPQRVW!!QJLPQVY!QQ^b<!LLJJQWxQ  666666666666666",
"6666666666556656  PQWBNMV^QJJ!nIUYYZ3WQPLJPQ!c. 6666656666666666",
"66666666665565666  QRdSdf^HJPQ<BBCICWQHJJLPPQ..66666666666665655",
"666666666666666666 .RCMY!QJLP~T2<dDN!KPPLLPP  666666666666666656",
"6666666666666666666.oV3WQPPJJHQ!WYyNEPPPJJP  6666666666666656666",
"66666666666666666666...~JPPPPPHHQWYM~PPPP   66666666666666666666",
"6666666666666666666666   PPPPPPLLQVj~PP   6666666666666666666655",
"666666666666666666666666    PPPPLQv^X   666666666666666666666655",
"666666666666666666666666666       ...666666666666666656666666666",
"6666666666666666666666666666666666686666666666666666666666666666",
"6666666666666666666666666666656666666666666666666666666666566666",
"6666666666666666666666666666666666666666666666666666666666666666",
"6666666666566666666666666666666666466655666666666666666666666666",
"6666666666666666666666666666666666666666666666666666666666666666",
"6656666666666666666666666666666666666666666666666666666666666666",
"6666666666666666666666666666666666666666666666666666666666666666",
"6666666666666666666666666666666666666666666666666666666666666666",
"6666666666666665666666666666666666666666666666666666666666666666",
"6666666666666666666666666666666666664666666666666666666666666666",
"6666666666655666666666666666666666666666666666666666666666666666",
"6666666666655666666666666666666666666666666666666666666666666656"
};
