/* XPM */
static char *ENEMY31675895474[] = {
/* columns rows colors chars-per-pixel */
"64 64 80 1 ",
"  c #010000",
". c #0B0000",
"X c #140000",
"o c #1A0000",
"O c #230000",
"+ c #2A1E1E",
"@ c #232323",
"# c #5E2E2E",
"$ c #5A2F30",
"% c #583030",
"& c #6D2727",
"* c #6C2827",
"= c #622C2C",
"- c #6B2929",
"; c #722625",
": c #6E3B3B",
"> c #7C3535",
", c #7B3738",
"< c #733939",
"1 c #6E4C4D",
"2 c #7F4545",
"3 c #7A4649",
"4 c #75494B",
"5 c #6D6966",
"6 c #676B6A",
"7 c #696B6A",
"8 c #726666",
"9 c #706768",
"0 c #8D2D2E",
"q c #922C2B",
"w c #86302F",
"e c #88302F",
"r c #882F31",
"t c #843131",
"y c #8F3D3F",
"u c #9C373D",
"i c #933C3F",
"p c #99393D",
"a c #A0353D",
"s c #A13F3D",
"d c #9E403E",
"f c #8C3E42",
"g c #844244",
"h c #894042",
"j c #8E4846",
"k c #814348",
"l c #864B4A",
"z c #894949",
"x c #934545",
"c c #9C4141",
"v c #9C7275",
"b c #947678",
"n c #987478",
"m c #AC6B6F",
"M c #B5676D",
"N c #BB656A",
"B c #B2686D",
"V c #A46E73",
"C c #A96D71",
"Z c #A17074",
"A c #CE5C64",
"S c #C36165",
"D c #C46168",
"F c #AA9E9E",
"G c #DDD7D7",
"H c #DAD9D7",
"J c #DBD7D9",
"K c #D7D9D8",
"L c #D9D9D9",
"P c #FFC3C6",
"I c #FFC8C7",
"U c #FFC6CA",
"Y c #F4CDCE",
"T c #FCCACD",
"R c #EFCFD1",
"E c #F3CED0",
"W c #F8CBD0",
"Q c #E4D4D5",
"! c #EBD1D3",
"~ c #E1D7D8",
/* pixels */
"7777777777777777777777777777777777777777777777777777777777777777",
"7777777777777777777777777777777777777777777777777777777777777777",
"7777777777777777777777777777777777777777777777777777777777777777",
"7777777777777777777777777777777777777777777777777777777777777777",
"7777777777777777777777777777777777777777777777777777777777777777",
"7777777777777677777777777777779777777777777777777777777777777777",
"7777777777777777777777777777777777777777777777777777777777777777",
"7777777777777777777777777777777777777777777777777777777777777777",
"7777677777777777777777777777777776667777777777777777777777777777",
"7777776777777777777777777777777799777777777777777777777767777777",
"777767777777777777777777775     ..   777777777777777677777777667",
"777767777777777777777777   .LLKQ!bQL    777777777777777777777776",
"7777777777777777777777   QbEQKLQWvQLLLL   7777667777777777776777",
"77777777777777677777   GQEVYQLLQTVRJLLLKL   77767777777777777777",
"7777777777777777777 .QJ!UC4RQLJQUMEQJLLJLGL  7777777777777777777",
"777777777777777777 .ZWETNfWQ~JQEBMCEQLLJQ!!RX.577777777777777777",
"77777777777777777  !BSSSADEJLQTBghfCQLLQTMDSBO.77767777777777777",
"7777777777777777  L!hppuaM!LL!CfTUPCQLL!BDfff3. 7777777777777777",
"777777777777777  LLJ!ERYUCQKL~1Y!!UVQLL!BfTR!QG  777777777777777",
"77777777777777  LLLLLLLQWZ!Q~QQQJ~E1~LL!CUQLLGLL  77777777777777",
"77777777667777  LLLLLLKQoOoooXQGJJQQJLLQCUQJLLLL  67777777777777",
"7777777767777  LLLGGHQXX:<,<<:X.~JLLLLL~nE~LLLLLL  6777777777777",
"7777777777777  LLLLHQozxtttttt-#XGGLLLLLQ~JLLKJLL  6776677777777",
"777777777777  LLLL~Qozsq00000rt&#XQLLLLLLLLLLLKKLL  776677777777",
"776677777775X.GLLLQoxc000000000t*#XQLLLLLJLLLLLLLL  777777777777",
"776677777779XnQGLQozc0ttt>tw000rr-$.GLHLLLJQ~~JLLL   77777777777",
"777777777778oZ!!QQOx0r<oXXo<t000et=XQLLLLGQREEQJKLL  77777777777",
"777777777778oVVEQXxct,o.  .X,w000e-$.LLLQQYZCCER!!~. 77777777777",
"777777777779X3hCEOcd>O.    XO,t00e;#.LLLQEmhggNSSBVX.66777777777",
"777777777775.EUCvOdd<oF@   .X<w00e;=.KLG!vgIIIyppd2o.77777777777",
"777777777777 QE44Ods,o+@    o<w00e;=.LLG!b!!QQ!RE!Q. 77777777777",
"777777777777 GQ!QOcd>oX    XO,t00e;=.LLGQ!HLLLLLLLL  77777777777",
"777777777777 LG~Hoxdw,o   .X>erq0e&#.KLLQJLLLLLLLJL  77777777777",
"777777777777 LLLGQOx0w<oXXo<trq00w=oQKLLLLLLLLLLJLL  77777777777",
"777777777777  LLL~Xlc0rtt,ttrqqet&$.GLLLGLLHLLLLLL   77777777777",
"777777777777  LLLHQojdrqqrqrqret&=XQRRQQQQQQQLJKLL   77777777777",
"7777777777777 LLLLJ!ozcqqrqqeer&$XQ!BNUTTTTY!QLLLL  777777777777",
"7777777777777  LLLLQEOxctttttt-#XQL!gimmmmmVCE~LL  7777777777767",
"77777777777777 LLLL~CPoo<<<<<:X.HLL~!Y2gggggBU!LL  7777777777777",
"77777777777777  LLL!zCQGXooooX!QHLLHQRYYYTYUfC!L  77777777776676",
"777777777777777 LLLQUV!L~QQQGQvYQLLQUm!QQQQ!UV~L 777777777777777",
"777777777777777  LLQWCW!Q~HKH!ZTR!QRC2QGLLLQWn~  776777777777777",
"7777776777776777  LQWMNMCRQHL!mITTTZ4Y~JLLLQ!b. 6777777767777777",
"77777777777777777  ~WfAfgRGLLQ2BCBPmEQJLLLLH!. 77777777777777777",
"777777777777777777 .WBMUR~~LH~E3ghSMYGLLLLLL  777777777777777777",
"7777777767777777677.oZ4E~LLLH~Q!YIuN!LLLLLL  5777777777677777777",
"77777777777777777777...~LLLLLHH~QYPM!LLLL   77776777777777777777",
"7777777777767777777777   LLLLLLLL!C2QLL   7777777777677777777777",
"777777777777777777777777    LLLLL~bE.   677777777777777777677777",
"777777777777777777777777776       XX 777677777777777777777777777",
"7777777777777777777777777767777767557777667777777777777777777777",
"6676777677777777777777777777777677777777777777677777777777777777",
"7777777777677777777777777777777777777777777777777777777777777777",
"7677777777777777777777777677777776777777777777777777777777777777",
"7777777777777777777777777777776677777777776677777777777777777777",
"7777777777777777777777777777776677777777776677777777777777777777",
"7777777777777777777777777777777777777777777777777777777777777777",
"7777777777777777777777777777777777777777777777777777777777777777",
"7777777777777777777777777777777777777777777777777777777777777777",
"7777777777777777777777777777777777667777777777777777777777777777",
"7777777777777777777777677777777766777777777777777777777777777777",
"7777777767777777777777777777777766777777777777777777777777777777",
"7777777777777777777777777777777777777777777776777777777777777777",
"7777777777777777777777777777777777777777777766777777777777777777"
};
