/* XPM */
static char *ENEMY71675895475[] = {
/* columns rows colors chars-per-pixel */
"64 64 84 1 ",
"  c #010000",
". c #0C0000",
"X c #130000",
"o c #1B0000",
"O c #230000",
"+ c #2D0000",
"@ c #2C1E1E",
"# c #222222",
"$ c #5F2D2E",
"% c #583030",
"& c #6D2727",
"* c #6C2827",
"= c #6D2729",
"- c #642B2C",
"; c #6C2829",
": c #732525",
"> c #773737",
", c #7D3435",
"< c #753837",
"1 c #753738",
"2 c #793738",
"3 c #753938",
"4 c #783838",
"5 c #694C4E",
"6 c #7D4546",
"7 c #7B4648",
"8 c #75494A",
"9 c #676B6A",
"0 c #696B6A",
"q c #726666",
"w c #706866",
"e c #852F2E",
"r c #8C2E2E",
"t c #84312F",
"y c #89302F",
"u c #852F30",
"i c #892F31",
"p c #843131",
"a c #8A3030",
"s c #8F3D3F",
"d c #943A3E",
"f c #98393D",
"g c #A33E3D",
"h c #8C3E43",
"j c #933B41",
"k c #9F3F40",
"l c #844244",
"z c #8B4345",
"x c #804348",
"c c #854B4A",
"v c #934444",
"b c #9B4140",
"n c #977476",
"m c #9B7375",
"M c #947678",
"N c #AC6B6F",
"B c #BF6367",
"V c #B6676D",
"C c #BB656A",
"Z c #B1696E",
"A c #A56E72",
"S c #AA6C71",
"D c #A17073",
"F c #C85F66",
"G c #C26266",
"H c #C16268",
"J c #AC9E9E",
"K c #FFBFC6",
"L c #DDD7D7",
"P c #DBD8D7",
"I c #DDD7D9",
"U c #D9D9D9",
"Y c #EECECF",
"T c #FFC5C7",
"R c #FFC5CA",
"E c #F4CDCE",
"W c #FBCACC",
"Q c #F2D0CF",
"! c #EFCFD1",
"~ c #F3CDD0",
"^ c #F8CBD0",
"/ c #E3D5D5",
"( c #EBD1D3",
") c #E1D7D8",
/* pixels */
"0000000000000000000000000000000000000000000000000000000000000000",
"0000000000000000000000000000000000000000000000000000000000000000",
"0000000000000000000000000000000000000000000000000000000000000000",
"0000000000000000000000000000000000000000000000000000000000000000",
"0000000000000000000000000000000000000900000000000000000000000000",
"0000000000000000000000000000000000009900000000000000000000000000",
"0000000000000009000000000000000000000000000000000000000000000000",
"0000000000000999000000000000000000000000000000000000000000000000",
"0000000000000000000000000000000099000099990000000000000000000000",
"0000000000000000000000000000000009000999990000000000000000000000",
"0000000000000000000000000000000000000000090000000000000000000000",
"000000000000000000000000000      .   000000000000000000000000000",
"000000000000000000000099  ..LUUL~M)U    000000000000000000000000",
"0000000000000000000009   (MQLUU/^D)IUUP   0900000000000000000000",
"00000000000000000000   )/!D~/UU/^A)IUUUUU   00000000000000000000",
"0000000000000900000 .(/(^S8E/UI(RS^/LUUUI//. 0000000000000000000",
"000000000000000000 .ARWRHh~/UL/WBFVR/UUL/!~EX.000000000000000000",
"00000000000000000  /NCZVGC~UU/ESjjjS!UU)~SSNDX.00000000000000000",
"0000000000000000  U/7lxzdV(UU/Nl^~RA/UU!CBz668  0090000090000000",
"000000000090900  UU/YWWRRS/UU/7W(/^m/UU!CjTEWQ/  000090099000000",
"00000000000000  UUUI///(~n/UUL(/IL!5)UU/SR~///PU  00000000000000",
"00000000000000  UUUUUU//ooXXX./IUL//LUU/m^/UUUUU  00000000000000",
"0000000000009  UUUUUULXO,pp,>3o.LULLUUU)M~LUUUUUU  0000000000000",
"0000000000000  UUUUL/ocvarrrrp;%./UUUUUL//IUUUUUU  0000000000000",
"000000000000  UUUUU/Ovvyyrrrrrp=-XLUUUUUPLUUPUUUUU  000000000000",
"000000000000..PUUULozbaaaairrrru;$XLLUUUUUUUUUUUUU  000000000000",
"00000000000wXn/PU)Xcbyt,43ppirrrp;%.IUUUUUUUUPUUUU   00000000000",
"0000000000wqOAE/L(Ovyp>OooO3iirrip-o/UUUUP/(((//)))  00000000000",
"00000000909wONZW/Xvkp>X....X3prrie;%.UUUU/RZCCWW^^(. 00000000000",
"00000000009wo6zZQobgpO.    .O,irrr:-.UUULENdddZNSSmX 00000000000",
"000000000000.(WNA+kg,oJ#   .o3arrr:-.UU)~m8EQE8lx78. 00000000000",
"000000000000 LQ88+kg,o@#   .o,prrr:-.UU/EmQ/P/QWW^(. 00000000099",
"000000000000 U/)/obgpO.    .O,rrrr:-.UUUL/LUUL////L  00000000000",
"000000090000 UUUUXvbp,X....X3prrra*$.UUUUUUUUUUUUUU  00000000000",
"000000000000 UUUU/+vpp2OooO<pyrrrp-oLUUUUUUUUUUUUUU  00000000000",
"000000000000  UUU/Xcvyp,4>,trrrrp;%.//UUUUUUUUUUUU   00000000000",
"000000000000  UUUU/Xvbariiyrrrrt*$.(EE/UUUUUUUUUUU   00000000000",
"0000000000000 UUUUI/Ozvyrrrrrip;-X)/AAE!!!!!//UUUU  000000000000",
"0000000000000  UUUU)~Ocvirrriu-%.)L/8lCBGGHCS~/UU  0900000000000",
"00000000090099 UUUU/MWoO,,,,,1OXLUP/ETjffffjVR/UU  0000000000000",
"00000000000000  UUU/xN(/.XXX.X(()UULQ~~(YQ!WhS(U  00000000000000",
"000000000000000 UUU(RZ~/)IUUU)M()PL/~n/UUUU/RS(U 000000000000900",
"000000000000000  UU/RSW~~/LUU/m^/I(~Nx/UUUU/WA/  900000000000000",
"0000000000000000  U/^NZSm(IUU/ARE~WDlW/UUUU/~n. 0000000000000000",
"00000000900000000  /WzVh8(LUU/lBBCKN~/IUUUUP/  00000000000000999",
"000000000000000000 .ESNR~/LUU(WzdfGZ!UUUUUUU  000000000000000000",
"0000000000000000090.Xm8E/UUUPL/((WzN!UUUUUP  0000000000000000000",
"00000000000000000900.X./IUUUUUUUI(TZ/UUUU   00000000000000900000",
"00000000000000000900ww   IUUUUUUU(Zz/UU   0000000000000000000000",
"000000000000000000009900    UUUUU(DWX   090000000000000000000000",
"000000000000000000000000000       .. 000000000000000000000000000",
"0000000000000000000000900000000000000000099000000000000000000000",
"0000000000000000000000000000000000000000009900000000000000000000",
"0000000000000000000000000000000000000000009900000000000000000000",
"0000000000000000000009000000000000000000000000000000000000000000",
"0000000000000000000000000000000000000000000000000000000000000000",
"0000000000000000000000000000000000000000000000000000000000000000",
"0000000000000000000009000000000000000000000000000000000000000000",
"0000000000000000000000000000000000000000000000000000000000000000",
"0000000000000000000000000000000000000000000000000000000000000000",
"0000000000000000000000000000000000000000000000990000000000000000",
"0000000000000000000000000000000000000000000000900000000000000000",
"0000000000000000000000000000000000000000000009990000000000000000",
"0000000000000000000000000000000000000099000099990000000000000000"
};
