/* XPM */
static char *ENEMY11675895474[] = {
/* columns rows colors chars-per-pixel */
"64 64 78 1 ",
"  c #010000",
". c #0C0000",
"X c #130000",
"o c #1B0000",
"O c #230000",
"+ c #2E0000",
"@ c #2C1E1E",
"# c #232323",
"$ c #5F2D2E",
"% c #583030",
"& c #6D2727",
"* c #642B2B",
"= c #6C2829",
"- c #732525",
"; c #773737",
": c #7D3435",
"> c #753837",
", c #763738",
"< c #763938",
"1 c #783839",
"2 c #6B4D4F",
"3 c #7D4546",
"4 c #764749",
"5 c #7B4649",
"6 c #74494A",
"7 c #686A67",
"8 c #676B6A",
"9 c #696B6A",
"0 c #736766",
"q c #8C2E2E",
"w c #85312F",
"e c #88302F",
"r c #852F30",
"t c #882F31",
"y c #843132",
"u c #8A3030",
"i c #953A3F",
"p c #98393D",
"a c #A43D3D",
"s c #9F403E",
"d c #8D3E42",
"f c #933B41",
"g c #9F3F40",
"h c #834244",
"j c #8A4345",
"k c #834B4A",
"l c #894949",
"z c #934444",
"x c #9B4140",
"c c #977576",
"v c #9A7376",
"b c #947679",
"n c #AC6B6E",
"m c #BF6466",
"M c #B6676C",
"N c #BB656A",
"B c #B1696E",
"V c #A56E72",
"C c #AA6C71",
"Z c #A17074",
"A c #C85F66",
"S c #C26266",
"D c #C26268",
"F c #AC9E9E",
"G c #FFBFC6",
"H c #DDD7D7",
"J c #DBD8D7",
"K c #D9D7D8",
"L c #D7D9D8",
"P c #D9D9D9",
"I c #FFC5C7",
"U c #FFC6CA",
"Y c #F4CDCE",
"T c #FCCACD",
"R c #EFCFD1",
"E c #F4CDD0",
"W c #E3D5D5",
"Q c #EBD1D3",
/* pixels */
"9999999999999999999999999999999999999999999999999999999999999999",
"9999999999989999999999999999999999999999999999999999999999999999",
"9999999999999999999999999999999999999999999999999999999999999999",
"9999999999999999999999999999999999999999999999999999999999999999",
"9999999999999999999998999999999977999999999999999999999999999999",
"9999999999999999999999999999999999999999999999999999999999999999",
"9999999999999999999999999999999999999999999999999999999999999989",
"9999999999999999999999999999999999999999999999999999999999999999",
"9999999999999999777999998899999999999999999998999999999899999999",
"9999999989999999779997998999999999999999999999999999999999999999",
"9999999999999999999999999999999899999999799999999999999999998999",
"8999999999999999999999999999999999999999799999999999999999999999",
"9999999998999999999999999999979999999999998999999999999999999999",
"999999999999999999999999990      .   999999999999999999999999999",
"999999999999999979999999  ..HPPWEvWP    999999999999999999999999",
"9999999999999999989999  .WcEHPPWTZWPPPP   9999789999999999999999",
"99999999999999999999   JWRVEWPPWTZWPPPPPP   99998899999999999999",
"9999999999999999999 XQWQTV4EWPPQUCEQHPPPJWW..9998899999999999999",
"999999989999999999 .VUTUDzEWJKWTNAMTQPPPWRYYX.099999999999999999",
"99999888999999999  WCMBMSNRPPWECfffCQPPWECCCvX 99999999999999999",
"8999999999999999  JW5hhjiMQJPWnhETUVQPPQMAd536  9999999999999987",
"899999999999999  JLWETTUICWLPW5TWWEvWPPQNgUETQW  999999999999978",
"99999999999999  PPLJWWWQEvWPPJWWHWE2WPPQCURWWWJP  99999999999977",
"99999999999999  PPLLLLWWooX.XXWWPHWWPPPWvEWPPPPP  99999999999777",
"9999999999999  PPLPPPJXO:y::y,o.HPWJPPPWbRWPPPPPP  9999999999999",
"9999999999999  PPPPJWokzeqqqqy*%.WJPPPPPWQPPPPPPP  9999999999999",
"999999999999  PPPPPWOzxeqqqqqqy=$XWPHPPPJHJPPPPPPP  999999999999",
"999999999999..PPPPWojxeeuteqqqqy=$.JPPPPPPPPPPPPPP  999999999999",
"999999999990ovWPPWokzey:1;:yqqqqy=%XWPPPPPPJPPPPPP   99999999999",
"999999999990OVEWJWOzee<OooO<yqqqty*XWPPPJJWQQQQWWWJ  99999999999",
"999999889990OCBTWXzsy<o....X,ytqtt=$.PPPPWUBDMTTTEQX 99999999999",
"999999989990X5dBEoxayO.    .O:tqqt-*.PPPWQCiizBnnVcX.99999999999",
"999999999999 QTCZ+aa:oF#   .o,tqqq-$.PPWRZ4EEE5hh36. 99999999999",
"999999999999 WE45+aa<o@#   .o,tqqq-*.PPWRvQQHWEETRQ. 99999999999",
"999999999999 JWWWoxayO.    .O:wqqq-*.PPLWWWPPHWQWWH  99999999999",
"999999999999 JPPPXzxu<X....X1yqqqu=$.LPPPPPPPPPPPPP  99999999999",
"999999999999 PPPPWOzuy<OooO,yqqqty*oWLPPPPPPPPPPPLP  98899999999",
"999999999999  PPPWokxeyy,<:yqqqqy=%XWWPPPPPPPPPPLP   98899999999",
"999999998999  PPPLWXlsqqeyeqqqqy&$.WYYWPPPPPPPPPPP   99999999999",
"9999999989999 PPPPPWOjsqqqqqqey=$XWWZVYQRRRQQWPPJP  999999999999",
"9999999999999  PPJPWQOlzttqtqt*$XWLW5hNSSDSNCEWPP  9999999999999",
"99999999999999 PPPPWcTOO11y::,oXHPLWYIiipipiMTQPP  9999999999999",
"99999999999999  PPPQkCQW.X.XXXQQWPPWQYERRRRTdCQP  99999999999999",
"999999999999999 PPPWUBRWWPPPPWbRWJJWEcWPLJLWUCWP 999999999999999",
"998899999999999  PPWUCUEQQPPPWvEHJWEn3QPJPPWTCW  999999989999999",
"9988999999999999  KWTCBCvQWPPQVTYETChUWKPPPWRv. 9999999999999999",
"99999999999999999  WThMj4QHPPQdNmNGCEWHPPPPJW. 99899999999999988",
"999999999999999999 .YnBUEWHPPWTdfpDBQPPPPPPP  898899999999999988",
"9999999999999999999.Xb6EWPPPPPWQQTdBWPPPPPP  9999999999999999999",
"99999999999999999989.XXWHPPPPPPPPQUBQPPPP   99999999999999999999",
"9999999999999989999999.  PPPPPPPPQBlQPP   9999999999899999999899",
"999999999999999999999999    PPPPPQZTX   999999999999999999998998",
"999999999999999988999999999       .. 999999998889999999999999999",
"9999989999999999889999999999999999999999989999889999999989998999",
"9999999999999999999999999999999999999999999999999999999999999999",
"9999999999999999999999999999999999999999999999999999999999999999",
"9999999999989999999999999999989999999999999999999999999999999999",
"9999999999999999999999999999999999999999999999999989999999999999",
"9999999999999999999999999999999999999899999999999999999999999999",
"9999999999999999999999999999999999999999999999999999999999999999",
"9999999999999999999999999999999999889999999999999999999999999999",
"9999999999999999999999999999999999889999999999999999999999999999",
"9999999999999999999999999999999999999999989999999999999999999999",
"9989899999999999999899999999999999999999999999999999999999899999"
};
