/* XPM */
static char *_64fd49b9114440be4a1370b331f31edA0kqNS2Jd28xDDPD[] = {
/* columns rows colors chars-per-pixel */
"64 64 241 2 ",
"   c #002F16",
".  c #013215",
"X  c #06371A",
"o  c #0B3E28",
"O  c #0A4318",
"+  c #184C1E",
"@  c #21511F",
"#  c #0E4422",
"$  c #0A4629",
"%  c #134829",
"&  c #0C572A",
"*  c #14542C",
"=  c #18562A",
"-  c #134532",
";  c #0F5430",
":  c #115632",
">  c #1A5A36",
",  c #0F4930",
"<  c #255A24",
"1  c #285F26",
"2  c #2B5C29",
"3  c #265727",
"4  c #265C34",
"5  c #315C2E",
"6  c #12652E",
"7  c #1A6D2F",
"8  c #17672E",
"9  c #1E722F",
"0  c #146432",
"q  c #1B6333",
"w  c #1B6934",
"e  c #0F6130",
"r  c #21612D",
"t  c #2C632C",
"y  c #2D6C2B",
"u  c #2A6726",
"i  c #326C2C",
"p  c #2E722B",
"a  c #2F7326",
"s  c #34752C",
"d  c #367A2D",
"f  c #3B7C2E",
"g  c #397528",
"h  c #246533",
"j  c #236D32",
"k  c #2C6C35",
"l  c #2A6438",
"z  c #336432",
"x  c #356A38",
"c  c #247332",
"v  c #2C7435",
"b  c #2B7934",
"n  c #2B7636",
"m  c #347434",
"M  c #397533",
"N  c #3B7C33",
"B  c #33743A",
"V  c #387636",
"C  c #356B1D",
"Z  c #437D2C",
"A  c #497D2B",
"S  c #477F33",
"D  c #2F5F42",
"F  c #376A42",
"G  c #397343",
"H  c #2D6F41",
"J  c #467A46",
"K  c #5C7C5B",
"L  c #557957",
"P  c #4D7752",
"I  c #607F5F",
"U  c #507E61",
"Y  c #3D812D",
"T  c #3F8427",
"R  c #3C8134",
"E  c #45842D",
"W  c #4C822D",
"Q  c #4C8A2E",
"!  c #518D2E",
"~  c #52832D",
"^  c #468532",
"/  c #468931",
"(  c #4C8B33",
")  c #478738",
"_  c #518D32",
"`  c #568D3A",
"'  c #4D9239",
"]  c #549334",
"[  c #5B9634",
"{  c #54943A",
"}  c #5D9B3C",
"|  c #58973A",
" . c #629B3A",
".. c #659C37",
"X. c #709E3C",
"o. c #5EA038",
"O. c #6AA13B",
"+. c #6AA438",
"@. c #75AA3D",
"#. c #5B845A",
"$. c #5C925C",
"%. c #4D854C",
"&. c #659B43",
"*. c #6CA443",
"=. c #68A444",
"-. c #74AA46",
";. c #71A749",
":. c #77AA48",
">. c #7CAD52",
",. c #74A454",
"<. c #7EB356",
"1. c #6EA559",
"2. c #5D8260",
"3. c #5D8B66",
"4. c #618565",
"5. c #789B7A",
"6. c #67976D",
"7. c #79A67A",
"8. c #79AF70",
"9. c #83B44B",
"0. c #80AF53",
"q. c #84B456",
"w. c #8CBB5B",
"e. c #84B557",
"r. c #91BB5C",
"t. c #8DBA64",
"y. c #8AB764",
"u. c #92BD6C",
"i. c #86BC78",
"p. c #96BF73",
"a. c #809A7D",
"s. c #99C36E",
"d. c #9AC375",
"f. c #9DC479",
"g. c #98C576",
"h. c #8CC172",
"j. c #A2C67A",
"k. c #A0C66F",
"l. c #7FA482",
"z. c #859D83",
"x. c #939593",
"c. c #85A185",
"v. c #8BA58A",
"b. c #8AAA8D",
"n. c #86A886",
"m. c #87B48B",
"M. c #8AAD90",
"N. c #8BB492",
"B. c #96BA99",
"V. c #98A797",
"C. c #9EA2A1",
"Z. c #A8A9A9",
"A. c #A3BDA4",
"S. c #B4B8B6",
"D. c #96C98B",
"F. c #98C597",
"G. c #97CC8D",
"H. c #A6C685",
"J. c #A4CB84",
"K. c #A5CC8A",
"L. c #A9CD8C",
"P. c #AACC83",
"I. c #A9D48E",
"U. c #B1CD96",
"Y. c #AED194",
"T. c #ABD898",
"R. c #B2D193",
"E. c #B4D59B",
"W. c #B7D79D",
"Q. c #AECE95",
"!. c #9CC2A4",
"~. c #A6C9AB",
"^. c #BAD7A4",
"/. c #BADAA5",
"(. c #BEDCA9",
"). c #B9D5AA",
"_. c #B5CCB4",
"`. c #B5CEB8",
"'. c #B9D7B6",
"]. c #AAD0AB",
"[. c #BCEDBA",
"{. c #B8EAA4",
"}. c #ADE09E",
"|. c #C1DDAD",
" X c #C3DDB3",
".X c #C4DABC",
"XX c #C5DBB2",
"oX c #C3E1AF",
"OX c #C1E8A7",
"+X c #C4E0B1",
"@X c #C7EBBC",
"#X c #C4F4B8",
"$X c #C0F3AE",
"%X c #C7DCC6",
"&X c #D1D4D3",
"*X c #CBE6C6",
"=X c #D7FDCA",
"-X c #D9EAD6",
";X c #DBF7D8",
":X c #D0EECB",
">X c #E2F5DF",
",X c #E6E9DE",
"<X c #E0DEE1",
"1X c #DEE6E2",
"2X c #DDF4E0",
"3X c #E4E4E5",
"4X c #E5ECE5",
"5X c #E9ECE5",
"6X c #E7E6E9",
"7X c #ECECEC",
"8X c #E9E6E8",
"9X c #F0ECEF",
"0X c #E4F4E3",
"qX c #EAF4E6",
"wX c #E4FCE4",
"eX c #EDF3EC",
"rX c #ECFBEC",
"tX c #E7F7E8",
"yX c #F1F3EE",
"uX c #F2FCEE",
"iX c #EEEDF1",
"pX c #F2EEF3",
"aX c #EEF2F0",
"sX c #ECFDF1",
"dX c #F5F5F5",
"fX c #F3F3F3",
"gX c #F9F4F6",
"hX c #F6F9F5",
"jX c #F4FCF3",
"kX c #F9FDF5",
"lX c #F6F5F8",
"zX c #FAF6FA",
"xX c #F6FCF9",
"cX c #FAF9F9",
"vX c #FAFEFA",
"bX c #FCFEFB",
"nX c #FDFAFE",
"mX c white",
"MX c #FFFEFF",
"NX c #FEFDFD",
"BX c #FCFDFC",
/* pixels */
"fX7X7XfXdXBXNXNXdXfX7X7XdXNXNXNXNXiXiXlXiXxXNXdXNXdXtX6XqXaXjXBXNXnXgX9X9XpXgXBXgXnXgX9XgX9X9XNXhXkXNXuX7X4XeXfXjXNXNXjXeX5XeXfX",
"7X7X7X7XhXNXNXNXdX7X7X7XdXNXNXNXBXiXiXpXiXzXNXNXNXhX7X6X7XaXBXNXNXnXpX5X8XpXzXBXnXNXzX9X9X9X9XNXNXNXBXyXqX6XeXjXBXNXNXjXeX5XqXeX",
"7X7X7XfXlXNXNXNXdX7X7X7XfXNXNXNXBXiXiXiXiXxXNXNXNXhXaX6XiXaXcXNXNXhXyX7X7X9XzXNXNXNXgX7X9X5X9XNXNXNXkXfX7X5X7XfXNXNXNXhXaX5X7X7X",
"7XfX7XfXdXcXBXBXdXfXfXfXdXcXNXNXxXfXfXaXiXzXNXNXNXlXfXaXiXfXzXzXbXgXfX9X9XyXhXnXbXbXyX9X9XyXfXgXNXkXhXfXfXeXfXfXNXkXBXhXdXfX7XeX",
"dXcXcXdXfXfXpXeXfXhXcXcXcXdXfXfXfXhXhXhXzXdXfXdXfXlXzXzXzXlXlXpXyXyXfXhXkXgXyXyXyXyXyXhXyXhXhXfXyXfXlXlXzXlXzXfXpXfXpXfXzXcXcXcX",
"NXNXNXcXfX7X7X5XdXcXNXNXcXfX7X7XeXBXNXNXNXfX7XiXiXfXBXNXBXzXlXiX7XyXhXNXbXhXyXqX7X5XfXNXbXNXnX9X6X7XpXzXNXNXBXfXiX7XpXlXcXNXNXNX",
"NXNXNXNXfX7X7X6XdXNXNXNXdXpX7X7X7XNXNXNXNXfX3XiX6XlXBXBXBXzXpX6X6X9XnXNXBXnXpX7X9X6XfXNXnXNXBX8X7X7X9XlXNXNXNXlX7X6X7XpXBXNXNXNX",
"NXNXNXcXfX7X7X6XdXNXNXNXdX7X7XeX7XNXNXNXNXaX3XfX6XlXBXBXBXzXpXiX7X9XzXNXNXBXfX8XfX8XfXNXnXNXBX8X7X7X9XpXNXNXNXzXpXiXiXfXBXNXNXBX",
"dXdXfXfXfXdXdXcXdXfXdXfXfXfXdXdXgXyXgXyXyXfXjXdXxXiXiXxXxXaX7XxXfXBXlXpXBXpX6XBXpXzXzXpXzXzXlXpXcXdXfXdXlXfXdXlXlXzXBXzXfXpXdXBX",
"eXfX7XfXdXcXNXNXfXfX7X7XfXdXcXNXgXyX5X9XyXfXxXBXaXxXxX1X1XaXxXxXzXNXiX6XfXfXpXNXBXNXlX6X3X1XpXBXzXzXlXfXiX7XpXfXzXcXcXdXiX6X7XiX",
"7X6X7X7XcXNXNXNXfXfX7X6XfXcXNXNXgXfX5X5X9XhXNXBXxXxX0X1XtXsXxXxXxXNX7X-X5XeXyXhXkXxXfXeXjXjX7X7XNXNXNXhX7X7XpXdXNXNXNXkXfX7X7X7X",
"7X7X7XfXcXNXNXNXfX7X7X7XfXNXNXNXgXfX8X7XyXhXkXBXxX0X1X2XsXsXsXsXjXjXjXqXrXuXjXuXjXjXjX0XrXjXrX0XBXNXkXeX4X6XqXeXBXBXjXhXeX5X7XeX",
"dXfXfXfXcXcXcXhXfXfXfXdXhXcXcXdXzXgXpXgXdXjXhXsXxXjXwX`.B.N.l.L L K I I I I I L P I I L K a..XuXuXjXuXeXeXrXfXeXeXjXjXjXrXeXeXjX",
"BXBXnXcXdXdXfX7XfXdXcXNXcXdXfX9XgXgXgXgXhXfXeXtX2X`.B.b.l.l.l.U 2 3 2 z 5 2 5 3 x 3 3 2 2 @ P B.wXeXrXeXuXjXjXrX0XqXqXrXjXuXjXjX",
"NXNXNXNXdX7X7X7XfXcXNXNXzXfX7X7XgXgXNXNXcXyXtX0X0XA.c.N.l.F.F.m.%.u u i t u i t i 1 < M S y < Z -XeXjXjXkXBXjXhXuXrXjXjXkXkXjXjX",
"NXNXNXNXdX7X7X7XdXBXNXNXdX7X7X7XpXzXNXNXkXeX4X0XB.b.N.5.P 3.l.N.i.%.u g g i Z g i S f u i M a t #.5.c.c.z.v.v.z.z.z.z.c.v.v.v.c.",
"NXcXNXcXdXfX7X7XdXcXNXcXhXfX7X7XfXcXnXgXkX,XkX*XM.~.U   o   o N.G.1.C g A g Z g N b b b d s g g t 3 @ < 3 3 3 < < < < < < < < < ",
"7X7X7XfXcXcXNXcX7XfXpXfXdXcXNXNXfXfX9X5XuXuX>X_.~.3.$   - - o D m.p.` A A A W Z R R R R Y E E f f a u u a y u y y y y y y y y y ",
"7X7X7X7XcXNXNXNXdX7X7X7XfXcXNXNXcXyX5X,X5XkX-XA.B.4 . , , $ - o $.I.y.S ~ ~ ~ ( ( ) ) ) / / Q Q ) ^ d d s s M d M f M d s f M f ",
"fX7X7X7XcXNXNXNXdX7X7X7XfXcXNXNXNX7X7X7X,XkX.X~.6.# # q $ o > o r G.J.` A [ ~ ! ' ' ' ' ' ' ! ] %.) f g f f f ^ f f f f f f f f ",
"7X7X7XfXdXNXNXNX7X7X7XfXhXNXNXNXnX5X5XkX,XuX).~.F # O : , , > % O 8.}.;.[ X. ...[ | ] ] { | [ [ } { Q E E E Q E E E E E W E E E ",
"zXhXdXdXdXfXfXdXfXdXdXcXhXdXdXfXgX9XgXbXqX,X_.A.% = = & : : : : O $.}.h.&.......o.o.o.o.o.O. . .=. .] Q Q ] ] ! ] ! _ ! _ ! _ _ ",
"NXNXNXcXeX7X6X7XcXNXNXNXfX7X7X6XfXnXNXbXkX-X).5.O = w 0 & & : > % h G.T.*.O.@.+.+.+.=.+.*.*.@.*.*.*. .] [ .. .[ [ [ [ [ [ [ [ [ ",
"hXNXNXnXfX7X7X7XfXNXNXNXfX7X7X7X8XNXNXuXkX:X'.P = & e e e e q > h & D.{.-.@.9.@.@.-.-.-.-.-.:.:.-.-.@.O...*.*...O.O.O.O.O.O.O.O.",
"BXNXNXBXfX7X7X7XcXNXNXNXdXfX7X7XgXfXNXbXuX-X'.F q 8 8 6 0 0 q q > l 7.[.s.>.9.9.9.9.q.9.9.e.q.9.q.q.0.:.-.:.:.:.-.-.:.:.:.:.:.-.",
"dXdXhXlXdXfXfXfXdXdXzXhXdXfXfXdXfX9XkXuXqX*X].t r 8 8 8 8 8 w q 4 4 6.#Xg.w.r.r.w.w.w.h.h.w.w.h.r.t.w.0.>.0.0.0.0.0.0.0.0.0.0.>.",
"7X7X7XfXcXcXNXNXfX7X7XeXfXcXNXNXnX9X9XqX>X:X!.1 h 7 7 7 w w h h l > $.#XE.k.k.k.s.s.g.g.s.g.s.s.g.s.s.t.e.t.t.t.t.t.t.t.t.t.t.t.",
"7X6X7XpXcXNXNXNX7X7X6X7XfXNXNXNXNX9XqX,X>X:XB.< j 9 9 9 9 c j k H q %.#XOXj.P.j.J.J.J.K.J.J.P.P.P.P.H.p.p.j.j.f.f.j.f.f.j.f.f.j.",
"yX7X7X7XdXNXNXNXfX7X6X7XyXcXNXNXNXfXeX0X>X;XN.t v v c c c v k m H h G @X#XR.R.R.U.Y.Y.Y.Q.R.R.R.R.R.I.I.K.L.L.L.L.L.L.L.L.L.L.L.",
"dXfXfXfXdXhXcXhXdXfXfXfXfXdXdXdXfXfXyXtX>XwXm.h v v c b b m x B G k J @X#XW.|.U.^./.'.).^.|.W.W.W./.W.E.E.E.^.E.^.E.W.E.^.E.^.E.",
"cXcXcXcXfXfXpX7XdXhXnXNXzXfXeX7X7XlXBXuX0X>X7.z B b b b b m M V B B J [.=X|.XX|.'..X'.'.|.|.|.|.|.oX|.(.).|.|.|.(.|.|.(.|.|.).|.",
"cXNXNXcXfX7X7X7XdXnXNXNXcXfX7X7X7XxXBXjXwXwX7.m B b b b B M M x G G S +X=XXXXXXX.X%X%X.X.XXXXX|.+X+XXX|.|.+XXX|.XX|.XX+X|.+XXX|.",
"NXNXNXcXfX7X7X7XzXNXNXNXzXeX7X7XiXhXNXkXwXwX7.x B b b b B V M x B G G [.;X[.@X'..X.X.X.XXXXX|.|.oXoXoXoX(.+X+X(.+X+X|.+X+XoXoXoX",
"cXcXBXdXfXfX7X7XdXcXcXhXdXfX7XfXaXhXjXjXwX>X7.k B b b b m V M V H G G [.=X). X)..XXX.X.XXXXX|.|./.(.(./././././.(.(.OX(.(.(.(.(.",
"dXdXfXfXfXdXcXdXdXfX7XfXdXdXcXcXdXaXyXqX0X>Xn.y b b n c n v B B G D G [.:XT.).^.|.|._.XXA.W.W.W.W.W.E.Y.Q.E.E.Y.E.E.E.T.E.E.E.T.",
"7X7X7XyXdXNXNXNXfX7X7X7XfXcXNXNXNXfXeX0X>X;XN.h v v c c c v k x G l J [.#XK.Y.Q.U.U.U.U.U.U.U.L.I.I.I.J.J.K.L.K.K.K.K.K.K.K.K.P.",
"7X7X7X7XzXNXNXNXeX7X6X7XfXcXNXNXNXpX5X4X0X-XB.2 j j j 9 c c j k H 4 %.#X{.g.J.P.H.H.H.H.H.H.J.J.J.j.g.g.g.g.f.d.d.f.g.f.g.g.d.d.",
"7XiX7XfXhXcXNXNXfXpX7X7XdXhXnXNXcXiXyXeX0X*XF.1 h 7 7 7 7 w h h l h $.#XT.s.s.d.k.p.p.f.f.d.p.p.g.s.h.y.e.y.y.y.y.t.y.t.t.t.t.y.",
"dXcXhXzXfXfXeXfXdXdXcXcXdXdXfXfXgX9XhXuXqX*X].z 8 7 8 6 6 8 q h 4 4 6.$Xg.e.w.w.r.r.y.y.y.y.i.y.t.w.e.>.:.>.0.>.>.>.>.>.>.>.>.>.",
"NXNXNXBXfX7X6X7XdXBXNXNXcXfX7X7XgX9XbXbXuX:X'.F r 8 6 6 0 0 q q 4 4 8.{.h.:.9.9.9.0.q.<.y.<.<.<.<.<.>.;.&.;.;.;.;.;.;.;.;.;.;.;.",
"hXNXNXNXfX7X7X7XdXBXNXNXdX7X7X7X8XNXbXuXkX:X).P = & 6 0 e : > : l % D.{.;.*.:.@.@.@.-.:.;.;.;.;.;.=.O... .O.O. . . ... . . . . .",
"NXNXNXcXfX7X6X6XcXNXNXNXdX7X6X7XfXgXbXbXkX-X_.5.O > j 6 & & : 4 = z G.I.&.O.+.+.+.O.O.&.=.=.=.=.=.O.} ] ] } } ] [ { ] ] ] [ ] ] ",
"cXcXdXdXfXfXfXfXdXdXdXdXdXdXdXdXgX7XhXNXqX-X_.B.% = & & & & ; : O #.}.h. .*....... . .&.} =.=.o.} &.] / ( ] { ( ( _ ( ] ( _ ] ( ",
"7X7X7XfXhXNXNXNX7X7X7X7XhXNXNXNXNX8X5XkX,XrX_.].F # O ; , ; > $ O 7.}.1.`  .!  .[ [ | | | | { ] &.' / Y E / / / / / / / / / / / ",
"7X7X7XiXhXNXNXNXdXfX7X7XfXNXNXNXNX5X5X5X,XkX.X~.3.$ $ D $ o : o t D.K.` Z | W ] ` { { %.' ] ! ' ) R R Y Y Y f Y R Y N Y E Y f Y ",
"7X7X7XeXzXNXNXNXfXpX7X7XfXcXNXNXnX9X9X,XyXkX-XA.B.D   $ $ o - o 6.J.i.S A _ Z ( ) ) ) ) ( / Q / R R d Y d N d d f d f N d N N d ",
"7X7XpXfXhXcXNXNX9XeXeXfXdXcXNXNXfXgXyXyXuXuXqX).~.6.$   , o o D D.m.&.A S S S ^ S %.N R R Y T Y d p a c s p p p p p p p p y p p ",
"cXBXcXcXdXfX7X7XdXcXnXnXhXfX7X7XyXNXgXkXkX5XbX%XM.~.U X o   , F.G.1.M g S f f g V N N N Y Y T d u < @ u t < < < < u 1 1 1 u < u ",
"BXNXNXNXfX7X7X7XdXcXNXNXdX7X7XfX9XgXBXNXgXyX0XwXA.b.M.l.U 3.m.l.i.%.s d N d s N m N V p s s a N #.a.v.c.b.V.v.v.v.n.c.n.v.b.v.v.",
"NXNXNXNXfX7X7X7XdXcXNXNXcXfX7X7XpXgXBXBXNXuXeX0X2XA.b.B.m.l.N.F.%.m u i M k y m y y y V %.M u x :XrXjXrXjXkXjXjXuXuXuXjXkXkXkXkX",
"cXcXcXcXdXfXfX7XhXcXnXcXhXdX9X7XpXgXgXnXhXuXeXqX2X`.B.b.b.N.l.#.l t 2 z z z t z x z z 2 < < P B.;XrXqX0XuXjXuXeX0X0XqXeXrXuXjXjX",
"fXfXfXdXdXcXcXdXdXfXfXfXzXzXhXdXgXfXgXyXgXkXhXrXjXjX2X`.B.B.l.L K #.4.2.2.2.2.K L 2.4.2.2.5.[.rXuXBXjX7XeXjXeXrXyXyXeXeXyXuXeXuX",
"7X7X6X7XcXNXNXNXfX7X7X7XdXNXNXNXgXgX9X5XaXhXxXNXaX0X0XsXwXwXsXxXjXjXjXrXrXrXjXjXjXjXjXwXrXrXrXrXhXBXjX7X5X4X6XeXBXBXjXfXeX5X7X4X",
"5X6X7XfXcXNXNXNXyX7X6X7XfXcXNXNXhXfX5X8X7XjXNXNXxXxXaX1X1XsXxXxXNXjXqX1X3XpXjXjXhXNXhX4XeXzXfXeXBXNXNXfXeX7X7XhXNXNXNXhXfX7X7X7X",
"7X7XiX7XdXcXBXNXfX7X7XfXfXdXcXNXgXyXeX7XfXdXxXxXjXNXaX-X1XxXxXdXBXlXfXiXpXpXgXnXBXBXcX3X<X3XfXNXcXNXzXaXfX7XiXzXcXBXzXfX7X7X7X7X",
"dXfXdXfXfXfXdXdXdXfXdXdXdXfXfXfXgXfXfXyXfXfXfXfXfXaXaXNXNXiX1XNXnXgXzXzXpXpXpXzXgXgXgXzXBXgXpXgXlXcXfXpXzXlXfXzXlXlXlXlXpXfXlXNX",
"NXNXNXBXdX7X7X7XdXNXNXNXdX7X7XfX4XxXNXxXNXdX6XdXiXpXzXNXBXpXpXlXpXpXfXzXNXzX9XpXpX8XpXNXBXBXNX8XpX7X7XfXBXNXBXlX9X7X7XpXBXBXNXBX",
"NXNXNXBXdX7X7X7XdXNXNXNXcX7X7X7X6XNXNXBXNXfX6XiXpXfXzXNXBXlXpXiX3XpXnXNXNXNXfX9X7X3XpXNXBXBXNX7X6X7XiXlXBXBXBXlX7X7XiXfXBXBXBXBX",
"NXNXNXcXfX7X7X7XfXcXNXNXcXfX7X7XiXxXNXxXNXfX7XiXiXpXzXBXzXBXlX8X3XhXBXnXNXNX9X5X7X5XaXNXnXNXNX9X7XpXfXzXBXBXcXfX7XiXiXfXBXNXNXBX",
"cXcXhXcXdXdXdXdXfXdXcXcXdXdXdXdXfXlXhXdXhXlXaXlXiXzXBXzXzXBXBXzXBXNXNXyXhXNXhXyXyXeXfXjXfXhXhXyXfXpXdXzXzXzXdXfXpXfXpXdXzXcXzXcX",
"7X7XfXfXcXcXNXNXfXfXfXfXdXcXcXNXxXfXpXiXaXdXNXNXxXNXiX&XS.Z.Z.Z.Z.S.S.S.&XeXBXBXxXxXjXeXaXeXaXxXNXBXdXfXaXeXfXyXNXNXcXhXfXeXpXeX",
"7X7X7XfXcXNXNXNXdX7X7X7XdXBXNXNXcXiXiXiXiXlXNXNXNXlX3XS.C.x.x.x.x.C.C.Z.&X5XhXjXNXNXdX7X7X7XeXxXNXNXBXyX7X5X7XfXNXNXNXkXfX7X7X7X",
"7X7X7XaXcXNXNXNXdX7X7X7XdXNXNXNXcXiXiXpXiXdXNXNXNXxXiX7X6XqXjXNXNXNXlXaXdXdXfXNXxXNXxX7XaX7X7XNXBXBXkXuX5X6XqXfXNXBXBXjXeX4X5XeX",
"fXeX7XpXcXNXNXNXdXfX7X7XcXNXNXNXNX6XiXfXiXxXNXlXNXaX7XaXjXjXfXNXxXxXaX7XiX7XaXNXdXNXxXiXaXiX7XNXjXBXBXfXqX6XeXuXjXBXBXjXeX7XqXfX"
};
