/* XPM */
static char *ae6579b901324a8ac64a602cbcf19599FdgWkRShZVTnXapL[] = {
/* columns rows colors chars-per-pixel */
"64 64 249 2 ",
"   c #030101",
".  c #0C0001",
"X  c #030607",
"o  c #120302",
"O  c #15010A",
"+  c #1F0500",
"@  c #0C0618",
"#  c #1E0617",
"$  c #1C1B06",
"%  c #220100",
"&  c #2B0F0C",
"*  c #340E04",
"=  c #330700",
"-  c #2B1607",
";  c #381506",
":  c #391B15",
">  c #2C251F",
",  c #000029",
"<  c #0D1323",
"1  c #372C25",
"2  c #3C3429",
"3  c #332E33",
"4  c #421607",
"5  c #420F14",
"6  c #451512",
"7  c #5C2302",
"8  c #592507",
"9  c #4E2A15",
"0  c #4A2716",
"q  c #593A1B",
"w  c #5D2C17",
"e  c #692804",
"r  c #793603",
"t  c #673304",
"y  c #462927",
"u  c #522526",
"i  c #552B2A",
"p  c #582C2D",
"a  c #4C3225",
"s  c #583524",
"d  c #4B3B38",
"f  c #553035",
"g  c #652C2A",
"h  c #66312D",
"j  c #673A39",
"k  c #7D4A17",
"l  c #5D4225",
"z  c #7C4C2D",
"x  c #29355F",
"c  c #7E5657",
"v  c #873B1E",
"b  c #8E3E25",
"n  c #883B26",
"m  c #983C27",
"M  c #894719",
"N  c #985313",
"B  c #944415",
"V  c #8A4C27",
"C  c #954426",
"Z  c #934E2C",
"A  c #97442B",
"S  c #945529",
"D  c #9B4732",
"F  c #8E5134",
"G  c #A54E29",
"H  c #B86338",
"J  c #996A32",
"K  c #EA731F",
"L  c #F37216",
"P  c #D55E3E",
"I  c #DA763E",
"U  c #C76F2F",
"Y  c #E86E2C",
"T  c #EC7423",
"R  c #EC732D",
"E  c #EC7828",
"W  c #F67824",
"Q  c #F3762C",
"!  c #F47A2C",
"~  c #FB7B2C",
"^  c #F97628",
"/  c #E57334",
"(  c #EC7531",
")  c #EC7A34",
"_  c #EB7C3B",
"`  c #E7783B",
"'  c #F07731",
"]  c #F47C32",
"[  c #FB7E33",
"{  c #F87B39",
"}  c #F76D2A",
"|  c #824445",
" . c #9D6656",
".. c #9C764C",
"X. c #A67B45",
"o. c #AB6F50",
"O. c #D86141",
"+. c #CD7A46",
"@. c #E67A46",
"#. c #F67D43",
"$. c #E77751",
"%. c #E97953",
"&. c #DF812A",
"*. c #EB872B",
"=. c #FF8027",
"-. c #FE832B",
";. c #FA882C",
":. c #FE922D",
">. c #EF843B",
",. c #EE8A3A",
"<. c #E88936",
"1. c #F68133",
"2. c #FB8333",
"3. c #FC8C34",
"4. c #F3843C",
"5. c #FB843C",
"6. c #F38B3B",
"7. c #FD8C3B",
"8. c #F48B36",
"9. c #FE9334",
"0. c #F3933E",
"q. c #FD913C",
"w. c #FD9B3E",
"e. c #F69737",
"r. c #ED983D",
"t. c #F7A939",
"y. c #F6B13E",
"u. c #A98647",
"i. c #B58B5A",
"p. c #B28F58",
"a. c #AE9568",
"s. c #B49268",
"d. c #AF916F",
"f. c #B6A676",
"g. c #998D5B",
"h. c #D4874E",
"j. c #EE8242",
"k. c #EA8A40",
"l. c #FE8443",
"z. c #F38B42",
"x. c #FD8C43",
"c. c #FE8C4A",
"v. c #F58546",
"b. c #E89847",
"n. c #FD9542",
"m. c #FD9B44",
"M. c #FD954B",
"N. c #FE9C4B",
"B. c #F69647",
"V. c #F98D59",
"C. c #FF9D53",
"Z. c #F69A56",
"A. c #EF9A5A",
"S. c #FDA245",
"D. c #F5A549",
"F. c #FEA34C",
"G. c #FCAA4D",
"H. c #F6A847",
"J. c #FAB446",
"K. c #FEA552",
"L. c #FEAA54",
"P. c #FCA45B",
"I. c #FEAC5B",
"U. c #F5A556",
"Y. c #FDB254",
"T. c #FDB35B",
"R. c #FBB654",
"E. c #E6A259",
"W. c #DA9762",
"Q. c #F39864",
"!. c #FDAA65",
"~. c #FBA864",
"^. c #FFB261",
"/. c #FCB869",
"(. c #F9BA78",
"). c #E9B674",
"_. c #FAC677",
"`. c #FFC161",
"'. c #A4918E",
"]. c #D1B192",
"[. c #F9BC83",
"{. c #FFBD8A",
"}. c #E7B791",
"|. c #D2B5AF",
" X c #FACA8C",
".X c #FBC687",
"XX c #FBC695",
"oX c #E8D88D",
"OX c #D0C5BD",
"+X c #FFD4B7",
"@X c #F3CFAB",
"#X c #FFE0B0",
"$X c #DBBAC1",
"%X c #D8C3CA",
"&X c #D5C7C7",
"*X c #DFCBD6",
"=X c #D7C5D1",
"-X c #DED5DC",
";X c #E8DCC9",
":X c #FED7CA",
">X c #FFDDD3",
",X c #F2D3D1",
"<X c #E6CDD4",
"1X c #E2E1CC",
"2X c #E9E1CC",
"3X c #EDE5D6",
"4X c #FBE7D9",
"5X c #FEF2DC",
"6X c #FFF1D4",
"7X c #F9E5C2",
"8X c #E0DAE8",
"9X c #DDF1F7",
"0X c #FEEBE3",
"qX c #F9EAE6",
"wX c #EFF8EE",
"eX c #FEF5E2",
"rX c #FFFAE4",
"tX c #FEF6EC",
"yX c #F5FCEF",
"uX c #FEFBEC",
"iX c #F4F3EF",
"pX c #FAE9FD",
"aX c #EDF4FB",
"sX c #E5FEFE",
"dX c #ECFEFE",
"fX c #ECF6F6",
"gX c #F4F4F4",
"hX c #FCF4F4",
"jX c #F4FCF3",
"kX c #FDFDF4",
"lX c #F4F5FE",
"zX c #FEF6FD",
"xX c #F6FFFE",
"cX c #F5FEFE",
"vX c #FFFBF8",
"bX c #FFFFFB",
"nX c #FEFDF9",
"mX c #FFFAFE",
"MX c #F9FFFF",
"NX c #F8FFFF",
"BX c #FBFFFF",
"VX c #FAFCFF",
"CX c #FFFCFF",
"ZX c #FCFFFF",
"AX c white",
"SX c #FEFFFF",
"DX c #FEFEFD",
"FX c #FFFFFF",
"GX c #EDEDF7",
/* pixels */
"AXAXAXAXAXAXAXAXAXAXAXAXAXAXAXAXAXAXAXAXAXAXAXAXAXAXAXAXAXAXAXAXAXAXAXAXAXAXAXAXAXAXAXAXAXAXAXAXAXAXAXAXAXAXAXAXAXAXAXAXAXAXAXAX",
"AXAXAXAXAXAXAXAXAXAXAXAXAXAXAXAXAXAXAXAXAXAXAXAXAXAXAXAXAXAXAXAXAXAXAXAXAXAXAXAXAXAXAXAXAXAXAXAXAXAXAXAXAXAXAXAXAXAXAXAXAXAXAXAX",
"AXAXAXAXAXAXAXAXAXAXAXAXAXAXAXAXAXAXAXAXAXAXAXAXAXAXAXAXAXAXAXAXAXAXAXAXAXAXAXAXAXAXAXAXAXAXAXAXAXAXAXAXAXAXAXAXAXAXAXAXAXAXAXAX",
"AXAXAXAXAXAXAXAXAXAXAXAXAXAXAXAXAXAXAXAXAXAXAXAXAXAXAXAXAXAXAXAXAXAXAXAXAXAXAXAXAXAXAXAXAXAXAXAXAXAXAXAXAXAXAXAXAXAXAXAXAXAXAXAX",
"AXAXAXAXAXAXAXAXAXAXAXAXAXAXAXAXAXAXAXAXAXAXAXAXAXAXAXAXAXAXAXAXAXAXAXAXAXAXAXAXAXAXAXAXAXAXAXAXAXAXAXAXAXAXAXAXAXAXAXAXAXAXAXAX",
"AXAXAXAXAXAXAXAXAXAXAXAXAXAXAXAXAXAXAXAXAXAXAXAXAXAXAXAXAXAXAXAXAXAXAXAXAXAXAXAXAXAXAXAXAXAXAXAXAXAXAXAXAXAXAXAXAXAXAXAXAXAXAXAX",
"AXAXAXAXAXAXAXAXAXAXAXAXAXAXAXAXAXAXAXAXAXAXAXAXAXAXAXAXAXAXAXAXAXAXAXAXAXAXAXAXAXAXAXAXAXAXAXAXAXAXAXAXAXAXAXAXAXAXAXAXAXAXAXAX",
"AXAXAXAXAXAXAXAXAXAXAXAXAXAXAXAXAXAXAXAXAXAXAXAXAXAXAXAXAXAXAXAXAXAXAXAXAXAXAXAXAXAXAXAXAXAXAXAXAXAXAXAXAXAXAXAXAXAXAXAXAXAXAXAX",
"AXAXAXAXAXAXAXAXkXnXVXcXBXBXmXAXxXBXBXxXBXxXBXxXnXcXlXBXBXBXAXAXAXbXAXnXBXBXBXAXAXAXAXBXAXAXAXAXBXBXdXcXBXwXkXnXAXAXAXAXAXAXAXAX",
"AXAXAXAXAXAXAXAXnXAXAXmXmXAXnXnXvXvXnXnXnXvXvXvXtXAXmXAXAXkXhXhXvXiXiXbXbXbXkXjXvXvXvXvXvXvXvXvXkXbXzXbXbXyXnXmXAXAXAXAXAXAXAXAX",
"AXAXAXAXAXAXAXAXmXAXvXhXkXkXkXjXbXbXbXbXbXvXAXbXuXAXAXmXvXnXnXAXnXnXbXbXbXbXAXAXbXbXbXbXbXAXbXbXrXnXvXvXkXkXBXcXAXAXAXAXAXAXAXAX",
"AXAXAXAXAXAXAXAXBXAXvXvXnXnXcXxXVXVXVXBXVXVXVXVXAXAXzXgXbXnXcXBXVXBXAXBXGXxXxXcXcXVXVXcXVXcXVXcXjXBXAXhXkXnXAXBXAXAXAXAXAXAXAXAX",
"AXAXAXAXAXAXAXAXcXnXnXnXAXAXBXBXBXBXBXAXBXBXBXxXBXBXAXAXnXcXcXcXdXcXxXBXBXBXxXcXBXBXBXxXBXBXxXBXcXlXxXcXnXbXvXmXAXAXAXAXAXAXAXAX",
"AXAXAXAXAXAXAXAXjXxXxXBXAXbXtXeX5XeXeXeXeXeXeX5X5X5XuXrX6X5XnXAXnXuX4XeXrXeX4XuX5XeXeXeX5XeXeXeXuXiXAXBXcXbXvXmXAXAXAXAXAXAXAXAX",
"AXAXAXAXAXAXAXAXnXAXBXxXbX6X@X X.X X X X X X X X X.X X.X). X+X].].@X X(..X_.(. X[.[.[.[.[.[.[.[.XX}.0XmXcXxXbXvXAXAXAXAXAXAXAXAX",
"AXAXAXAXAXAXAXAXzXAXAXBXuX+X/.t.Y.Y.Y.Y.Y.Y.L.Y.R.D.L.G.S./.E.M k b./.t.S.G.n.S.m.m.m.m.m.m.m.m.x.+.+XvXlXxXBXmXAXAXAXAXAXAXAXAX",
"AXAXAXAXAXAXAXAXAXAXcXuXBXeXS.T.^.^.^.^.T.^.^.!.R.P.Y.R.!.L.~.j l J.P.P.K.P.F.F.F.F.S.N.N.N.N.m.m.%.2XBXmXxXAXVXAXAXAXAXAXAXAXAX",
"AXAXAXAXAXAXAXAXmXAXcXuXBXqXS.R.T.T.T.T.I.I.I.I.R.P.G.L.I.L.U.h q J.N.P.H.C.S.D.N.m.N.N.m.m.n.m.n.%.2XBXmXnXbXVXAXAXAXAXAXAXAXAX",
"AXAXAXAXAXAXAXAXmXAXxXuXBXeXD.T.T.I.I.I.I.I.I.I.R.K.G.H.U.K.U.h q J.N.P.H.C.S.N.m.m.m.m.m.n.n.n.n.%.2XBXzXxXAXmXAXAXAXAXAXAXAXAX",
"AXAXAXAXAXAXAXAXAXAXcXuXBX0Xm.Y.I.I.I.I.L.I.L.L.L.P.G.G.P.K.P.h q y.N.P.H.C.m.S.m.N.m.m.m.n.n.n.n.%.2XxXvXcXAXVXAXAXAXAXAXAXAXAX",
"AXAXAXAXAXAXAXAXAXAXcXuXAXeXm.Y.I.L.L.L.L.K.K.I.Y.Z.G.G.P.K.U.g q y.D.C.H.M.m.S.m.m.m.n.n.n.x.n.B.$.1XBXmXcXbXAXAXAXAXAXAXAXAXAX",
"AXAXAXAXAXAXAXAXmXAXcXuXAX0Xm.G.L.L.L.K.K.K.F.K.H.P.S.D.Z.S.Z.g q t.N.N.H.M.w.m.m.m.n.n.n.n.q.7.0.$.;XxXmXnXAXVXAXAXAXAXAXAXAXAX",
"AXAXAXAXAXAXAXAXAXAXxXuXAX0Xm.K.U.F.F.K.K.F.K.C.H.C.S.D.P.N.Z.g q t.N.M.t.M.w.m.n.n.n.n.n.7.q.7.w.$.;XBXzXxXAXBXAXAXAXAXAXAXAXAX",
"AXAXAXAXAXAXAXAXmXAXxXuXAX0Xm.L.L.K.L.K.K.K.K.F.L.C.S.D.P.F.Z.g q t.N.C.S.N.m.m.m.N.n.m.n.n.n.n.0.$.1XxXzXxXbXAXAXAXAXAXAXAXAXAX",
"AXAXAXAXAXAXAXAXcXsXaXtXcXpXo.| z F S z N C | B F Z V V Z F z w t v V V M Z Z V M Z A D S S V Z V c pXBXiXkXbXxXAXAXAXAXAXAXAXAX",
"AXAXAXAXAXAXAXAXzXiXmXuX9XcXf.+ X . . X O % , + . . .   . o     . O # O o O O o @ @ # O .   O # + |.BXaXAXkXhXBXAXAXAXAXAXAXAXAX",
"AXAXAXAXAXAXAXAXzXAXzXuXsXcXoXg.a.d.W.f.p...< ; d.a.s.s.s.s.s.d.p.p.u.u.u.u.u...$ - ..u.u.u.X.X.J 7XjXaXbXqXmXAXAXAXAXAXAXAXAXAX",
"AXAXAXAXAXAXAXAXgXdXxXuXcX4Xb.{.J.I.S.).R.!.q N Y.G.S.G.F.m.S.G.I.I.K.F.K.L.P.K.s 7 U.w.S.S.K.C.~.i.2XBXkXvXvXAXAXAXAXAXAXAXAXAX",
"AXAXAXAXAXAXAXAXxXsXVXuXhX:X7.#.S.N.7.b.,.A.: S D.b.0.m.n.q.8.w.z.6.6.6.6.0.z.4.c 4 P.*.*.E 5.5.#.H >XzXgXbXiXxXAXAXAXAXAXAXAXAX",
"AXAXAXAXAXAXAXAXvXjXzXuXhX>XG.B.r.M.x.P.N.Q.i S S.0.0.M.M.n.x.7.9.q.q.9.9.9.3.9.9 8 F.:.:.;.7.;.l.$.:XzXVXbXnXxXAXAXAXAXAXAXAXAX",
"AXAXAXAXAXAXAXAXhXAXzXkXBX:X*.w.w.N.3.n.3.v.i M 9.9.9.7.x.x.7.7.c.c.l.x.x.l.l.l.f e C.[ #.#.c.l.{ U @XBXxXAXAXgXAXAXAXAXAXAXAXAX",
"AXAXAXAXAXAXAXAXvXdXcXuXxX>Xe.q.r.M.3.N.n.V.f M e.m.B.z.c.B.B.B.x.z.8.8.6.6.4.4.0 e b.8.l.v.v.*.2.X.4XdXdXAXvXmXAXAXAXAXAXAXAXAX",
"AXAXAXAXAXAXAXAXmXdXcXkXcX4X*.M.r.,.3.D.:.Z.a k m.;.2.x.c.7.7.7.7.7.3.3.7.1.1.c.i 7 D.*.5.v.5.=.2.+.4XlXcXBXBXcXAXAXAXAXAXAXAXAX",
"AXAXAXAXAXAXAXAXtXkXzXuXmX>X*.C.n.l.7.n.3.V.p M w.q.x.x.5.5.7.q.n.7.3.3.7.7.5.v.i e A.*.[ _ { ! n.H ;XBXnXkXuXkXAXAXAXAXAXAXAXAX",
"AXAXAXAXAXAXAXAXvXwXmXrXhX>Xw.1.n.l.x.,.q.V.y V 0.B.B.6.x.z.8.0.6.6.,.,.<.z.z.<.y w A.1.5.#.#._ ] +.:XhXvXkXtXbXAXAXAXAXAXAXAXAX",
"AXAXAXAXAXAXAXAXcXsXAXuXuX:X:.3.:.8.q.<.e.A.0 M q.7.-.3.q.q.;.3.2.-.3.7.2.5.x.v.0 e c.~ 2.[ { 5.2.O.+XvXAXAXcXdXAXAXAXAXAXAXAXAX",
"AXAXAXAXAXAXAXAXaXdXcXtXBX,XU +.*.` 5.I <.@.i M 4.>.) ' { ) E 4.{ ( ( ' Q ( ` / w r h.T T Y / / I F ;XVXlXVXBXdXAXAXAXAXAXAXAXAX",
"AXAXAXAXAXAXAXAXuXuXzXkXdXlXa.& 4 5 4 - 4 5 , % ; ; : 4 * & : : : : * = 4 4 * * X   y * ; ; ; : 4 '.lXdXVXrXrXkXAXAXAXAXAXAXAXAX",
"AXAXAXAXAXAXAXAXuXuXvXuXsXVX].: 1 3 y 3 a y x a 1 > 2 2 > 3 3 X X 3 d 1 d d 2 2 2 2 d 1 1 2 y y 4 OXBX9XbXuX4XbXAXAXAXAXAXAXAXAX",
"AXAXAXAXAXAXAXVXdXdXaXrXxXtX[.XX_..X(._.`.I.@XT._././.(./.{.W.e 8 W._.P.!.T.U.!.J.F.!.Z.P.Y.K.M.U.}.4XyXbXAXcXsXAXAXAXAXAXAXAXAX",
"AXAXAXAXAXAXAXAXAXAXxXtXAX0XT 3.] 1.1.1.1.[ 1.1.[ _ ~ ~ j.2.#.p 0 =.*.) ^ _ ~ ] ' ' ' Q R Q R R ' O.1XcXVXnXvXAXAXAXAXAXAXAXAXAX",
"AXAXAXAXAXAXAXAXAXbXxXtXBX0XT 1.2.1.2.2.2.2.1.1.[ 4.-.~ j.[ #.i 9 ;.) ] ~ ( ^ ] ] ' ] ' ' ' Q ' ] O.1XdXzXnXnXAXAXAXAXAXAXAXAXAX",
"AXAXAXAXAXAXAXAXAXAXBXtXBX0XT -.2.2.2.2.2.1.2.[ 2._ ~ -.j.[ @.i 9 -.) ) ~ _ ~ ] ] ] ' ] ' ' { ( ' O.1XcXzXAXnXAXAXAXAXAXAXAXAXAX",
"AXAXAXAXAXAXAXAXAXAXxXtXAX0XT 1.2.[ { 1.1.] [ ! 1.>.W ~ j.~ _ u 9 -.] ) ~ _ ^ _ ' ' ' ( ( ( ( Y ' P 1XdXmXnXnXAXAXAXAXAXAXAXAXAX",
"AXAXAXAXAXAXAXAXAXbXxXuXAX5XK 1.] 1.] ] ] ] ! ] 1._ ~ ~ @.~ _ u 9 -.) ` ^ ` Q ' ( ' ' ( ( } ( } E P ;XdXmXnXbXAXAXAXAXAXAXAXAXAX",
"AXAXAXAXAXAXAXAXBXAXBXtXBX4XK ! [ ] [ ] [ ] ] ] ] ) W ! _ Q _ u 0 -.) ) ^ ) ^ _ ( ' ( ( Y ( ( ( T P 1XdXmXnXbXBXAXAXAXAXAXAXAXAX",
"AXAXAXAXAXAXAXAXBXbXBXhXAX0XK 1.] ' ] ] ] ' ] ! ' ) W Q _ ~ _ u 0 ~ E ) ^ / } ( ( ( ( ( ( Y ( Y T P 1XcXzXBXvXAXAXAXAXAXAXAXAXAX",
"AXAXAXAXAXAXAXAXAXbXxXtXBX4XK ! ' ' ' ( ! ( Q ( Q ( W W @.~ @.i 0 ~ R / ^ / Q / ( Y Y Y Y Y Y Y Y P 1XdXmXnXvXAXAXAXAXAXAXAXAXAX",
"AXAXAXAXAXAXAXAXhXAXxXaXkX+X` -.=.=.=.=.=.=.=.=.{ 7.;.L ^ l.P t r U x.^ L -.2.T W W W W W W W W } U @XnXlXmXAXjXAXAXAXAXAXAXAXAX",
"AXAXAXAXAXAXAXAXvXkXxXdXAX4Xo.M C C C C C C C C m n M G D m  .'.]. .n m A v n D b b b b b b b b m  .3XlXcXmXbXjXAXAXAXAXAXAXAXAX",
"AXAXAXAXAXAXAXAXkXhXcXfXxXAX&X|.%X%X%X%X%X%X%X%X<XOXOX&X|.$X-XcXlX8X%X<X,X-X=X*X*X*X*X*X*X*X*X*X$X-XdXcXGXmXBXnXAXAXAXAXAXAXAXAX",
"AXAXAXAXAXAXAXAXbXkXbXAXBXBXxXxXxXxXxXxXxXBXxXxXuXjXdXsXdXBXxXjXsXlXBXkXdXlXcXxXcXcXcXcXcXcXcXcXAXxXcXdXmXmXmXjXAXAXAXAXAXAXAXAX",
"AXAXAXAXAXAXAXAXxXgXbXbXbXbXBXaXjXkXjXkXjXjXkXjXtXyXcXcXcXjXkXuXjXkXuXuXyXyXjXnXjXjXjXjXjXjXyXjXgXxXbXvXvXmXzXxXAXAXAXAXAXAXAXAX",
"AXAXAXAXAXAXAXAXBXBXvXhXhXnXnXnXmXAXAXAXAXmXAXAXmXzXmXAXzXlXzXmXvXhXzXVXAXAXBXmXAXAXAXAXAXAXAXmXkXkXkXkXvXhXcXxXAXAXAXAXAXAXAXAX",
"AXAXAXAXAXAXAXAXBXAXBXAXAXhXkXhXAXmXmXBXmXAXBXmXzXAXmXmXAXAXmXzXmXmXmXlXGXlXAXzXmXmXzXVXmXmXmXmXkXgXhXAXAXBXBXhXAXAXAXAXAXAXAXAX",
"AXAXAXAXAXAXAXAXvXvXzXzXBXBXBXAXnXcXnXnXnXnXnXnXcXkXkXuXyXjXjXBXBXxXhXBXcXcXbXvXnXxXnXnXcXnXBXnXcXxXBXBXcXcXbXkXAXAXAXAXAXAXAXAX",
"AXAXAXAXAXAXAXAXAXAXAXAXAXAXAXAXAXAXAXAXAXAXAXAXAXAXAXAXAXAXAXAXAXAXAXAXAXAXAXAXAXAXAXAXAXAXAXAXAXAXAXAXAXAXAXAXAXAXAXAXAXAXAXAX",
"AXAXAXAXAXAXAXAXAXAXAXAXAXAXAXAXAXAXAXAXAXAXAXAXAXAXAXAXAXAXAXAXAXAXAXAXAXAXAXAXAXAXAXAXAXAXAXAXAXAXAXAXAXAXAXAXAXAXAXAXAXAXAXAX",
"AXAXAXAXAXAXAXAXAXAXAXAXAXAXAXAXAXAXAXAXAXAXAXAXAXAXAXAXAXAXAXAXAXAXAXAXAXAXAXAXAXAXAXAXAXAXAXAXAXAXAXAXAXAXAXAXAXAXAXAXAXAXAXAX",
"AXAXAXAXAXAXAXAXAXAXAXAXAXAXAXAXAXAXAXAXAXAXAXAXAXAXAXAXAXAXAXAXAXAXAXAXAXAXAXAXAXAXAXAXAXAXAXAXAXAXAXAXAXAXAXAXAXAXAXAXAXAXAXAX",
"AXAXAXAXAXAXAXAXAXAXAXAXAXAXAXAXAXAXAXAXAXAXAXAXAXAXAXAXAXAXAXAXAXAXAXAXAXAXAXAXAXAXAXAXAXAXAXAXAXAXAXAXAXAXAXAXAXAXAXAXAXAXAXAX",
"AXAXAXAXAXAXAXAXAXAXAXAXAXAXAXAXAXAXAXAXAXAXAXAXAXAXAXAXAXAXAXAXAXAXAXAXAXAXAXAXAXAXAXAXAXAXAXAXAXAXAXAXAXAXAXAXAXAXAXAXAXAXAXAX",
"AXAXAXAXAXAXAXAXAXAXAXAXAXAXAXAXAXAXAXAXAXAXAXAXAXAXAXAXAXAXAXAXAXAXAXAXAXAXAXAXAXAXAXAXAXAXAXAXAXAXAXAXAXAXAXAXAXAXAXAXAXAXAXAX",
"AXAXAXAXAXAXAXAXAXAXAXAXAXAXAXAXAXAXAXAXAXAXAXAXAXAXAXAXAXAXAXAXAXAXAXAXAXAXAXAXAXAXAXAXAXAXAXAXAXAXAXAXAXAXAXAXAXAXAXAXAXAXAXAX"
};
