/* XPM */
static char *f705cf70e6ff46168d57fa6886b0c2398rq0ZGEZPB3OavAm[] = {
/* columns rows colors chars-per-pixel */
"64 64 256 2 ",
"   c #11060A",
".  c #391905",
"X  c #310C06",
"o  c #322610",
"O  c #1E0D35",
"+  c #460701",
"@  c #531804",
"#  c #511209",
"$  c #770B07",
"%  c #661401",
"&  c #751308",
"*  c #701011",
"=  c #552509",
"-  c #582A14",
";  c #4B2E13",
":  c #6B271B",
">  c #762517",
",  c #783619",
"<  c #6B2C09",
"1  c #503525",
"2  c #692527",
"3  c #792B28",
"4  c #78392A",
"5  c #6E3237",
"6  c #731821",
"7  c #55442D",
"8  c #724B32",
"9  c #736637",
"0  c #040A46",
"q  c #0A1858",
"w  c #16195A",
"e  c #131549",
"r  c #182850",
"t  c #312A55",
"y  c #071868",
"u  c #141C66",
"i  c #091C75",
"p  c #171D76",
"a  c #060E64",
"s  c #0B256D",
"d  c #162267",
"f  c #142C74",
"g  c #262A77",
"h  c #272C6A",
"j  c #36144A",
"k  c #4D3350",
"l  c #6E3853",
"z  c #553977",
"x  c #6F3C71",
"c  c #531D41",
"v  c #344971",
"b  c #1A4361",
"n  c #534C5A",
"m  c #734D4C",
"M  c #7B6453",
"N  c #74785F",
"B  c #4F4B6F",
"V  c #6F5172",
"C  c #717274",
"Z  c #5F6072",
"A  c #90140F",
"S  c #AD0D0F",
"D  c #823719",
"F  c #8D2E12",
"G  c #B02A11",
"H  c #8B192C",
"J  c #B6182E",
"K  c #863727",
"L  c #942F29",
"P  c #B02F2E",
"I  c #C4161D",
"U  c #CF1213",
"Y  c #EA1918",
"T  c #F8181A",
"R  c #EC0810",
"E  c #EA241B",
"W  c #CD1927",
"Q  c #F81C24",
"!  c #F11A29",
"~  c #C52728",
"^  c #D83738",
"/  c #CE2E30",
"(  c #E72629",
")  c #FB2427",
"_  c #E72B36",
"`  c #FB2937",
"'  c #F13436",
"]  c #CA200F",
"[  c #88452B",
"{  c #8A5635",
"}  c #975A36",
"|  c #924933",
" . c #AA4E36",
".. c #946736",
"X. c #D2463A",
"o. c #D9553D",
"O. c #8D2E51",
"+. c #D53746",
"@. c #EC3244",
"#. c #824643",
"$. c #8B5849",
"%. c #8F5151",
"&. c #AF504D",
"*. c #946D51",
"=. c #A96556",
"-. c #B87955",
";. c #AC6D51",
":. c #947271",
">. c #A96767",
",. c #B0776F",
"<. c #974E61",
"1. c #D84949",
"2. c #CC4F50",
"3. c #E84B50",
"4. c #CD6D50",
"5. c #F6635D",
"6. c #D1746D",
"7. c #E67574",
"8. c #E25B65",
"9. c #7D837C",
"0. c #9E8573",
"q. c #AF8A71",
"w. c #AA855C",
"e. c #D2895C",
"r. c #C68778",
"t. c #D5967C",
"y. c #D18F6C",
"u. c #EC8676",
"i. c #EEAA78",
"p. c #1C2B86",
"a. c #143090",
"s. c #26389B",
"d. c #2E338C",
"f. c #1C39B6",
"g. c #1236AD",
"h. c #2539A5",
"j. c #292CB2",
"k. c #593D90",
"l. c #3C5192",
"z. c #1944AF",
"x. c #3248B5",
"c. c #295595",
"v. c #51508D",
"b. c #634C8B",
"n. c #536793",
"m. c #797796",
"M. c #6E6F8D",
"N. c #4E52AB",
"B. c #7272A9",
"V. c #5A62B1",
"C. c #143CC7",
"Z. c #2538C8",
"A. c #2A2FCD",
"S. c #1B45C9",
"D. c #2844CA",
"F. c #324DD0",
"G. c #4557C8",
"H. c #5F6DDA",
"J. c #8C7B8F",
"K. c #8E5889",
"L. c #F87D86",
"P. c #C77E87",
"I. c #75889E",
"U. c #7D95C1",
"Y. c #888A8B",
"T. c #9A9799",
"R. c #8D9394",
"E. c #A89698",
"W. c #B49288",
"Q. c #B1A790",
"!. c #8B91B0",
"~. c #A997AD",
"^. c #9BA9B1",
"/. c #A8A4A6",
"(. c #B5A9AA",
"). c #B7B5B6",
"_. c #B1ABB2",
"`. c #9AA09E",
"'. c #D0928C",
"]. c #E59C88",
"[. c #FA9998",
"{. c #F28F8E",
"}. c #D3AA8C",
"|. c #FBAC88",
" X c #F8B884",
".X c #FABB96",
"XX c #ECAD93",
"oX c #C498A6",
"OX c #C8B9B7",
"+X c #D0B1AF",
"@X c #FCBBA9",
"#X c #FFBAB5",
"$X c #EFAFAC",
"%X c #F39CAA",
"&X c #EAC797",
"*X c #FACA97",
"=X c #F6D094",
"-X c #D0C9B2",
";X c #EAC5A5",
":X c #FCC8A4",
">X c #FCD8A9",
",X c #FCC8B7",
"<X c #FBD7B8",
"1X c #EAD0B7",
"2X c #FEE6AB",
"3X c #FEE7B6",
"4X c #F7EDB4",
"5X c #8D95C7",
"6X c #ADB5CA",
"7X c #9CA9DA",
"8X c #C9B7C6",
"9X c #F1B5CA",
"0X c #B2C5CF",
"qX c #B5C8ED",
"wX c #C9C4C6",
"eX c #D6C8C9",
"rX c #D9D6D9",
"tX c #CFD0D1",
"yX c #FACAC6",
"uX c #E6D5CB",
"iX c #FDD8C7",
"pX c #E5DAD7",
"aX c #FDDAD6",
"sX c #E1CACC",
"dX c #FCE9C9",
"fX c #FCE7DA",
"gX c #FDF7DA",
"hX c #EBE8D4",
"jX c #D1D4F1",
"kX c #D2E6F7",
"lX c #EDEBEB",
"zX c #E6E7E6",
"xX c #FEE4E4",
"cX c #FFECEC",
"vX c #F7EAE6",
"bX c #EAF6EB",
"nX c #FEF2E5",
"mX c #FDFCE4",
"MX c #FEF4EC",
"NX c #F5FEEB",
"BX c #FDFDED",
"VX c #F3F4EC",
"CX c #E7E9F8",
"ZX c #FEEDF2",
"AX c #F7EDF6",
"SX c #ECFFFD",
"DX c #EAFAF7",
"FX c #F5F4F4",
"GX c #FEF5F3",
"HX c #F5FCF3",
"JX c #FDFDF4",
"KX c #F4F5FC",
"LX c #FDF5FD",
"PX c #F4FEFE",
"IX c #FEFEFE",
"UX c #DEF9DA",
/* pixels */
"IXIXIXIXIXIXIXIXIXIXIXIXIXIXIXIXZXJXIXSXSXSXIXLXAXLXLXIXJXnXmXMXZXxXxXyX,X<XdXgXnXHXLXLXLXLXIXLXIXIXIXIXIXIXIXIXIXIXIXIXIXIXIXIX",
"IXIXIXIXIXIXIXIXIXIXIXIXIXIXIXIXJXGXPXSXSXSXIXLXLXLXVXMXKXAXaX#XL.P.2.1.1.o.4.6.1XxXLXLXLXLXIXPXIXIXIXIXIXIXIXIXIXIXIXIXIXIXIXIX",
"IXIXIXIXIXIXIXIXIXIXIXIXIXIXIXIXIXLXHXPXPXIXIXLXIXIXJXJXaX{.5.3.@._ W ) Y Y ' G J 8.#XGXGXJXbXbXIXIXIXIXIXIXIXIXIXIXIXIXIXIXIXIX",
"IXIXIXIXIXIXIXIXIXIXIXIXIXIXIXIXJXJXIXIXIXIXIXIXVXBXxX1X6.+.! ` ! ! ` Q R ) ' / ~ S &.%XxXBXUXDXPXIXIXIXIXIXIXIXIXIXIXIXIXIXIXIX",
"IXIXIXIXIXIXIXIXIXIXIXIXIXIXIXIXPXPXPXIXIXJXJXGXGXaX%X2.P _ ` ) ' ) ) ! 5.u.u.:X|.-.L P [.nXmXBXJXIXIXIXIXIXIXIXIXIXIXIXIXIXIXIX",
"IXIXIXIXIXIXIXIXIXIXIXIXIXIXIXIXPXPXPXSXHXJXJXMXaX[.+.W _ ) ) ) E E U @.,X[.-.#X'.L.8.A &.,XMXJXIXIXIXIXIXIXIXIXIXIXIXIXIXIXIXIX",
"IXIXIXIXIXIXIXIXIXIXIXIXIXIXIXIXPXPXDXDXDXHXMXaX7.^ W ` ` T E ) ) E / {.#X6.<.&.&.2.[.&.3 ,.GXFXIXIXIXIXIXIXIXIXIXIXIXIXIXIXIXIX",
"IXIXIXIXIXIXIXIXIXIXIXIXIXIXIXIXIXIXPXbXHXBXaX[.^ _ ) Q T ) ) E E ] / %X,.%.9X>.{.P {.2.6 #.vXIXIXIXIXIXIXIXIXIXIXIXIXIXIXIXIXIX",
"IXIXIXIXIXIXIXIXIXIXIXIXIXIXIXIXZXLXZXcXMXfX[./ _ ) ) ) T T T T Y U ~ {.&.W.sXOX#X&.8.1.A 6 %XLXIXIXIXIXIXIXIXIXIXIXIXIXIXIXIXIX",
"IXIXIXIXIXIXIXIXIXIXIXIXIXIXIXIXZXZXZXyXL.&./ _ ! T T ) T T T R T E U ^ {.%X$X$XXX8.P S J $ >.xXJXIXIXIXIXIXIXIXIXIXIXIXIXIXIXIX",
"IXIXIXIXIXIXIXIXIXIXIXIXIXIXIXIXLXcX$X+.J @.` Q ) T T T T T T T R ) Q ( 3.X./ o.5.3.S S A $ =.MXJXIXIXIXIXIXIXIXIXIXIXIXIXIXIXIX",
"IXIXIXIXIXIXIXIXIXIXIXIXIXIXIXJXLXaXP.+.@.` Q Q Y Y T T T E ^ ' ' ( ' ( ~ / X.X.~ / ^ ^ A $ D iXGXIXIXIXIXIXIXIXIXIXIXIXIXIXIXIX",
"IXIXIXIXIXIXIXIXIXIXIXIXIXIXIXIXNXhX&.+.` R E Y E E Y E ` ^ L F , % F P A G G & A A G L P G K gXGXIXIXIXIXIXIXIXIXIXIXIXIXIXIXIX",
"IXIXIXIXIXIXIXIXIXIXIXIXIXIXIXJXBXgX=.~ ( Y ' ] G / ^ / X.P > = ; + @  .4.o. ... .& $ & A H > %XMXIXIXKXKXIXIXIXIXIXIXIXIXIXIXIX",
"IXIXIXIXIXIXIXIXIXIXIXIXIXIXIXIXBXdXXX[.u.X.G G A  .e.e.q.;.&.,.W.:.2 [ y.e.-.w.< X + 2 6 H H 3 xXIXIXIXKXIXIXIXIXIXIXIXIXIXIXIX",
"IXIXIXIXIXIXIXIXIXIXIXIXIXIXIXJXgXdX<X#XiX|.G F F e.>X2X>X}.'.(.E.OX'.>.y.;.e.*.7 0.5 2 5 # # 2 pXGXIXIXIXIXIXIXIXIXIXIXIXIXIXIX",
"IXLXIXIXIXIXIXIXJXIXIXIXIXIXPXBXgX>X].L.%X@X .F D w.>X3X2XdX^.M.n.6XOXq.y.q.Q.:.E.:.>.%.: $.,.eXLXIXIXLXIXIXIXLXIXIXIXIXIXIXIXIX",
"LXIXLXIXIXIXIXPXIXIXIXIXIXIXIXBX4X X@X#Xu.|.e., , { 2X=X2X-XI.n.c.qXpX;X&X}.W.M J.E.W.=.>.nXFXIXIXJXIXIXIXIXIXIXIXIXIXIXIXIXIXIX",
"IXIXIXIXIXIXIXIXIXIXIXIXIXIXIXJXgX-X>X].e. Xi., # >.3X2X4X-Xv b b ^.1X:X*X*Xq.n V _.W.M *.BXLXGXIXIXIXIXIXGXKXIXIXIXIXIXIXIXIXIX",
"IXIXIXIXIXIXIXIXIXIXLXIXIXIXIXIXNXhX1X}. X=Xy.= 8 ,X*X4X=X4X`.v I.UXiX:X X|.$.1 C ).W.M 0.BXGXIXIXLXIXIXIXIXIXIXIXIXIXIXIXIXIXIX",
"IXIXIXIXIXIXIXIXIXIXLXIXIXIXIXIXIXpXiX*X X=X X{ XXgX<X2X9 Q.UX0X0XuX;X*X=X=X}.Q.).(.0.m W.nXlXzXAXlXFXFXIXIXIXIXIXIXIXIXIXIXIXIX",
"IXIXIXIXIXIXIXIXIXIXIXIXIXIXIXIXIXJX1X&X=X=X>X*XiXiXgX}.. ; R.0XtXuX>X>X2X4X4XgXgXuX;X,.}.vXbXtXrXpXpXrXzXlXKXIXIXIXIXIXIXIXIXIX",
"IXIXIXIXIXLXIXIXIXIXPXIXIXIXIXIXFXIXiX<X>Xi.i.4X2X>X>Xw.; ; o 7 :.W.>X2X2X4X4XdXuX1X<X,.$.'.uXrXwXwXwXeX8X).tXIXIXIXIXIXIXIXIXIX",
"IXPXIXIXIXIXIXIXIXIXPXIXPXIXIXJXHXBXmXnX-., e.2X&X4X;Xt.@ @ o . X 7 XX2X4X4XdX1X1X$X:X=.+ { oX+XwX).8XwX/.Y.).JXIXIXIXIXIXIXIXIX",
"IXIXIXIXIXIXIXIXSXDXSXPXbXIXJXBXmXgXgXdX,.% > :X>X=X&X&Xy.< X - o o w.3X>X:X3X;X1X}.XX} # K L oX(.OX).).E.T.R.IXIXIXIXIXIXIXIXIX",
"IXIXIXIXLXIXIXIXPXbXbXHXJXJXBXMXgXgXdX,X6.* * ,.&X&X=X*X|.{.$.X 7   7 '.:X*X;XXX.X'.].@ % A 6 '.oX).)._.T.R./.IXIXIXIXIXIXIXIXIX",
"IXIXIXIXIXIXIXIXbXPXHXJXMXnXcXaX#Xu.2. .J J A 6 $X}.i.&X X.X6.- o o . 8 q.}.'.}.y.4.&. .& H > 6.W.`././.E.Y.8XHXIXIXIXIXIXIXIXIX",
"IXIXIXIXIXIXPXPXDXPXNXBXMXfX#X7./ W G ] W W J H m +X&Xy.i.:X'.:.:.M .   X = 8 [ K > 6. .& * 2 ,.E.E._.).)./.lXIXIXIXIXIXIXIXIXIX",
"IXIXIXIXIXIXIXPXPXBXfXMXiX7.2.~ @._ _ W U U J O.k k Q..Xe.|.$X#.#.'.q.*.q.8 + ;.6.{.&.* K 3 :.W.E.T.T.T.E.T.FXIXIXIXIXIXIXIXIXIX",
"IXIXIXIXIXIXIXIXNXJXmXaXu.P W _ W I J J S S H O.V t k :.|..X].'.+ + 4 m - m r.t.6. .& 3 <.+XE.8XOX/.T.R.Y./.zXFXIXIXIXIXIXIXIXIX",
"PXPXIXIXIXIXIXJXJXBXxX{.2.+.@.( ^ 6.[.{.7. .3 m v.c.h c &.u.].].r.K 2 : 4 ,.].&.> 3 6.aXLXrXIXIXIXvXzXrXtXlXIXIXIXIXIXIXIXIXIXIX",
"PXIXIXIXIXIXIXIXJXMXfX{.+.^ ' 3.#XaXaXaXaXiXyXvXkXkXjX_.%.| ;.t.].].6.'.$XP.4 3 ,.iXLXLXLXIXKXIXIXIXIXIXGXIXFXLXIXIXIXIXIXIXIXIX",
"SXIXGXGXJXJXPXPXIXZXaX8.+.W 6.yXaXvXZXGXMXgXgXBXCXHXlXxXiX].> D ;.4.>.>.x c - +XMXGXLXLXIXIXPXPXIXIXIXIXIXIXIXIXIXIXIXIXIXIXIXIX",
"PXHXMXMXJXPXPXPXlXxXxXL./ 3.yXxXAXKXFXFXHXVXlXbXbXzXpXuXfXyX=., # 3 * # j j +XfXGXIXLXLXIXPXPXPXIXIXIXIXIXIXIXIXIXIXIXIXIXIXIXIX",
"HXBXLXIXIXPXKXIXJXBX#X6.J L.ZXxXLXLXAXlXFXGXlXlXzXzXAXeXsXyX'.l 6 2 + O j b.JXJXGXGXGXGXJXIXPXPXIXIXIXIXIXIXIXIXIXIXIXIXIXIXIXIX",
"BXJXIXIXIXPXLXIXGXeX:.l <.%XxXxXLXIXGXvXGXGXvXlXzXzXLX8X(.oX+X>.l l z k e m.KXIXGXJXMXGXJXIXIXPXIXIXIXIXIXIXIXIXIXIXIXIXIXIXIXIX",
"IXIXIXKXIXIXLXZXOXK.B B K.9XyXxXZXLXGXMXMXnXvXVXrX6XrX8X_.).wXJ.k z j k k _.LXLXIXIXJXJXJXIXIXIXIXIXIXIXIXIXIXIXIXIXIXIXIXIXIXIX",
"IXIXKXPXIXJXyXoXJ.v.V.N.k.~.jXaXMXVXMXMXnXaXuXzXwX_.).wX).`./.m.h g e B E.Q.LXLXIXPXPXIXIXJXGXJXIXIXIXIXIXIXIXIXIXIXIXIXIXIXIXIX",
"IXLXIXJXmXOXJ.<.b.N.G.G.d.V.jXUXzXhXhXvXhX-X-XtX-X).`.).`.9.I.m.p i h J.0.w.xXLXIXSXSXSXIXJXGXGXIXIXIXIXIXIXIXIXIXIXIXIXIXIXIXIX",
"IXPXIXJXsX,.%.b.v.H.Z.D.G.x.U.qXjXwXtXzXhX)./.-XtX^.9.R.Y.C N R.f a d v 9 1XLXLXPXPXSXSXPXIXGXLXJXIXIXIXIXIXIXIXIXIXIXIXIXIXIXIX",
"KXIXBXBXW.<.V k.V.F.F.F.D.D.F.V.qX0X^.^.tXwX~./._.T.Z C I.I.Y.C w d d   N gXIXIXPXNXNXNXHXIXIXIXIXIXIXIXIXIXIXIXIXIXIXIXIXIXIXIX",
"PXHXBXiX*.l x b.F.F.F.D.Z.f.S.z.c.U.5X5X6X6XJ.Z Z B t Z I.C Z t w u d e wXBXPXIXJXBXmXNXHXIXPXSXIXIXIXIXIXIXIXIXIXIXIXIXIXIXIXIX",
"PXDXmX-X5 O.z N.z.S.A.A.Z.Z.f.g.a.c.l.v.B.5Xn.h h r 0 e t e e e 0 u 0 v IXlXIXKXBXNXNXNXHXPXPXIXIXIXIXIXIXIXIXIXIXIXIXIXIXIXIXIX",
"PXIXmX1X8 %.b.d.S.C.A.A.A.Z.g.g.a.a.p.f g h w u w w d u w e w w u i q B CXLXIXIXIXHXIXHXHXPXPXIXIXIXIXIXIXIXIXIXIXIXIXIXIXIXIXIX",
"LXIXBXgX$.5 B l.z.f.Z.A.A.g.z.a.s.p.p.d.d.g u u q s s y w p p a a.a d.d m.LXAXIXFXIXPXHXKXHXHXJXIXIXIXIXIXIXIXIXIXIXIXIXIXIXIXIX",
"IXLXVXGX+Xm k d z.z.A.j.j.a.a.a.i p.g p w w w d s s f y a p p p i p.i u d.7XLXIXIXJXIXIXIXIXJXJXIXIXIXIXIXIXIXIXIXIXIXIXIXIXIXIX",
"MXnXFXIXAX8XB.v f s.j.j.a.a.f s f u 0 d v.n.v 0 q q y s p i a p i x.i s.j.G.KXKXLXZXxXxXMXJXJXHXIXIXIXIXIXIXIXIXIXIXIXIXIXIXIXIX",
"mXBXIXjXLXLXkX7Xw t g p.p.p.y q 0 t B.jXPXIXkX7X7Xv f f f p.p a.h.s.z.h.f.j.J.rXW.,.,.r.+XnXIXPXIXIXIXIXIXIXIXIXIXIXIXIXIXIXIXIX",
"IXIXIXIXIXLXIXKX6Xn.e e w 0 w B !.jXIXIXKXLXIXIXPXjXr 0 p.a.g.f.g.s.h.j.d.k.V %.[ | | { $.J.tXPXIXIXFXIXIXKXJXIXIXIXIXIXIXIXIXIX",
"IXIXIXIXIXIXIXIXIXAX8X^.T.~.jXKXKXIXIXIXLXIXIXIXVXIX^.r i a.D.g.z.z.s.h.k.x O.| F F D 4 m m C tXIXIXHXIXIXIXKXIXIXIXIXIXIXIXIXIX",
"IXIXIXIXIXIXIXIXKXIXIXLXKXIXJXIXIXPXIXIXIXIXIXGXHXIXPXI.i s.F.F.S.z.c.v.b.O.L %. .D 4 @ + . @ 0.GXIXIXKXIXIXIXIXIXIXIXIXIXIXIXIX",
"JXJXIXJXIXIXIXIXIXLXKXLXLXIXLXlXVXHXPXIXIXIXLXJXIXDXPXkXd.h.j.F.S.z.N.b.m K K  .6.K # + = = @ 7 hXIXIXKXIXIXIXIXIXIXIXIXIXIXIXIX",
"JXIXJXIXIXJXIXIXIXIXIXIXIXIXIXIXJXJXJXIXJXGXJXIXIXKXPXPXV.s.j.A.Z.N.N.V 8 , D D : + + { *...;.$.uXLXIXIXIXIXIXIXIXIXIXIXIXIXIXIX",
"JXJXJXIXJXIXJXIXVXJXJXIXIXJXIXVXJXHXBXJXIXJXJXJXHXKXIXPXqXd.x.x.G.N.V l , , < % # 4 ;.,...{ ..8 uXHXIXIXIXIXIXIXIXIXIXIXIXIXIXIX",
"IXIXJXJXIXJXIXIXIXJXJXHXJXJXJXJXBXNXJXJXJXIXJXHXIXHXPXPXCXl.j.N.k.z l 5 : < < < D ;.;...{ *.*.$.lXIXIXKXIXIXIXIXIXIXIXIXIXIXIXIX",
"IXIXIXIXIXIXIXJXIXJXIXJXIXIXJXIXJXJXIXJXHXJXIXJXJXIXKXPXDXU.d.z l 5 2 5 < = = D -...} } w.$.m -XGXIXLXHXIXIXIXIXIXIXIXIXIXIXIXIX",
"IXIXIXIXIXIXIXIXIXIXIXIXIXIXIXIXIXIXIXIXIXIXIXJXIXlXIXIXPX!.v k 2 : 3 : # - | w.........*.M OXJXIXKXIXIXIXIXIXIXIXIXIXIXIXIXIXIX",
"IXIXIXIXIXIXIXIXIXIXIXIXIXIXIXIXIXIXIXIXIXIXJXIXIXHXIXHXKX6Xk n 4 < > > 4 =.;.[ ..9 8 9 E.hXIXGXIXIXIXIXIXIXIXIXIXIXIXIXIXIXIXIX",
"IXIXIXIXIXIXIXIXIXIXIXIXIXIXIXIXLXIXIXIXIXIXIXIXHXJXIXLXFXzXZ m < , % @ | | , ..; 9 -XlXIXIXGXGXIXIXIXIXIXIXIXIXIXIXIXIXIXIXIXIX",
"IXIXIXIXIXIXIXIXIXIXIXIXIXIXIXIXIXIXIXIXIXIXIXIXIXIXJXIXIXIXC 1 8 @ } 6.| , 8 = 7 Q.PXPXDXIXcXMXJXIXIXIXIXIXIXIXIXIXIXIXIXIXIXIX",
"IXIXIXIXIXIXIXIXIXIXIXIXIXIXIXIXIXIXIXIXIXPXIXPXIXIXHXIXJXJXOX1 ; *.,.} { 8 8 w.uXPXPXPXPXIXJXJXIXIXIXIXIXIXIXIXIXIXIXIXIXIXIXIX",
"IXIXIXIXIXIXIXIXIXIXIXIXIXIXIXIXIXIXIXIXJXIXIXIXIXIXIXIXGXcXLXQ.N M 8 1 8 ,.+XcXIXIXCXPXIXzXMXJXJXIXIXIXIXIXIXIXIXIXIXIXIXIXIXIX",
"IXJXIXIXIXJXIXIXIXIXIXIXIXIXIXIXIXIXIXJXIXJXIXIXIXIXLXLXLXIXGXGXsX:.M Q.-XgXJXGXLXLXIXLXIXJXIXVXIXIXIXIXIXIXIXIXIXIXIXIXIXIXIXIX",
"JXIXJXJXIXJXIXJXIXIXIXIXIXIXIXIXJXIXJXIXJXJXPXIXLXIXIXLXIXIXxXLXvXHXBXgXgXBXlXIXLXLXLXJXJXJXFXIXIXIXIXIXIXIXIXIXIXIXIXIXIXIXIXIX"
};
