/* XPM */
static char *wall11675892128[] = {
/* columns rows colors chars-per-pixel */
"64 64 97 2 ",
"   c #313F25",
".  c #333D2B",
"X  c #353A34",
"o  c #363739",
"O  c #373938",
"+  c gray22",
"@  c #2A470E",
"#  c #2C4415",
"$  c #2E431B",
"%  c #30411E",
"&  c #3C5C1D",
"*  c #2F4020",
"=  c #304121",
"-  c #3D5727",
";  c #3D5924",
":  c #3F562C",
">  c #3E5828",
",  c #405826",
"<  c #40562D",
"1  c #405829",
"2  c #425432",
"3  c #445239",
"4  c #4E5F3E",
"5  c #476C27",
"6  c #486B27",
"7  c #4A672F",
"8  c #476B2A",
"9  c #4A692D",
"0  c #4C6634",
"q  c #4B6831",
"w  c #4E643B",
"e  c #51623E",
"r  c #577A36",
"t  c #587937",
"y  c #5A773E",
"u  c #577A39",
"i  c #59793B",
"p  c #4F5D43",
"a  c #515D45",
"s  c #525B4B",
"d  c #565654",
"f  c #555852",
"g  c #4F6340",
"h  c #516143",
"j  c #526049",
"k  c #5B7644",
"l  c #5C7842",
"z  c #5E744B",
"x  c #5E784B",
"c  c #5F7251",
"v  c #60744E",
"b  c #656F5E",
"n  c #627255",
"m  c #64705A",
"M  c #676D64",
"N  c #696C66",
"B  c #676C68",
"V  c #696B6A",
"C  c #657060",
"Z  c #6F7F62",
"A  c #668A44",
"S  c #688847",
"D  c #668749",
"F  c #68874C",
"G  c #66894A",
"H  c #68884A",
"J  c #6A8453",
"K  c #6D825B",
"L  c #6F8060",
"P  c #768A66",
"I  c #79876D",
"U  c #79886D",
"Y  c #7B8673",
"T  c #7D837B",
"R  c #80827F",
"E  c #869775",
"W  c #849872",
"Q  c #87957B",
"!  c #88947D",
"~  c #807F84",
"^  c #7F8081",
"/  c #818182",
"(  c #8D8F8D",
")  c #8A9383",
"_  c #8C908B",
"`  c #8D8E90",
"'  c #BCD3A6",
"]  c #BDD1AC",
"[  c #BFCFB4",
"{  c #C0D1AF",
"}  c #C0CEB6",
"|  c #C3CCBB",
" . c #C7C7C5",
".. c #C5C9C4",
"X. c #C6C7C9",
"o. c #C7C9C8",
"O. c #C8C8C8",
/* pixels */
"V B V V V V N N + V N N b 3 a b B V V V V V V M < , 9 F K M B V V V V V V ` V V V B M m 2 0 i i J n M V V V ~ V b n 1 ; ; 9 G F ",
"M M M b b ) M N V V d M n 2 a b V V V V V B M m 1 9 9 F n B B V V V V V V V V V N M m 3 n q i F K m M V ( N B Y 3 < ; q ; J J z ",
": : < 2 2 2 3 m B N V M 2 e a B + + V V V C 2 < q 9 A H m M V V V V V V O V V V V B m 2 0 9 r F b M V V V B a 2 , 9 9 G J K m . ",
"; ; ; ; ; ; 1 2 b M M | < e b V V ~ V V V B 2 0 7 F F J M V / V V V V V V V V V V M 2 > 9 u G J b V V N N m 2 1 J F J J P m B V ",
"i u i u u u q 1 2 n b 3 < h C V V + V V V M 2 e F K n . B X V V V V V o.V V V V B | < q u F K n M V ~ B Q < q F K n m m C B B V ",
"u l G G G F i 9 1 < n 2 e n C V V V V V X |   0 9 v . V V V + V O V V V O V V C C 2 > 9 i J n M M V V Y 2 0 F J n B B V V V d V ",
"J L L c n K H r 7 ; 1 < e n B V V ` V V V M % q i 0 = m B X V V V V V V V V V B 2 > i H K n b ..V V M b q F K n B X V V V V V V ",
"c c C C M n J S i 7 ; > h a B V V N N M b m v y i i e 2 b B N V V V V V V B C [ > i G J Q M B V B M b 4 J J } M B V V V V V V B ",
"C C B B N b v J i 9 7 0 a b B V V d b n w q F F A u q 1 2 Y B V V V V V V M 3 , y i K Q C B _ B T m P K K n M B V V N V / V M M ",
"V V V V O N m m F i q 0 m M V N N s 3 w y F F @ A r G q 1 2 b B V ` V X.N s 1 y i F n M ..V V B m j e L m b B V V V B B B M m 3 ",
"V V V V N N M n J k 0 e s N V N N b < q F F # J G r 6 9 q < 3 M B ^ d B b n 0 q i J . B B V T M j g I C M B V / B ( _ M ) m 2 1 ",
"V V V N V N s b 0 k e U N V V B s 3 > k F k z J l i q J 9 0 2 m M B B C 3 2 0 > K n M V B B M j I j s m M X C M s b m 3 2 < 0 9 ",
"V V V X M   n k l k h b N  .V N I 2 k k l v F l 0 n n K F q 2 m X m } 2 1 q q 1 n M B V N B m j C M M j 2 n n 2 2 < < ; q 7 9 t ",
"V V V B m n z z 0 w ! M N N N b 2 e z P v v J 0 h m | n J 9 < n m 3 2 ; i i q < b M N V d B Y j B V ..m h e e q q 9 q y i l J F ",
"d V C = n e j m b M _ M M m m 2 < k n n y q e ! b B X m J H 0 1 > > i i i u q 1 U M B O V M Y s B V d M b h 0 9 t i F F J K m b ",
"N N j m w h . M N V V M 3 2 2 > k z I n k q n b B V V M n J q & 9 i i H A r 9 > 2 3 b M M M j Y T V V R M b 0 i u D F v n   b B ",
"C b e w 2 m | V N N M b 2 : w z c m B m l 0 b s V V X.M b m F 9 r i J J S r 9 q # 2 3 m m j 3 Y T V V V B b 0 i J z m m C m b b ",
"n h 0 , 2 n s b M b 3 m > 0 z z m M V . k q 2 b M V V M j n F 6 S F P E F H i y 0 w 2 n c g 3 m ../ V ~ B . w k K c M B m 3 3 j ",
"0 q q , 1 1 1 < 2 2 < 1 ; k c m ..B B m l 7 < b N N V N C n 9 i F v } m m K F H u i > > > w 2 I B O V V V T U z K w M b 3 < h h ",
"t i 9 9 9 q 9 q 0 0 0 0 0 z b M B B B M v y , 2 | N N s m e J J L = B B C m v J G u i q q q < 2 b B d ^ B T n z K n I 3 < e n m ",
"r r r u i u r r u i k e m M B V ^ V V M c k 0 < 3 b n 2 1 J K 4 ) B V d N B R m F u i > 9 9 q < 3 b V V ..m z k K v n 2 e m C R ",
"J F F u i G F F G i w n ..V V V V o V M n v k 7 < n < 1 q J n N V V d N V V B m J i > & i i 9 0 2 n m b m h z K L n 2 2 a b B V ",
"m m K J J J n z i q e m T V V V X.V V M b z y 7 - 1 , 0 0 Z b N N V V V V N V C K F ; 9 r r i 9 q 1 < e w z K K b b b 3 b N N V ",
"V B m n m n n n l 0 n X V X.V V V V N M b v y 9 ; , , 0 v a M N V V O.V V d V C v > > 9 F A r u 9 7 ; 0 1 n n n | N n 3 d V + V ",
"V V B M ) b b v q w ! M B B V V V V V ^ B } k 9 9 9 9 > n } b M V V V V d N V M m : q F J F A A r i 9 q > n m B V M 2 4 N V V V ",
"..V V B N N n k q 1 2 M B V V V V V V V B m k 9 t i 9 - < 3 3 b b M M T M M N s m 2 q F w v A A A t i 9 > 2 C B N b < 0 I N V V ",
"V V V V V M v l y 0 2 b B V V V V B d V M [ k 9 8 u u 9 7 q 1 1 1 < 2 2 n b b   n 1 J J m n J A A r t 9 q < Y | b 4 1 0 K m V ~ ",
"V V V V V b v y y q < n m M | M M B M s 3 < q i i A H y y y 7 7 9 q 9 , 2 2 2 < : w J z . M n J F A i i 9 > : 2 < 1 - l J n B V ",
"B B V V X.M e i t 9 ; ; : < 2 2 n b m 2 1 0 ' i F F J J J J S t r r t i 7 q 0 q q 0 K m Y B M b n J H t i 9 > > q q i i K c B B ",
"B B B V B m 0 t t F k y i 9 9 ; < < < 1 7 y i l J k P n n { J F F H i i y t t i 9 J n M f V V N M Q J S i 9 ; 9 9 r r F K m X V ",
"V V V B m h i i S F J F G r r u y 9 q q 9 i F J K n b f N b b . n K K J F y y 7 G J b B V V V V V . v F i 9 ; q u r A D n b B B ",
"V V V ^ m 0 i F J z n 4 J F F D i i 9 9 9 i J v a | N  .V V V N C M m E k i 9 9 J z M V V V V V V N m K F 8 9 u u A A K s B B B ",
"V V M M w k F J b b M M b m 4 K H r 6 9 t F K n M N V V V V V V V T N m k r 6 F K m B V N V O.V V B T m q 9 u u G F m C V V ^ V ",
"V O V b 0 t F w . V B V B M b z i i 9 i t F n M _ V V V V V N d V _ M n k 6 A F n M B B V V V V V B B m w i u F J c = V V V V V ",
"V o M   q F K Q M V B V B M c k y 9 9 i H K m N d V V V V V N N V B n z i 8 G J m _ V V V V V V V M n e i i J v m C B V V N B T ",
"V M b w y J n b B V V B M b x l 9 9 l l F v M V N V / V V V V V V m z i 9 F J n M V V + V V V V B m e q i F K | B V V V V B B j ",
"o M w l i J b B V o V B M c x 7 y l c n b C B V V V V V V d V N N a k q 0 K Q C N N V V V B V B n e 0 i F J m C V V V V V B R h ",
"B n k u F n M B ^ V V M Y c k q l v a ) M N N V V V V V V _ X M b 2 1 q > n M V V V V V V X B M w q i F J v C V X V V V R C n w ",
"n w y i J c B V ^ V V M z k 0 k y v E n s b ( V V / V V V V V m 2 - 7 q 2 m B N V N V d V B C 2 0 y F F m X B V V V V B B 2 q H ",
"0 q y k K m M V V N ..m k q c w k k z 2 < 2 m N V V V V V V m 2 - y y 0 < n M V N V N N N b n 2 9 i F n C V V V V V V M n 1 H A ",
"9 y i z [ V V ~ d B n z k e | m K 7 7 q q ; < 2 b d B V V M 2 1 7 i y k 1 2 b f N N X N C m 2 ; u G K m V V V V V V V b 2 J D G ",
"i y z n Z V V V V m z k w a M M n J J J J 7 q > 2 m b M B Y < q i k z k 0 < 3 b R a b . 2 < , q F J m M B V V V V V N b ; G F q ",
"z z b M V V V V V M z 0 } M B B N s b n z J F 9 ; J 2 n n 2 0 0 k v v k q 0 2 n 2 < < 1 , q i q I s M B V V ~ V V _ B m 1 H m n ",
"m b M d V V V V V m 0 0 m ..B V V N V N m K H A A 9 > < < < 0 k c m n z 0 q 1 1 1 0 q y F i i w b V V V V V V V V B b 2 > J m C ",
"B B V V V V V V B m 0 > 2 m T V V V V _ B n J A A 6 7 , , e W v C C m z 0 ; , q 0 l F F F F i 0 b V V V V V V V V T m 2 F K m C ",
"V ^ ^ V V V V V m e F q : 2 B V V ^ V V _ ) n J F F 7 0 0 ' v b T B m z 0 9 9 9 k J J z x J D q m T B V V V V V V M 2 > F ] C V ",
"V O V V V O V d n 0 G u ; : T V V V V V V B M m % J J 7 7 k n Y B T C c k 9 9 i l J b b b n J i 0 2 s V V V V R _ a 1 F J e B V ",
"V V V V V V B f h J G u i 2 m B V V V V B B B m v e e # k z m X V B B n k 9 r t F n b V V m F r 9 : b V V V N N b 2 k F v m B V ",
"V V V V N N b a h P F S i 1 3 M B B V B M b 3 n 0 0 z z c m B B V V B . k 9 t F K m N V V = F r q < M d N N N s < < J E ) _ N N ",
"V V V V V s 4 a 3 n e F y 9 < n . B B M b 3 < w l k n b m M B B V V B b 0 i t F m M N V V m J r 9 :   B N | b < , F m n N O N N ",
"o V V V V M e < b b m K y 9 q K 2 m Y m 2 : w ] w n b M V O B V V B M m w l H J b N V N V C F r 9 < n b a 2 1 & t F b M N N N N ",
"V V V V V b w 2 M B . n F t 9 & > : 2 2 ; ; i k w b M V V V B V ` T b j w l K v M V d V V b G r 9 ; < 2 < , 0 F D J b ( B B b 3 ",
"V V V B B m e < C B m n J t 9 9 9 q q 0 9 u A H w m M N ( V V V V B m w y F K m B + V V V m F A r H ; 1 q 7 F J z m B B b m < < ",
"V o V M b g > : m C 2 2 ; & 9 i i t 9 9 u r A G # h M N V V V V V T c k y F n M R V B B m n F A A 6 9 9 9 F J w m m ) m 3 < , i ",
"V V V B w 0 ; > 1 : < 0 9 6 r r 9 9 H r r A H H F w b V V V V N B m x i F J b N V V M n J H A r 9 6 A r F J n b m m m 2 1 q u A ",
"V B B m w 9 9 q 9 q 9 9 H A S 6 9 r i u H G l F F q m N V V O.B m w y G J v M V N b n J G r 9 9 8 u G F F # m b 2 < 1 > i i i F ",
"B B m w y t t t r r r r A r 6 6 t t H F J n z J y q h b T V V M z i F J m M d M m % J H i 9 5 6 5 H K v v < 2 < > q i S A H J 4 ",
"m m w J J F F F F F J F H 6 H u t S J w n b v J y q h m B V M n l G J ] m B s m K J H 5 9 9 > F F J n m 2 < , 9 i u A A F J n b ",
"x K J K n m b b C m M n 0 # i r H J n b N b z F y 0 m B N M n k r F n b b b % J J 9 9 q q , J K m m m n < 1 9 t r A G J n b N N ",
"J J c m B V V V V V B m w i i F J v M d M b J D l e B _ V m z y D J m M n K J S 9 9 q & , 1 ' v m m 2 2 1 ; t t G F J ] B V V V ",
"L m m B d N N d V B m w i i J K m M B M m K F l e m B N M a y H K = n v J F y 9 9 9 9 ; & > > 1 2 < < 1 9 i t S K n m N B V  .V ",
"M M B B V V V V V C w q i F v m B ^ V C n J y l n B R B b v y J n m K J i t 9 9 u r 9 9 q 9 9 5 9 9 9 9 9 i S J n M V V V V V V ",
"B B V ^ V + V V N s e i H J m M V V V M n J y 0 . V V M n k J v b m J i 9 9 9 t r r r r u u r r r r r r 6 F K   b V V ~ V V V V ",
"V B V V V V V V V m 0 i F v m d V V V X n J y 0 b V V b e J K n B b l 9 9 9 t t A A A A A A A A A A A A 6 F n b N V V V O.V V V "
};
