/* XPM */
static char *ffd515de79024e19aa422b5d0ad917f04iw1EnBa9htUcYIu[] = {
/* columns rows colors chars-per-pixel */
"64 64 215 2 ",
"   c #084100",
".  c #024F01",
"X  c #015400",
"o  c #0B5402",
"O  c #025D01",
"+  c #0B5E00",
"@  c #075E09",
"#  c #0B5D0A",
"$  c #114E12",
"%  c #324E14",
"&  c #205C1E",
"*  c #026301",
"=  c #0C6201",
"-  c #016B03",
";  c #0A6A02",
":  c #05610A",
">  c #0A620D",
",  c #036B0A",
"<  c #0B6D0B",
"1  c #116304",
"2  c #10660B",
"3  c #027302",
"4  c #037C00",
"5  c #02720C",
"6  c #017D0C",
"7  c #0A6311",
"8  c #066D13",
"9  c #096814",
"0  c #096A19",
"q  c #066511",
"w  c #1A6A15",
"e  c #1A6E18",
"r  c #156416",
"t  c #027514",
"y  c #0E7314",
"u  c #037C13",
"i  c #0A7913",
"p  c #0C7C1C",
"a  c #1E7318",
"s  c #14701B",
"d  c #0F5F20",
"f  c #265729",
"g  c #176722",
"h  c #1B6021",
"j  c #156528",
"k  c #1E7428",
"l  c #227E33",
"z  c #407839",
"x  c #3F7555",
"c  c #4E7A47",
"v  c #4F764A",
"b  c #52754A",
"n  c #59754F",
"m  c #52794D",
"M  c #477F50",
"N  c #4D7656",
"B  c #587F53",
"V  c #557C50",
"C  c #018402",
"Z  c #008D00",
"A  c #02830C",
"S  c #09830B",
"D  c #008D0B",
"F  c #019303",
"G  c #0B9007",
"H  c #009807",
"J  c #01930A",
"K  c #019A0A",
"L  c #0B9D0C",
"P  c #109B0E",
"I  c #028412",
"U  c #0A8413",
"Y  c #008811",
"T  c #0B8C14",
"R  c #08861A",
"E  c #008D1B",
"W  c #068419",
"Q  c #108915",
"!  c #029213",
"~  c #0B9414",
"^  c #019C13",
"/  c #02941A",
"(  c #0E9318",
")  c #059E1B",
"_  c #0A9D1B",
"`  c #0C9E17",
"'  c #139414",
"]  c #14931B",
"[  c #00A207",
"{  c #02A50D",
"}  c #0BA30E",
"|  c #01AD0D",
" . c #0DAD0F",
".. c #00B507",
"X. c #01B30D",
"o. c #01BA0E",
"O. c #0ABD0C",
"+. c #04BB04",
"@. c #01A612",
"#. c #0AA415",
"$. c #00AC14",
"%. c #0BAC16",
"&. c #06A319",
"*. c #09A31B",
"=. c #01AB1B",
"-. c #0CAA1B",
";. c #13A413",
":. c #10A11E",
">. c #01B213",
",. c #0BB216",
"<. c #00BC12",
"1. c #0CBB12",
"2. c #01B319",
"3. c #0AB21C",
"4. c #01BB1B",
"5. c #0DBD1C",
"6. c #12B21C",
"7. c #0C8921",
"8. c #089922",
"9. c #149E24",
"0. c #01A622",
"q. c #0CA521",
"w. c #04A924",
"e. c #0CAB23",
"r. c #19AB22",
"t. c #00B521",
"y. c #08B326",
"u. c #01BC21",
"i. c #0DBB24",
"p. c #04BB29",
"a. c #12B826",
"s. c #12BB2D",
"d. c #19B226",
"f. c #00C106",
"g. c #08C507",
"h. c #00CA04",
"j. c #00C30E",
"k. c #0AC40C",
"l. c #02CA0C",
"z. c #09CD0B",
"x. c #00DD05",
"c. c #01D50D",
"v. c #00DB0D",
"b. c #09DD0D",
"n. c #07D50A",
"m. c #01C413",
"M. c #0EC410",
"N. c #01CB14",
"B. c #0ACD13",
"V. c #05C51D",
"C. c #0CC519",
"Z. c #02CC1B",
"A. c #0CCC1B",
"S. c #11C814",
"D. c #1AC71F",
"F. c #16C619",
"G. c #01D614",
"H. c #0CD213",
"J. c #03DA16",
"K. c #0BDB12",
"L. c #03D41B",
"P. c #0AD21C",
"I. c #02D919",
"U. c #0FDE1C",
"Y. c #11D313",
"T. c #10D71A",
"R. c #13DD1D",
"E. c #0CE50E",
"W. c #02E014",
"Q. c #01E01B",
"!. c #09E019",
"~. c #05EA1E",
"^. c #00C324",
"/. c #09C123",
"(. c #02CB24",
"). c #0ECC25",
"_. c #0AC629",
"`. c #07CA2D",
"'. c #19C728",
"]. c #04D225",
"[. c #0CD523",
"{. c #00DB22",
"}. c #0FD921",
"|. c #02D22A",
" X c #03DB29",
".X c #09CA31",
"XX c #17C238",
"oX c #02E021",
"OX c #468451",
"+X c #5A8353",
"@X c #678C61",
"#X c #D8EBCF",
"$X c #D5F3CF",
"%X c #DFEEDB",
"&X c #DBE8D6",
"*X c #E3EECE",
"=X c #E8ECD9",
"-X c #E9F0DE",
";X c #E3F6D8",
":X c #F0F4D9",
">X c #EDFFEC",
",X c #F7FFEF",
"<X c #F7F4E7",
"1X c #FFEDF6",
"2X c #FFEFFF",
"3X c #E6FFF3",
"4X c #ECFEF4",
"5X c #E6FFF8",
"6X c #EDF9F9",
"7X c #F2FFF1",
"8X c #FCFFF4",
"9X c #FFF4FD",
"0X c #F5FFFF",
"qX c #FDFDFE",
"wX c #FFF4F4",
/* pixels */
"r @ * , * * ; = * 8 * * , - - * + O O + + + + @ O O + = O = : @ O * * * = O - 3 * O : * @ O * O # + O * - ; * + ; * * ; * - > % ",
"7 @ , 5 5 u i , I ] A A ( T ( ~ ) ) / ) ) ) ) ) ) &.&.) q.&.&.&.*.&.w.e.e.-.2./.V.Z.Z.V.V.Z.V.Z.p.t.4.^.|.^.u.u.3.=.y.d.3.2.! > ",
"q * , W I Y W I J #.J K #.{ %.@.$.$.$.>.$.>.>.>.>.>.>.>.>.>.<.>.<.>.<.m.<.m.N.I.W.W.W.W.W.J.W.W.V.Z.L.I.oXI.L.N.N.N.Z.Z.L.].@.O ",
"@ O 5 I I I Y 6 Z K F F { K | { | | | | @.| $.| X.| >.>.X.$.>.>.| X.>.>.X.X.N.L.P.(.P.A.P.].P.P.1.o.k.H.Y.H.k.O.h.l.N.O.m.[.*.+ ",
"@ O , u A A I 6 J &.J K @.@.@.@.#.#.#.#.%.&.#.#.%.$.%.%.%.%.3.%.6.1.2.3.%.1.C.}.{.{.{.{.{.{.{.{.m.m.N.I.Q.I.G.j.S.Z.C.O.O.).9.o ",
"# X * 6 6 A U u Y 9.Y K ) ^ &.@.@.@.$.@.@.@.$.@.$.$.$.$.$.=.$.$.%.2.>.2.2.>.m.].v.v.c.v.v.v.c.v.<.m.m.I.I.I.N.m.m.Z.Z.m.m.(.8.. ",
"@ O , A A I U A D _ D D ^ ^ &.@.$.$.$.$.$.=.$.2.2.2.2.2.4.2.4.2.2.4.4.4.4.<.Z.{.K.b.b.b.K.K.b.b.5.5.m.P.}.[.A.C.m.m.N.N.L.{.0.O ",
": * 5 A A A I A D ` J K @.@.$.@.{ } @.| } @.} @.$.| | >.| $.| ,. .,.>.2.,.o.N.I.L.].].].].L.].].m.m.m.I.I.I.N.N.F.m.j.k.l.Z./ . ",
": O - u A A I 6 D :.D F #.@.{ @.@.{ @.@.$.$.=.$.$.$.$.=.>.>.o.>.$.>.o.<.2.2.m.J.I.I.I.G.G.I.I.I.V.<.N.U.I.I.Z.m.<.N.N.m.m.Z.#.X ",
"@ * - I A A A 6 D :.D J #.@.@.{ @.@.@.@.@.$.$.$.$.$.2.>.>.>.>.>.>.>.<.>.2.2.m.J.I.J.I.I.I.I.I.G.V.<.N.I.G.L.P.m.C.m.V.m.N.Z.*.X ",
": O - I A A I 6 D _ D J #.@.{ @.@.| @.@.@.@.$.$.$.$.>.>.>.>.>.>.>.>.>.<.2.>.m.I.I.G.I.G.G.I.G.I./.<.N.I.I.L.P.m.m.N.Z.m.N.(.) X ",
": O - I A A A 6 D q.D J #.@.| @.@.@.@.@.$.$.=.$.$.$.=.>.2.>.>.>.>.>.<.>.>.2.N.J.I.I.I.I.I.I.I.G.V.<.N.I.J.L.Z.m.M.m.Z.m.l.(.#.X ",
"@ O - I A A I 6 D :.D D &.@.{ @.{ @.@.@.@.$.=.$.$.$.=.>.>.2.>.>.2.>.<.>.2.2.Z.J.I.G.I.I.G.I.I.L./.m.N.I.J.L.Z.m.m.m.N.C.m.P.) X ",
": O - 6 A A I A D :.Z J #.@.{ @.@.@.@.@.@.$.$.$.$.$.=.>.>.>.>.<.>.>.<.>.2.>.m.J.I.I.G.L.I.I.I.G.V.<.N.I.J.L.P.m.C.Z.m.m.l.(.&.X ",
": O , I A A I 6 D q.D J #.@.@.| @.@.@.@.$.$.$.$.$.$.$.>.>.>.>.X.2.>.o.<.,.>.N.I.I.I.I.I.G.I.G.I./.<.N.I.G.L.Z.m.m.N.N.m.N.Z.) X ",
"@ O - A A A I 6 D _ D J #.@.{ @.@.@.@.$.@.@.=.$.$.$.=.>.>.>.>.>.$.>.<.>.2.>.N.I.G.I.G.I.I.I.I.I.V.<.N.I.I.I.P.m.M.m.Z.m.m.Z.) + ",
"1 * - S T U U C J K F F P ;.{ | $.$.$.$.$.$.>.>.>.>.>.>.>.<.>.4.+.+.O.1.o.O.B.R.W.J.W.J.W.J.W.J.m.B.f.J.~.v.c.H.g.f.G.G.c.A.r.O ",
"X O - u 5 t 7.I Q ] ! Y ' ' ~ ^ _ _ ) ) #.) #.&.@.$.@.$.$.=.=.=.=.=.w.w.w.w.2.^.Z.m.Z.Z.N.V.B.V.>.4.>.<.(.m.4.2.).i.>.>.4.3.8.O ",
"f h k k d j l X X , - * - * * 3 + + O = * * = * = + + = + = 1 = = + = = ; ; 3 3 q 0 0 7 7 > 7 7 q s > < 8 0 g $ X w r w a w f f ",
"8X=X$X;X&X=X$X+XO y p u p p i W / / / / ) ) ) &.&.=.=.=.=.=.=.=.>.X.>.m.Z.N.N.Z.N.N.N.Z.m.o.<.m.j.I.l.f.o.<.4.Z @X#X=X<X-X*X-X8X",
"9XwX8XwXqXqX8Xn X , 6 u u 6 6 I &.@.^ $.=.$.$.2.$.$.%.%.3.%.3.%.X.o.o.H.R.U.J.K.b.b.K.K.K.g.z.H.x.E.b.n.h.z.F.Z M 5XqXqX8X4X4X0X",
"0X0X0X0XqX0X3XM O 5 I I A A A D ' G G P ;.#.} #.| | | | | X.$.X.2.$.4.V.[.].L.{.].].|.|.(.4.u.`.]. X].(.^..XXXC N 0XqX9X9XqX0X0X",
"0X0X0X0XqX6X3XOXX 5 u I A A 6 A @.J J @.>.@.| >.$.>.| $.$.>.$.,.=.2.4.Z.{.L.L.L.W.v.W.!.J.l.l.[.G.G.c.G.h.B.'.C b wX1X2X1XqXqX9X",
"9XqXqX9X9X9X7Xc X < u I R U I U ) J J &.=.=.@.2.$.$.>.2.$.2.2.2.| ..f.v.x.W.J.W.G.G.I.U.Z.<.m.[. XL.N.N.j.V.'.C l >X4X0X4X7X8XqX",
"0XqX9X0X0XqX8XOXX , I I A C A I #.J J #.@.$.$.@.$.$.$.$.>.$.X.>.>.>.o.N.I.I.I.I.J.G.J.I.L.j.m.Z.J.L.{.N.k.N.|.4 n ,XqXqXqXqXqXqX",
"0XqXwX0XqX9X,XOXX , I Y A A A I &.J J #.$.@.$.@.$.$.$.$.$.>.>.| >.>.<.Z.U.I.I.I.L.I.J.I.N.j.m.L.J.L.{.N.M.N.(.4 b 7XqXqXqXqXqXqX",
"0XqXqX0XqXqX,XOXX , I I A A S Y #.J J #.@.$.$.@.$.$.$.$.$.>.| >.>.X.<.N.L.I.G.I.K.G.I.I.A.j.m.Z.J.I.{.N.M.N.].4 b 4XqX9XqXqXqXqX",
"0XqXwXqX0XqX,XOXX , I Y A A A I &.J J #.$.@.$.@.$.$.$.$.X.$.,.>.>.>.o.N.L.I.I.I.J.J.I.I.L.j.j.L.G.L.I.N.M.N.).4 b ,XqXqXqXqXqXqX",
"0XqXwX0XqXqX,XOXX , I I A A I I &.J J #.@.@.$.%.$.$.$.>.$.>.>.| >.>.o.Z.I.I.I.I.K.I.I.I.N.j.m.L.J.L.{.N.M.N.(.4 b 7XqX9XqXqX0XqX",
"0XqXqXqXqXqX,XOXX , I Y A A A A &.D J #.@.$.$.@.$.$.$.$.$.>.>.| >.X.m.N.P.J.I.I.J.G.G.I.N.m.m.Z.J.I.I.N.M.N.].4 c 7XqXqXqXqXqXqX",
"0XqX9X0XqX9X8XOXX , I Y A C A I &.J J #.@.$.$.@.$.$.$.$.>.>.>.>.2.X.<.N.P.I.I.I.K.J.I.I.P.j.m.L.J.L.{.N.M.N.].4 v 7XqXqXqXqXqXqX",
"0XqXwX0X0XqX,XOXX , I I A A I I &.J J #.$.@.$.@.@.$.$.$.$.>.| >.>.X.o.N.I.I.I.I.J.J.I.I.N.j.m.L.J.I.{.N.M.m.].4 v 7XqXqXqXqXqXqX",
"0XqXqXqX0X9X,XOXX , I I A A A I #.J J #.$.@.$.@.$.$.$.$.>.$.$.>.$.>.o.N.I.I.I.I.J.L.J.I.Z.j.m.L.J.L.{.N.M.m.].4 b 7XqXqXqXqXqXqX",
"0XqXwX0XqXqX,XOXX , I Y A A S I &.J J #.@.$.$.@.$.$.$.$.$.>.X.X.>.>.<.Z.I.I.I.I.J.G.J.I.L.j.m.Z.J.I.{.N.M.N.(.4 c 7XqXqXqXqXqXqX",
"0XqXwX0XqXqX,XOXX , I I A A S Y &.J J #.$.@.=.@.$.$.$.$.>.$. .>.>.X.<.N.L.K.I.I.K.I.I.I.B.j.m.L.G.L.{.N.M.N.].4 b 7XqX9XqXqXqXqX",
"0XqXqX0XqXqX,XOXX , I D A A A I &.J J #.$.@.$.@.@.$.$.$.>.>.$.>.2.X.o.N.U.I.L.I.J.G.I.I.N.m.m.L.G.L.{.N.M.m.].4 v 7XqXqXqXqXqXqX",
"0XqX9X0X0X9X8XOXX , I I A A A I &.J J #.@.$.$.@.$.$.$.$.>.>.$.X.>.>.<.B.I.I.I.I.K.G.I.I.N.j.m.].J.I.{.N.M.N.[.4 b 7XqX9XqXqX0XqX",
"0XqXwX0XqXqX,XOXX , I Y A A A A &.J J #.$.@.$.@.$.$.$.$.| >.X.$.>.>.<.N.L.I.I.I.I.G.I.I.L.j.m.Z.J.L.I.N.k.N.].4 c 7XqXqXqXqXqXqX",
"0XqXqX0XqXqX7XOXX , I Y A A S Y #.D J #.@.$.$.@.$.$.$.>.$.>. .>.>.>.<.N.L.I.G.L.K.G.I.I.N.j.m.L.J.J.{.N.M.N.(.4 v 7XqXqXqXqXqXqX",
"0XqXwXqXqXqX,XOXX , I I A A A I &.J J #.$.@.$.| @.$.$.$.>.$.>.>.>.X.<.N.I.I.I.I.J.J.I.I.H.j.m.L.J.L.{.N.M.N.].4 v 7XqXqXqXqXqXqX",
"0XqXwX0XqXqX8XOXX , I Y A A A I &.J J #.@.$.$.@.@.$.$.$.>.$.>.| >.>.o.N.P.J.I.I.K.G.J.I.B.m.m.Z.J.L.{.N.k.N.|.4 v 7XqXqXqXqXqXqX",
"0XqXqXqXqXqX,XOXX , u Y A A A I &.J J #.@.@.$.@.$.$.$.>.>.>.>.| >.>.j.Z.I.I.I.I.I.L.I.J.N.j.m.L.J.L.{.N.M.N.(.4 v 7XqXqXqXqXqXqX",
"0XqX9X0X0XqX,XOXX , I Y A A A I @.J J #.$.$.$.%.$.$.$.$.$.>.>.>.>.X.<.N.I.I.I.I.J.J.J.I.L.j.m.].J.I.{.N.M.N.].4 v 7XqX9XqXqXqXqX",
"0XqXwX0XqX9X,XOXX , I Y A A A A #.D J #.@.@.$.@.$.$.$.$.X.$.| >.>.>.<.N.P.I.J.I.J.J.I.I.N.j.m.L.G.L.I.N.M.N.).4 v 7XqXqXqXqXqXqX",
"0XqXqXqXqXqX8XOXX , I Y A A S I &.J J #.@.$.$.@.$.$.$.>.$.>. .>.>.>.o.N.L.I.L.I.K.G.I.I.L.j.m.Z.J.L.{.N.M.N.(.4 b 7XqX9XqXqX0XqX",
"0XqXwX0XqXqX,XOXX , u Y A A I I &.J ~ #.@.$.$.@.@.$.$.$.X.>.>.$.>.>.<.G.I.I.I.I.J.G.I.I.N.j.m.L.J.I.I.N.M.N.].4 c 7XqXqXqXqXqXqX",
"0XqXwX0X0XqX,XOXX , I Y A C A I &.J J #.@.$.$.@.$.$.$.$.$.>.>.X.>.>.o.Z.P.I.I.I.I.G.I.I.A.j.j.Z.J.L.{.N.M.N.].4 v 7XqXqXqXqXqXqX",
"0XqXqX0XqX9X,XOXX , I I A A A A @.J J #.@.$.$.@.$.$.$.$.>.$.$.X.>.>.o.N.I.I.J.I.K.G.I.I.L.j.m.L.J.I.{.N.M.m.].4 v 7XqXqXqXqXqXqX",
"0XqX9X0X0XqX8XOXX , I Y A A A I &.J F #.@.$.=.@.@.$.$.$.$.>.X.$.>.X.<.Z.I.I.I.I.J.G.I.I.N.j.m.L.J.J.{.N.M.m.].4 b 7XqXqXqXqXqXqX",
"0XqXwX0XqX9X,XOXX , I I A A A A &.D J #.$.@.$.@.$.$.$.$.>.$.%.X.2.>.o.N.P.L.I.I.K.J.I.I.L.j.m.(.J.L.{.N.M.N.].4 c 7XqXqXqXqXqXqX",
"0XqXqX0XqXqX,XOXX , I Y A A A I &.J J #.@.$.$.@.$.$.$.>.X.>.>.| >.X.<.N.I.I.J.I.I.G.J.I.N.j.m.L.J.I.{.N.M.N.].4 v 7XqX9XqXqXqXqX",
"0XqXwXqX0XqX,XOXX , I I A A A I #.J J #.@.$.$.@.$.$.$.$.$.>.$.X.>.>.<.B.I.J.I.I.K.G.I.I.H.m.m.Z.J.L.I.N.M.m.].4 v 7XqXqXqXqXqXqX",
"0XqXwX0XqXqX,XOXX , I Y A A S A &.J J #.@.@.$.@.@.$.$.>.>.$.$.,.>.X.<.N.I.I.I.I.I.G.I.I.Z.j.m.L.J.I.{.N.M.N.[.4 b 7XqX9XqXqX0XqX",
"0XqXqXqXqXqX,XOXX , I Y A A A Y &.J J #.@.$.$.%.$.$.$.$.$.>.X.>.2.X.<.N.P.I.I.I.K.I.I.I.H.j.m.L.J.L.I.N.k.N.].4 c 7XqXqXqXqXqXqX",
"0XqX9X0XqX9X8XOXX , I Y S A A I &.J J #.@.$.$.@.$.$.$.$.>.>.X.$.>.X.<.N.I.I.I.I.J.J.G.I.Z.j.m.L.J.L.{.N.M.N.].4 v 7XqXqXqXqXqXqX",
"0XqXwX0X0XqX,XOXX , I Y A A A I &.J J #.@.$.$.$.$.$.$.$.$.>.$.X.>.>.<.N.L.I.I.L.K.G.I.I.N.j.m.Z.J.L.{.N.M.N.(.4 v 7XqXqXqXqXqXqX",
"0XqXqXqXqXqX,XOXO , I Y I I E E &.J F @.@.$.$.$.@.@.| $.| %.X. .3.>.<.B.P.H.P.P.J.J.J.I.N.f.j.G.z.G.I.k.m.V.'.C b 4XqXqXqXqX0XqX",
"0XqXwX0X0X9X,XOXX , U I A A I I ) J K &.&.@.&.@.2.2.2.2.>.2.2.4.2.>.m.].{.{.I.Q.H.L.I.U.A.C.C.Z.I.Q.Q.l.Z.L..XC b >XqXqXqXqXqXqX",
"0XqXwX0XqXqX,XOXo < U T A A A I q.J ^ *.&.&.=.&.$.$.=.=.>.$.$.$.$.$.<.Z.I.I.I.I.J.G.I.I.N.m.N.L.I.J.J.m.m.Z.).4 m >XqXqXqXqXqXqX",
"0XqXqX0XqXqX,XOXX ; 6 A A A A A #.J J @.@.@.$.$.#.-.%.%.%.%.,.%.-.%.1.A.T.K.G.v.I.J.I.I.G.j.N.G.K.J.J.B.D.V.'.C m >XqXqXqX0XqXqX",
"0XqX9X0X0XqX8XOXX * A A A A I D { F F { { { | | $.>.X.$.>.>.X.>.| | o.N.G.J.v.v.Y.H.H.H.M.O.O.m.J.G.v.l.B.N.A.C m 7XqXqXqXqXqXqX",
"0XqXwX0XqXqX,XOX* t I Y I T I W ;.J K %.%.%.,.%.>.>.>.>.<.>.>.<.4.<.N.L.I.I.oXI.I.I.I.{.L.m.N.L.{.I.I.N.Z.N.(.Z V 7XqXqXqXqXqXqX",
"0XqXqX0XqX9X7XOX@ 8 u u u i u t ] u U ] ( ~ ~ ~ 8.q.&.0.&.&.&.&.q.=.=.3.i.i.i.s.u.^.^.^.t.3.t.p.a.4./.6.3.=.s.S +X7XqXqXqXqXqXqX",
"0XqXwXqX0XqX8XOX. O * * * O * O , O O - - * - - O O O * : * * = * O * * * * O * O * * ; + X + ; * * - = = * y   B 7XqX0XqXqXqXqX"
};
