/* XPM */
static char *characterASAGI1675892910[] = {
/* columns rows colors chars-per-pixel */
"64 64 63 1 ",
"  c #020000",
". c #0C0000",
"X c #01000C",
"o c #140000",
"O c #1A0000",
"+ c #010013",
"@ c #00001A",
"# c #220000",
"$ c #320E0E",
"% c #3D0A0A",
"& c #2F100E",
"* c #2C1111",
"= c #351F1E",
"- c #3C1B1B",
"; c #3A1B20",
": c #3E3E3D",
"> c #461717",
", c #4C1414",
"< c #441915",
"1 c #42171E",
"2 c #411919",
"3 c #521212",
"4 c #421721",
"5 c #411820",
"6 c #5D2727",
"7 c #542C2C",
"8 c #5A292A",
"9 c #473231",
"0 c #612726",
"q c #612628",
"w c #373C54",
"e c #393B52",
"r c #363B5C",
"t c #3B385A",
"y c #343A63",
"u c #3A3860",
"i c #323A6C",
"p c #313970",
"a c #3D426B",
"s c #3A4173",
"d c #6C6A65",
"f c #676B6B",
"g c #696B6A",
"h c #716766",
"j c #706866",
"k c #706768",
"l c #C7A47E",
"z c #C9A37F",
"x c #BFA68C",
"c c #B9A793",
"v c #C4A485",
"b c #EFC396",
"n c #ECC39C",
"m c #F1C296",
"M c #DFC6AF",
"N c #DCC7B2",
"B c #DBC8B3",
"V c #D8C7BF",
"C c #D6C8BD",
"Z c #E6C5A5",
"A c #E9C4A1",
"S c #E2C6AB",
"D c #FFF9DB",
/* pixels */
"gggggggggggggggggggggggggggggfggggggggggggffgggggggggggggggggfgg",
"ggggggggggggggggggggggggfgggggggggggggggggffgggggggggggggggggggg",
"ggggggggggggggggggggggggggfggg    gggggggfgggggggggggggggggggggg",
"gggggggggggfgggggggggggggggggf  : gfgggggggggggggggggggggggggggg",
"gggggggggggggggggggggggggdgfgg    gggggggggggggggggfgggggggggggg",
"ggggggggggggggggggggggggggggggg  ggggggggggggggggggggggggggggggg",
"ggggggggggggggggkggggggggggggf    gggggggggggggggggggggggggggggg",
"gggggggggfgggggggggggggggg            gggggggggggggggggggggggggg",
"ggggggffgggggggggggggggg                fgggggggggggggggggggggfg",
"gggggggfgggggggggggggg                :   dggggggggggggggggggggg",
"gggggggfggggggggggggg                  ::  fggggggggggggggffgggg",
"ggggggggggggggggggggg                   :: gggggggggggggggffgggg",
"gfgggggggggggggggggg          ....          fggggggggggggggggggg",
"gggggggggggggggggggg        ..NMSN.         ggggggggfggggggggggg",
"ggggggggggfggggggggg      .oSZAAnnZSo.      gggggfgggggggggggggg",
"gggggggggggggggggggg     .BSZnnbnnAZSB.     gggggggggggggggggggg",
"gggggggggggggggggggd.C..oMSSSSnnnASSZSMo. C.gggggggggggggggggggg",
"ggggggggggggggggggfg.CC.SAZDODAnnADoDZZZ.CC.dggggggggggggggggggg",
"ggggggggggggggggggggg. .SnnnnnZZOSAnnnnS. .ggggggggggggfgggggggg",
"gggggggggggggggggggggff SnnmnnAOOSnnnnAS.fgggggggggggggggggggggg",
"ggggggggggggggggggfffggd.SnnnnnnnAnnbAZodffggggggggggggggggggggg",
"ggggggfgggggggggfggfgggd.BZnbnnAAnnbnZB.dfgggggggggggggggggggggg",
"ggggggggggggggggggggggggd.SAnnOooOnnAS.dgggggggggggggggggggggggg",
"gggggggggggggggggggggggggd.SZZSNNNZZS.dggggggggggggggggggggggggg",
"ggggggggggggggggggggggggggd..BBNNNB..dgggggggggggggggggggggggggg",
"gggggggggggggggggggggggggggd..oooo. gfggggggfggggggggggggggggggg",
"ggggggggggggggggggggggfgdfgd.cZnnAc.dggggggggggggggggggggggggggg",
"ggggggggggggggggggggggggfdg  .lbmzo. dgggggggggggggggggggggggggg",
"ggggggggggggggggggggggggfd   .vnnv.   gggggggggggggggggggggggggg",
"gggggggggggggggggggggggggjo=.oOlloo.=ohdgggggggggggggggggggggggg",
"gggfggggggggggggggggggggho2>2OOvvOO>>2ojgggggggggggggggggggggggg",
"ggggggggggggggggggggggg.o2,3,,OxxO<,3,2..ggggggggggggggggggggggg",
"gggggggggggggggggggggg o<3333,occo,,33,<o gfgggggggggggggggggggg",
"ggggggggggggggggggggd..-,3333,oo.o,3333,-..dgggggggggggggggggggg",
"ggggggggggggggggkgggd.->,3,33,-oo-,33333,-.jgggggggggggggggggggg",
"ggggggggggggggggggg o-7#,,,,,,2OO2,,,3,,#7-. ggggggggggggggggggg",
"ggggggggggggggggggg.2,8#OO#2<--Oo-2><OO##8,2.gggggggggggggggggfg",
"ggggggggggggggggggg.>,68777OOO-oo-OOO77786,2.ggggggggggggggggggg",
"ggggggggggggggggggg.2,,,3,067Oo.ooO7663,,3,2.ggggggggggggggggggg",
"ggggggggggggggfggggdo2,,,,,,779..977,,,,,>2okggggggggggggggggggg",
"ggggggggggggggggggggh.oOoO2>2-=..=-222ooOo.jkffgffgggggggggggggg",
"ggggggggggggggggggggg $$$$OOOoo...OOOoo*$*.gggfgfggggggggggggggg",
"ggggggggggggggggggggg.2,<%,<,$&o.&$,%%>>,2 gffggfdggggggggggggfg",
"ggggggggggggggggggggg.>333333,-oo-,333333,.gfggggfgggggggggggggg",
"ggggggggggggggggggffg.>333333,2oo2,333333>.gggggggggggfggggggggg",
"gggggggggggggggggggfg.2,,,,33,2Oo2,3,3,3,>.gggggfggggggggggggggg",
"ggggggggggggggggggggf -1552>3,2OO2,,,2242;.ggggggggggggggggggggg",
"ggfgggggggggfgggggggg......o55;oo;44o..... ggggggggggggggggggggg",
"gggggggggggggggggggggXtuuuut+XX..XX+tuuuuw fgggggggggggggggggggg",
"gggggggggggggggggggggXaiispiyreX+etyipspsaXdgggggggggggggggggggg",
"gggggggggfgggggggggggXypiippsyr@+rysppiipyXfggdggggggggggggggggf",
"gggggggggggggggggggggXrisiiiiyr@@ryiiiisiyXfgggggggggggggggggggg",
"gggggggggggggggggggggXwrrryrayr@@wyarrrrrw ggggggggggggggggggggg",
"ggggggggggggggggggggg +XXXX+@tw++ww@+XX++XXggggfgggggggggggggggg",
"gggggfggfgggggggggggggfg VV.gX   XXg.VV.gfgggggggggggggggggggggg",
"ggggffgggggggggggggggggd.BN.dggggggd.NN.dgggggggggggfggggggggggg",
"gggggggggggggggggggggggd.NNodggggggd.NNodggggggggggggggggggggggg",
"gggfggggggggggggggggggdd.NN.dggggggd.NN.dggggggggggggggggggggggg",
"ggggggggggggggggggggffgd.NN.dgggffgd.BN.dggggggggggggggggggggggg",
"ggggggggggggggggggggffgd.BB.dgggffgd.BB.dggggggggggggggggggggggg",
"gggggggggggggggggggggggd.CC.dggggggd.CC.gggggggggggggggggggggggg",
"gggggggggggggggggggggggg  . gggggggd  . gggggggggggggggggggggggg",
"gggggggggggggggggggggggggdgggggggggggdgggggggggggggggggggggggggg",
"gggggggggggfgggggggggggggggggggggggggggggggggggggggggggggggggggg"
};
