/* XPM */
static char *EXIT11675896498[] = {
/* columns rows colors chars-per-pixel */
"64 64 130 2 ",
"   c #010000",
".  c #030000",
"X  c #000002",
"o  c #010002",
"O  c #040000",
"+  c #060000",
"@  c #070000",
"#  c #010004",
"$  c #030004",
"%  c #030005",
"&  c #080000",
"*  c #0A0000",
"=  c #0B0000",
"-  c #0D0000",
";  c #0E0000",
":  c #0F0000",
">  c #110000",
",  c #120000",
"<  c #140000",
"1  c #3A383B",
"2  c #3B393C",
"3  c #3A383D",
"4  c #3A3A3C",
"5  c #3B393E",
"6  c #5F3D31",
"7  c #5E3E31",
"8  c #6F3726",
"9  c #6D3923",
"0  c #6A3A24",
"q  c #6A3A26",
"w  c #6C3924",
"e  c #6D3924",
"r  c #6F3824",
"t  c #6E3A25",
"y  c #6D3826",
"u  c #6C3926",
"i  c #6E3927",
"p  c #663B2A",
"a  c #633C2D",
"s  c #693829",
"d  c #6A3928",
"f  c #68382A",
"g  c #69392B",
"h  c #6A392A",
"j  c #683A2A",
"k  c #693A2A",
"l  c #6C3928",
"z  c #7D5C4B",
"x  c #7F594C",
"c  c #7F5B4D",
"v  c #7F5B4F",
"b  c #795D4F",
"n  c #7D5C4D",
"m  c #7C5C4F",
"M  c #7A5C51",
"N  c #785D52",
"B  c #7A5C52",
"V  c #795C54",
"C  c #6A6967",
"Z  c #6D6966",
"A  c #666A69",
"S  c #676B6A",
"D  c DimGray",
"F  c #696B68",
"G  c #686A69",
"H  c #6A6A68",
"J  c #6B6A68",
"K  c #6B6B69",
"L  c #69696B",
"P  c #696B6A",
"I  c #6A6A6A",
"U  c gray42",
"Y  c #6A6C6B",
"T  c #6B696C",
"R  c #696A6C",
"E  c #6A6A6C",
"W  c #6B6B6D",
"Q  c #6C6A6D",
"!  c #8F5639",
"~  c #8E563B",
"^  c #8F563B",
"/  c #8B573F",
"(  c #8D553C",
")  c #8F553D",
"_  c #8D573D",
"`  c #8E563D",
"'  c #8D573F",
"]  c #8E563F",
"[  c #91553B",
"{  c #8B5741",
"}  c #8A5742",
"|  c #8B5742",
" . c #8D5641",
".. c #895645",
"X. c #8B5644",
"o. c #8A5744",
"O. c #885746",
"+. c #8B5646",
"@. c #8A5746",
"#. c #8D5544",
"$. c #835847",
"%. c #865944",
"&. c #845946",
"*. c #865946",
"=. c #885844",
"-. c #8B5847",
";. c #885748",
":. c #835848",
">. c #835A48",
",. c #815A4B",
"<. c #805B4B",
"1. c #825B4A",
"2. c #865848",
"3. c #845A4A",
"4. c #81594D",
"5. c #805A4D",
"6. c #817F84",
"7. c #837E85",
"8. c #827F86",
"9. c #847F85",
"0. c #857E86",
"q. c #847F86",
"w. c #867F87",
"e. c #818183",
"r. c #828083",
"t. c #838184",
"y. c #828085",
"u. c #828284",
"i. c #838186",
"p. c #858086",
/* pixels */
"P P P P P P P P P P P P P P P P P P P P P Y P P P P A P P P P P P P P P P P P P P P P P P P P P P P P P P P P P P P P P P P P P ",
"P P P P P P P P P P P P P P P P P P P P P P P P P P A A Y A P A P P P P P P P P P P P P P P P P P P P P P P P P P P P P P P P P ",
"P P P P P P P P P P P P P P P P P P S A P P P P P P P P Y Y Y A P P P P P P P P P P P P P P T S P P P P P P P P P P P P P P P P ",
"P P P P P P P P P P P P P P P P P Y S P P A P P P K P P Y T T T P P T T T P P P P P P P P P T T P P P P P P P P P P P P P P P P ",
"P P P P P P P P P P P P P P P P P P P P T y.y.y.9.7.p.e.7.y.y.y.e.y.y.7.7.y.y.e.y.e.e.T P Y P P P P P P P P P P P P P P P P P P ",
"P P P P P P P P P P P P P P P P P P P P 3 y.  # #   p.%   y.p.7.  # 7.# 7.# #   # # 7.P P C P P P P P P P P P P P P P P P P P P ",
"P P P P P P P P P P P P P P P P A Y Y Y 3 y.# y.9.q.q.9.# y.y.p.  y.y.# q.q.y.# 9.9.7.Q P P P P P P P P P P P P P P P P P P P P ",
"P P P P P P P P P P P P P P P P Y Y S Y 5 y.# y.9.q.q.9.  # y.    y.y.# q.i.y.# 9.9.7.T P P P P P P P P P P P P P P P P P P P P ",
"P P P P P P P P P P P P P P P P P P P P 2 y.  # # y.7.y.y.  # # y.y.y.# q.q.y.# y.q.y.T T Y P A P P P P P P P P P P P P P P P P ",
"P P P P P P P P P P P P P P P P P P P P 3 y.  y.7.y.p.p.  # y.  # y.p.# q.7.7.# q.q.y.T T P P P P P P P P P P P P P P P P P P P ",
"P P P P P P P P P P P P P P P P P P P T 5 y.  y.y.e.p.7.# e.y.y.# y.y.# q.q.y.# q.q.y.T P P P P P P P P P P P P P P P P P P P P ",
"P P P P P P P P P P P P P P P P P P P P 3 y.#       p.#   y.p.y.#   y.# i.y.y.# q.y.y.Y P P P P P P P P P P P P P P P P P P P P ",
"P P P P P P P P P P P P P P P P P C P P 2 7.p.p.y.y.y.9.y.y.y.y.y.y.y.y.i.i.y.y.y.y.y.T Y A P P P P P P P P P P P P P P P P P P ",
"P P P P P P P P P P P P P P P P K P P P 4 4 2 2 5 3 2 2 3 4 3 3 3 3 3 3 5 5 3 3 5 3 P T P P P P P P P P P P P P P P P P P P P P ",
"P P P P P P P P P P P P P P P P P P P P P K P P T P T T T Y T P Y Y T T T T Y T Y S T S P P P P P P P P P P P P P P P P P P P P ",
"P P P P P P P P P P P P P P P P P P P P Z @ @ * @ * * * * @ * * * * * * * * * * @ @ @ C P P P P P P P P P P P P P P P P P P P P ",
"P P P P P P P P P P P P P P P P P P P   - > 7 4.x a &.1.a 1.1.&.*.1.1.a 2.1.a 4.4.7 > -   P P P P P P P P P P P P P P P P P P P ",
"P P P P P P P P C P P P P P P P P P @ * b 1.k ..-.9 ) _ 9 | ) ) ~ ) | u ) ) u +.+.k 2.B - @ P P P P P P P P P P P P P P P P P P ",
"P P P P P P P P P P P P P P P T P @ - 7 *.| u -.-.9 ) _ q | ) ) ~ ) | 9 | ) u +.} u } *.7 -   P P P P P P P P P P P P P P P P P ",
"P P P P P P P P P P P P P P P C   - B p | ) u ..} 9 _ ) 9 | ) ) ~ ) -.u ) _ u -.} 9 ) ) k B *   P P P P P P P P P P P P P P P P ",
"P P P P P P P P P P P A P P P C * - 4.q ) ) u ..-.9 ) _ u } [ _ ~ _ | u ) _ q ..-.9 ) _ q 1.- @ P P P P P P P P P P P P P P P P ",
"P P P P P P P P P P P P P P P   * B 1.9 _ _ u +.} u ) ) u } ) [ ~ ) } 9  .) u ..} u _ | 9 :.B *   P P P P A P P P P P P P P P P ",
"P P P P P P P P P P P P P P P @ - m 2.u ) ) l +.} 9 ) _ 9 | ) [ ~ ) } u ) ) u -.} t ) ) 9 *.m - @ P P P P P P P P P P P P P P P ",
"P P P P P P P P P P P Y P P P @ > m *.u _ [ u ..-.u _ [ 9 | [ [ ~ [ | 9 ) ~ u -.-.u ) _ u 2.c > @ A P P Y P P P P P P P P P P P ",
"P P P P P P P P P P P P P P P @ - m *.9 ) _ u -...u ) ) u | ^ ^ ~ ~ } u [ ) l -.| u ) _ 9 *.c >   P P P P P P P P P P P P P P P ",
"P P P P P P P P P P P P P P P @ > m ;.9 _ ) u ..-.9 _ ) 9 | _ [ [ _  .9 ) _ u -.*.9 ) ) q 2.c > @ P P P P P P P P P P P P P P P ",
"P P P P P P P P P P P P P P P @ - m 2.u  .) u ..-.9 ) _ 9 | _ ^ ~ [ -.u ) ) 9 ..-.9 _ ) 9 ;.c >   P P P P P P P P P P P P P P P ",
"P P P P P P P P P P P P P P P @ > c *.9 ) [ u -.} 9 _ ) u | ) ^ ^ _ ..9 _ ) 9 -.} 9 ) _ u *.c > @ P P P P P P P P P P P P P P P ",
"P P P P P P P P P P P P P P P @ - m 2.9 ) _ u ..} u _ ) 9 } ) ^ ) ) +.8 ) _ q -.-.9 ) ) 9 2.m >   P P P P P P P P P P P P P P P ",
"P P P P P P P P P P P P P P P @ > m 2.9 _ _ 9 ..-.9 ) _ q } _ ^ ~  . .u _ ) 9 ..} u ) _ 9 *.m > @ P P P P P P P P P P P P P P P ",
"P P P P P P P P P P P P P P P @ > m -.u ) ) q -.=.9 ) ) 9 | ) ~ [ )  .8 ) ) 9 -.} 9 ) ) u 2.M >   P P P P P P P P P P P P P P P ",
"P P P P P P P P P P P P P P P @ - m *.9 ) _ u -.=.9 ) _ 9 } ) ~ ) _ +.u _ ) u ..-.9 ) ) 9 2.c > @ P P P P P P P P P P P P P P P ",
"P P P P P P P P P P P P P P P @ - m -.u ) ) u -.-.u _ ) u | _ ~ ~ _ ..u [ ) u -.} u [ _ u *.c >   P P P P P P P P P P P P P P P ",
"P P P P P P P P P P P P P P P @ > m *.9  .[ u +.=.u ) _ 9 } ) [ ~ )  .u  .) u -...9 _ ) u 2.c > @ P P P P P P P P P P P P P P P ",
"P P P P P P P P P P P P P P P @ > c 2.u ) _ u +.} 9 _ [ 9 | [ _ [ ) -.9  .[ u ..-.9 ) _ 9 *.c >   P P P P P P P P P P P P P P P ",
"P P P P P P P P P P P P P P P @ > c *.9 | ) u ..} q ^ ^ u | _ ~ [ [ | u  . .u ..} 9 _ ) u -.c > @ P P P P P P P P P P P P P P P ",
"P P P P P P P P P P P P P P P @ - m -.9 _ ) q ;.-.u ) ) u | [ ~ ~ ) | u [  .u -...u ) _ u *.4.>   P P P P P P P P P P P P P P P ",
"P P P P P P P P P P P P P P P @ > m *.9 ) ) u ..} 9 ) _ 9 | ) ~ ~ [ ..9  .) u ..| 9 _ ) 9 -.m > @ P P P P P P P P P P P P P P P ",
"P P P P P P P P P P P P P P P @ - c ;.q | ) q -.-.9 _ ) 9 } _ ) ~ ) | u  .) u +...u ) ) u *.M >   P P P P P P P P P P P P P P P ",
"P P P P P P P P P P P P P P P @ - b ;.9 ) ~ 8 -.} 9 ) _ 9 -. .) )  .-.u ) [ u +.| 9 ) ) u ;.c > @ P P P P P P P P P P P P P P P ",
"P P P P P P P P P P P P P P P @ > m 2.9 ) ) q ..} 9 ) _ q -.u | } u -.q  .) q -...9 [ ) 9 -.c >   P P P P P P P P P P P P P P P ",
"P P P P P P P P P P P P P P P @ > m 2.9  .) u -.-.9 ) / k g g ..-.k k k ) ) u ..} u ) _ u 2.c > @ P P P P P P P P P P P P P P P ",
"P P P P P P P P P P P P P P P @ - m -.u ) ) 8 ..-.9 _ } l s k ....k s q  .) u -.} u _ ) 9 2.m >   P P P P P P P P P P P P P P P ",
"P P P P P P P P P P P P P P P * > m *.9  .) u -.} 9 ) ) u ;.l ....8 ;.l ) [ u +.-.u ) _ 9 *.m > @ P P P P P P P P P P P P P P P ",
"P P P P P P P P P P P P P P P @ > z 2.9 ) _ u -.-.9 ~ ) u }  ._ [  .| u ) ) u +.} 9 _ ) 9 *.m >   P P P P P P P P P P P P P P P ",
"P P P P P P P P P P P P P P P @ - z 2.9 | ) u ..} u ) ) 9 -.[ ^ ) ) ..9  .) u ..} u ) _ u 2.<.> @ P P P P P P P P P P P P P P P ",
"P P P P P P P P P P P P P P P @ > <.2.u  .) u +.} 9 ) _ u | ) ~ ~ ) -.9 ) _ u -.-.u ) ) 9 2.m >   P P P P P P P P P P P P P P P ",
"P P P P P P P P P P P P P P P * > m 2.u ) [ u ..-.9 _ ) 9 | _ [ ~ ) | u | ) u +.} 9 ) _ u *.4.> @ P P P P P P P P P P P P P P P ",
"P P P P P P P P P P P P P P P @ - m -.9 ) ) u +. .u ) ) 9 | ^ _ ) _  .9 ) ) u -.} u ) _ u 2.<.>   P P P P P P P P P P P P P P P ",
"P P P P P P P P P P P P P P P @ > m *.u  .) u ..-.9 _ ) 9 | _ [ _ [ ..u | ) 8 +.-.9 _ ) u 2.<.> @ P P P P P P P P P P P P P P P ",
"P P P P P P P P P P P P P P P @ > m -.9 ) _ u -.-.9 ) _ u | _ ^ [ _  .u ) _ u +.} 9 ) _ u -.<.>   P P P P P P P P P P P P P P P ",
"P P P P P P P P P P P P P P P @ - m 2.u | ) u ..} 9 _ ) u } [ ~ ~ ) ..u _ ) u ..} u ) ) u *.m > @ P P P P P P P P P P P P P P P ",
"P P P P P P P P P P P P P P P @ > m *.9  .) u ..} q ) _ u } [ ~ ^ [ -.9  .) q -.-.q ) ) 9 2.m >   P P P P P P P P P P P P P P P ",
"P P P P P P P P P P P P P P P @ > m *.u ) ) u -...9 _ ) 9 } _ ~ ^ _ ..9 _ ) u ..| 9 ) ) u 2.4.> @ P P P P P P P P P P P P P P P ",
"P P P P P P P P P P P P P P P @ - m *.u  .) 8 ..} 9 ) _ 9 | ) ~ _ )  .u  .) q ..-.9 _ ) u -.<.>   P P P P P P P P P P P P P P P ",
"P P P P P P P P P P P P P P P @ > m 2.u ) _ u -.-.9 ) ) u | _ [ ~ )  .u ) ~ 8 -.=.9 ) _ u 2.<.> @ P P P P P P P P P P P P P P P ",
"P P P P P P P P P P P P P P P @ > m *.9 ) ) 8 ..} u _ [ u } _ ^ ~ )  .u ) ) u -...9 ) ) q *.m >   P P P P P P P P P P P P P P P ",
"P P P P P P P P P P P P P P P @ > m 2.u _ ) u -.-.u ) | 9 } [ ^ [ _ ..9  .) u -.| u ) _ u 2.<.> @ P P P P P P P P P P P P P P P ",
"P P P P P P P P P P P P P P P @ - m ..9  .) u ..} 9 _ [ u | ) ~ ~ [ -.9 ) ) 8 ....9 _ ) 9 2.m >   P P P P P P P P P P P P P P P ",
"P P P P P P P P P P P P P P P @ > m 2.u ) _ u -.} u ^ ^ 9 | _ [ ~ _ | u ) ) u -.| q ) _ 9 2.4.> @ P P P P P P P P P P P P P P P ",
"P P P P P P P P P P P P P P P @ > m *.9 ) ) u -.-.u ) ) 9 | ^ _ [ _ +.9 } ) u -.| 9 _ ) u 2.c >   P P P P P P P P P P P P P P P ",
"P P P P P P P P P P P P P P P @ > m *.u | ) 8 ..} 9 ) _ u | _ [ _ )  .9 ) _ q -.-.9 ) _ 9 2.c > @ P P P P P P P P P P P P P P P ",
"P P P P P P P P P P P P P P P @ - m *.u ) _ u ..-.9 _ ) 9 | _ ^ [ _ ..u  .) 8 ..-.9 ) ) u *.c >   P P P P P P P P P P P P P P P ",
"P P P P P P P P P P P P P P P @ > m 2.u _ ) u -.} 9 ) _ u } [ ~ ~ ) } u ) ) u ..} 9 _ ) u ;.c > @ P P P P P P P P P P P P P P P "
};
